<svg xmlns="http://www.w3.org/2000/svg" viewBox="0 0 327.78 241.87"><defs><style>.cls-1{fill:#7381c6;}.cls-2{fill:#1f2937;}.cls-3{fill:#dfe6fe;}.cls-4{fill:#abb9fb;}.cls-5{fill:#fefefe;}.cls-6{fill:#fdfefd;}.cls-7{fill:gray;}.cls-8{fill:#202a38;}.cls-9{fill:#202937;}.cls-10{fill:#202938;}.cls-11{fill:#7e7e7e;}.cls-12{fill:#c9c9ca;}.cls-13{fill:#f2f4f0;}.cls-14{fill:#45596e;}.cls-15{fill:#dbe2d3;}.cls-16{fill:#fff;}.cls-17{fill:#c3cbf1;}.cls-18{fill:#a1c8b1;}.cls-19{fill:#fedea3;}.cls-20{fill:#e45b7e;}</style></defs><g id="Layer_2" data-name="Layer 2"><g id="laptop"><path class="cls-1" d="M314.39,241.87h-301a13,13,0,0,1-13-13h327A13,13,0,0,1,314.39,241.87Z"/><rect class="cls-2" x="42.45" width="244.94" height="170.59" rx="8.26"/><rect class="cls-3" x="50.9" y="9.04" width="228.04" height="152.51" rx="7.54"/><path class="cls-2" d="M100,19.56h32.75c0,.45,0,.9,0,1.35V113h-32.7V20.91C100.05,20.46,100,20,100,19.56Z"/><path class="cls-2" d="M157.72,19.56h32.74c0,.45,0,.9,0,1.35V113h-32.7V20.91C157.74,20.46,157.72,20,157.72,19.56Z"/><path class="cls-2" d="M215.4,19.56h32.75c0,.45,0,.9,0,1.35V113h-32.7V20.91C215.43,20.46,215.41,20,215.4,19.56Z"/><path class="cls-2" d="M75.32,113.05q0-7.39,0-14.8V19.56h24.5c0,.45,0,.9,0,1.35v92.14Z"/><path class="cls-2" d="M133,19.56H157.5c0,.45,0,.9,0,1.35V113H133V20.91C133,20.46,133,20,133,19.56Z"/><path class="cls-2" d="M190.68,19.56h24.51c0,.45,0,.9,0,1.35V113H190.7V20.91C190.7,20.46,190.69,20,190.68,19.56Z"/><path class="cls-4" d="M190.68,19.56c0,.45,0,.9,0,1.35V113h24.46V20.91c0-.45,0-.9,0-1.35h.21c0,.45,0,.9,0,1.35V113h32.7V20.91c0-.45,0-.9,0-1.35h.22c0,.45,0,.9,0,1.34v92.17h8a2.19,2.19,0,0,1,.23.68c0,2.63,0,5.26,0,7.89l-14.07,0-4.84.18h-3.31l-4.85-.12-8.23-.06h-16.7l-3.23.22a2.35,2.35,0,0,0-.64-.23c-1.39,0-2.77,0-4.15,0H184.81l-4.84.18H168.43l-4.84-.18H151.85l-4.84.18H143.7l-4.84-.18H127.12l-4.84.18H110.74l-4.84-.18H94.16l-4.84.18H86l-4.84-.18-5.83,0,0-8.59H99.79V20.91c0-.45,0-.9,0-1.35H100c0,.45,0,.9,0,1.35V113h32.7V20.91c0-.45,0-.9,0-1.35H133c0,.45,0,.9,0,1.35V113h24.46V20.91c0-.45,0-.9,0-1.35h.22c0,.45,0,.9,0,1.35V113h32.7V20.91c0-.45,0-.9,0-1.35Z"/><path class="cls-2" d="M256.37,113.07h-8V20.9c0-.44,0-.89,0-1.34h8q0,46,0,92.05C256.38,112.09,256.37,112.58,256.37,113.07Z"/><path class="cls-5" d="M176.67,121.8H180c0,.41.08.81.08,1.22q0,9.45,0,18.91a11.72,11.72,0,0,0,.22,1.64c0,.19-.11.41-.05.56.39.92,1.22.75,2,.81v15.84h.5V144.94a3.78,3.78,0,0,0,1.07-.09c.57-.19,1.18-.42.83-1.28a11.53,11.53,0,0,0,.22-1.64c0-6.69,0-13.39,0-20.09h5.61v39.45h-16.7l.19-.44c.15-.34.44-.67.44-1,0-5,.05-9.94.06-14.91a3.78,3.78,0,0,0,1.07-.09c.57-.19,1.18-.42.83-1.28a11.72,11.72,0,0,0,.22-1.64c0-6.31,0-12.61,0-18.91C176.59,122.61,176.64,122.21,176.67,121.8Z"/><path class="cls-5" d="M174,160.85l-.19.44H158.15l-.19-.44c0-.23,0-.45,0-.67q0-18.77,0-37.51c0-.25,0-.5,0-.83h5.57q0,10,0,20.09a13.14,13.14,0,0,0,.21,1.64c0,.19-.1.41,0,.56.39.92,1.22.75,2,.81v15.84h.5V144.94l1.43-.05c.54.09.76-.15.68-.7l-.21-.62a11.72,11.72,0,0,0,.22-1.64c0-6.31,0-12.61,0-18.91,0-.41.05-.81.08-1.22h3.3c0,.41.08.81.08,1.22q0,9.45,0,18.91a11.72,11.72,0,0,0,.22,1.64c0,.19-.11.41,0,.56.39.92,1.22.75,2,.81Zm-3.76-5.68H170v2.54h.22Z"/><path class="cls-5" d="M143.7,121.8H147c0,.41.08.81.08,1.22,0,6.3,0,12.6,0,18.91a13.38,13.38,0,0,0,.21,1.64c0,.19-.1.41,0,.56.39.92,1.22.75,1.95.81,0,.41,0,.82,0,1.23,0,4.56,0,9.12,0,13.68,0,.33.29.66.44,1l.19.44h-16.7V121.84h5.61q0,10,0,20.09a13.14,13.14,0,0,0,.21,1.64,1.37,1.37,0,0,0,0,.56c.39.92,1.22.75,1.95.81v15.84h.51V144.94a3.81,3.81,0,0,0,1.07-.09c.56-.19,1.18-.42.83-1.28a13.42,13.42,0,0,0,.22-1.64c0-6.31,0-12.61,0-18.91C143.62,122.61,143.68,122.21,143.7,121.8Zm-6.52,33.14H137v2.11h.21Zm8.58,2,.29.27.57-.7-.27-.24Zm-1.08-.66-.36.22.59.68.23-.19Zm1.43-1.47-.26.24.53.61.27-.24Zm-1,.37-.24-.27-.44.42c.07.08.18.23.2.21A5.46,5.46,0,0,0,145.08,155.22Z"/><path class="cls-5" d="M256.39,161.29h-8.46l.19-.44a3.43,3.43,0,0,0,.44-1.11q0-18.26,0-36.52V121.9h7.81Z"/><path class="cls-5" d="M132.78,161.29h-7.59l-.19-.44V144.94a3.88,3.88,0,0,0,1.08-.09c.56-.19,1.18-.42.82-1.28a11.55,11.55,0,0,0,.23-1.64q0-10,0-20.09h5.62Z"/><path class="cls-5" d="M99.81,161.29H92.22l-.19-.44q0-8,0-15.91a3.78,3.78,0,0,0,1.07-.09c.57-.19,1.18-.42.83-1.28a11.53,11.53,0,0,0,.22-1.64c0-6.69,0-13.39,0-20.09h5.61Z"/><path class="cls-6" d="M223.21,161.29h-7.59V121.84h5.61c0,6.7,0,13.4,0,20.09a13.14,13.14,0,0,0,.21,1.64,1.37,1.37,0,0,0,0,.56c.39.92,1.22.75,1.95.81v15.91Z"/><path class="cls-5" d="M198.49,161.29H190.9V121.84h5.61q0,10,0,20.09a13.17,13.17,0,0,0,.22,1.64c0,.19-.11.41,0,.56.38.92,1.21.75,1.95.81v15.91Z"/><path class="cls-5" d="M248.12,160.85l-.19.44h-7.37l-.19-.44q0-8,0-15.91a3.78,3.78,0,0,0,1.07-.09c.57-.18,1.18-.43.83-1.28a11.53,11.53,0,0,0,.22-1.64q0-10,0-20.09h5.61V139Z"/><path class="cls-5" d="M107.84,161.29h-7.59V121.84h5.61q0,10,0,20.09a13.17,13.17,0,0,0,.22,1.64c0,.19-.11.41,0,.56.38.92,1.21.75,2,.81v15.91Zm-4.1-5.57.13,0v-.61h-.09Z"/><path class="cls-5" d="M149.91,161.29l-.19-.44q0-8,0-15.91a3.78,3.78,0,0,0,1.07-.09c.57-.19,1.18-.43.83-1.28a11.53,11.53,0,0,0,.22-1.64q0-10,0-20.09h5.62v37.68a4.76,4.76,0,0,0,0,1c0,.13.28.22.43.33l.19.44Zm4-5.13.35.12c.13-.38.26-.75.36-1.14a3.17,3.17,0,0,0-.4-.19Zm-.35-.91-.14.05-.12,1.74h.26Z"/><path class="cls-5" d="M83.11,161.29H75.52V121.84h5.62q0,10,0,20.09a11.53,11.53,0,0,0,.22,1.64c0,.19-.11.41,0,.56.39.92,1.22.75,2,.81v15.91Zm-2.89-6.45-.31.24.78,1,.25-.2Zm.46,1.65-.39-.13-.3.94.39.13Zm-2.06-.17-.28.33.66.59.22-.25Zm.07-1.39c-.1.23-.22.38-.19.46s.2.16.31.19.16-.16.15-.23A1.83,1.83,0,0,0,78.69,154.93Z"/><path class="cls-5" d="M215.19,161.29H207.6l-.19-.44V144.94a4.57,4.57,0,0,0,1.05-.05c.63-.17,1.14-.49.85-1.32a11.55,11.55,0,0,0,.23-1.64q0-10,0-20.09h5.62Zm-3.33-6.47h-1.07v2.36c1.21.15,1.27.06,1.08-1.07A7.9,7.9,0,0,1,211.86,154.82Z"/><path class="cls-6" d="M207.41,160.85l.19.44h-9.11l.18-.44a3,3,0,0,0,.45-1c0-5,0-9.94,0-14.91a3.78,3.78,0,0,0,1.07-.09c.57-.19,1.18-.43.83-1.28a13.2,13.2,0,0,0,.23-1.64q0-10.05,0-20.1l3.23-.22a8.1,8.1,0,0,1,.2,1.28c0,6.34,0,12.69,0,19a13.38,13.38,0,0,0,.21,1.64c.09.33.08.87.28,1a7.2,7.2,0,0,0,1.63.4c0,.41,0,.82,0,1.23,0,4.56,0,9.12,0,13.68C207,160.18,207.25,160.51,207.41,160.85Z"/><path class="cls-6" d="M83.11,161.29l.19-.44c.15-.34.44-.67.44-1,0-5,.05-9.94.06-14.91a3.78,3.78,0,0,0,1.07-.09c.57-.19,1.18-.42.83-1.28a11.72,11.72,0,0,0,.22-1.64c0-6.31,0-12.61,0-18.91,0-.41,0-.81.08-1.22h3.3c0,.41.08.81.08,1.22q0,9.45,0,18.91a11.72,11.72,0,0,0,.22,1.64c0,.19-.11.41,0,.56.39.92,1.22.75,2,.81,0,.41,0,.82,0,1.23,0,4.56,0,9.12,0,13.68a3.22,3.22,0,0,0,.44,1l.19.44Z"/><path class="cls-5" d="M107.84,161.29l.18-.44a3,3,0,0,0,.45-1c0-5,0-9.94,0-14.91a3.78,3.78,0,0,0,1.07-.09c.57-.19,1.18-.42.83-1.28a13.47,13.47,0,0,0,.23-1.64c0-6.31,0-12.61,0-18.91,0-.41,0-.81.08-1.22H114c0,.41.08.81.08,1.22,0,6.3,0,12.6,0,18.91a13.38,13.38,0,0,0,.21,1.64c0,.19-.11.41,0,.56.38.92,1.22.75,2,.81,0,.41,0,.82,0,1.23,0,4.56,0,9.12,0,13.68,0,.33.28.66.44,1l.19.44Z"/><path class="cls-6" d="M223.21,161.29l.19-.44c.15-.34.44-.67.44-1,0-5,0-9.94,0-14.91a3.85,3.85,0,0,0,1.08-.09c.56-.19,1.18-.42.83-1.28a13.42,13.42,0,0,0,.22-1.64c0-6.32,0-12.63,0-18.94v-1.18h3.47c0,6.74,0,13.49,0,20.23a11.48,11.48,0,0,0,.21,1.53,1.37,1.37,0,0,0,0,.56c.39.92,1.22.75,1.95.81,0,.41,0,.82,0,1.23,0,4.56,0,9.12,0,13.68,0,.33.29.66.44,1l.19.44Z"/><path class="cls-5" d="M232.32,161.29l-.19-.44q0-8,0-15.91a3.81,3.81,0,0,0,1.07-.09c.57-.19,1.18-.43.83-1.28a13.42,13.42,0,0,0,.22-1.64c0-6.31,0-12.61,0-18.91,0-.41.06-.81.08-1.22h3.31c0,.41.08.81.08,1.22,0,6.3,0,12.6,0,18.91a13.38,13.38,0,0,0,.21,1.64c0,.19-.1.41,0,.56.39.92,1.22.75,2,.81,0,.41,0,.82,0,1.23,0,4.56,0,9.12,0,13.68,0,.33.29.66.44,1l.19.44Z"/><path class="cls-5" d="M117,161.29l-.19-.44V144.94a3.88,3.88,0,0,0,1.08-.09c.56-.19,1.17-.43.82-1.28a11.76,11.76,0,0,0,.23-1.64q0-9.47,0-18.91c0-.41,0-.81.08-1.22h3.3c0,.41.08.81.08,1.22,0,6.3,0,12.6,0,18.91a13.38,13.38,0,0,0,.21,1.64c0,.19-.11.41,0,.56.38.92,1.22.75,2,.81,0,.41,0,.82,0,1.23,0,4.56,0,9.12,0,13.68,0,.33.28.66.44,1l.19.44Zm3.8-4.07.83-2.37-.14-.08-.7,1.07-.71-1.09-.15.12Z"/><path class="cls-7" d="M248.12,160.85l0-21.84V121.84h-5.61l0-.22,14.07,0c0,.89,0,1.79,0,2.68v37h-.22V121.9h-7.81v1.32q0,18.25,0,36.52A3.43,3.43,0,0,1,248.12,160.85Z"/><path class="cls-7" d="M105.86,121.84h-5.61v39.45h-.44V121.84H94.2l0-.22H105.9Z"/><path class="cls-7" d="M132.78,161.29V121.84h-5.62l0-.22h11.74l0,.22h-5.61v39.45Z"/><path class="cls-7" d="M215.19,161.29V121.84h-5.62l0-.22h11.74l0,.22h-5.61v39.45Z"/><path class="cls-7" d="M196.51,121.84H190.9v39.45h-.44V121.84h-5.61l0-.22h11.74Z"/><path class="cls-7" d="M81.14,121.84H75.52v39.45h-.21v-38.2c0-.48,0-1,0-1.45l5.83,0Z"/><path class="cls-8" d="M221.23,121.84l0-.22,8.23.06v.13H226V123c0,6.31,0,12.62,0,18.94a13.42,13.42,0,0,1-.22,1.64l-1.91.49h-.49l-1.92-.49a13.14,13.14,0,0,1-.21-1.64C221.24,135.24,221.24,128.54,221.23,121.84Z"/><path class="cls-8" d="M209.53,121.62l0,.22q0,10,0,20.09a11.55,11.55,0,0,1-.23,1.64l-1.91.49h-.48l-1.92-.49a13.38,13.38,0,0,1-.21-1.64c0-6.35,0-12.7,0-19a8.1,8.1,0,0,0-.2-1.28Z"/><path class="cls-2" d="M81.14,121.84l0-.22,4.84.18c0,.41-.08.81-.08,1.22,0,6.3,0,12.6,0,18.91a11.72,11.72,0,0,1-.22,1.64l-1.91.49h-.48l-1.92-.49a11.53,11.53,0,0,1-.22-1.64Q81.14,131.9,81.14,121.84Z"/><path class="cls-2" d="M94.16,121.62l0,.22c0,6.7,0,13.4,0,20.09a11.53,11.53,0,0,1-.22,1.64l-1.91.49h-.48l-1.92-.49a11.72,11.72,0,0,1-.22-1.64q0-9.47,0-18.91c0-.41-.05-.81-.08-1.22Z"/><path class="cls-9" d="M105.86,121.84l0-.22,4.84.18c0,.41-.08.81-.08,1.22,0,6.3,0,12.6,0,18.91a13.47,13.47,0,0,1-.23,1.64l-1.91.49H108l-1.92-.49a13.17,13.17,0,0,1-.22-1.64Q105.86,131.9,105.86,121.84Z"/><path class="cls-8" d="M127.12,121.62l0,.22q0,10,0,20.09a11.55,11.55,0,0,1-.23,1.64l-1.9.49h-.49l-1.92-.49a13.38,13.38,0,0,1-.21-1.64c0-6.31,0-12.61,0-18.91,0-.41,0-.81-.08-1.22Z"/><path class="cls-10" d="M163.79,143.57a13.14,13.14,0,0,1-.21-1.64q0-10,0-20.09l0-.22,4.84.18c0,.41-.08.81-.08,1.22,0,6.3,0,12.6,0,18.91a11.72,11.72,0,0,1-.22,1.64l-1.91.49h-.49Z"/><path class="cls-9" d="M184.81,121.62l0,.22c0,6.7,0,13.4,0,20.09a11.53,11.53,0,0,1-.22,1.64l-1.91.49h-.48l-1.92-.49a11.72,11.72,0,0,1-.22-1.64q0-9.47,0-18.91c0-.41-.05-.81-.08-1.22Z"/><path class="cls-2" d="M242.5,121.62l0,.22q0,10,0,20.09a11.53,11.53,0,0,1-.22,1.64l-1.91.49h-.49l-1.92-.49a13.38,13.38,0,0,1-.21-1.64c0-6.31,0-12.61,0-18.91,0-.41-.06-.81-.08-1.22Z"/><path class="cls-2" d="M196.51,121.84l0-.22c1.38,0,2.76,0,4.15,0a2.35,2.35,0,0,1,.64.23q0,10,0,20.1a13.2,13.2,0,0,1-.23,1.64l-1.91.49h-.48l-1.92-.49a13.17,13.17,0,0,1-.22-1.64Q196.51,131.9,196.51,121.84Zm3,16.34-.66-.67.75-.62H198.4v2.41h.21l.17-1.08Z"/><path class="cls-2" d="M229.5,121.81v-.13l4.85.12c0,.41-.08.81-.08,1.22,0,6.3,0,12.6,0,18.91a13.42,13.42,0,0,1-.22,1.64l-1.91.49h-.49l-1.92-.49a11.48,11.48,0,0,1-.21-1.53C229.49,135.3,229.5,128.55,229.5,121.81Zm3.42,15.13-.2-.19-1,.89-.21-.79-.17,0v2.4l.22,0,.17-.8,1.06.89.15-.18L232,138Z"/><path class="cls-2" d="M151.88,121.84q0,10,0,20.09a11.53,11.53,0,0,1-.22,1.64l-1.91.49h-.49l-1.92-.49a13.38,13.38,0,0,1-.21-1.64c0-6.31,0-12.61,0-18.91,0-.41-.06-.81-.08-1.22l4.84-.18Zm-1.94,15.58,0,1.42.15.14a5.47,5.47,0,0,0,.3-1.51c0-.23-.66-.67-.79-.59a1.91,1.91,0,0,0-.92,1c-.07.41.29.91.46,1.36.16-.64.09-1.19.18-1.71S149.6,136.83,149.94,137.42Z"/><path class="cls-9" d="M138.82,121.84l0-.22,4.84.18c0,.41-.08.81-.08,1.22,0,6.3,0,12.6,0,18.91a13.42,13.42,0,0,1-.22,1.64l-1.91.49H141l-1.92-.49a13.14,13.14,0,0,1-.21-1.64Q138.83,131.9,138.82,121.84Zm1.85,15.07-.21.4,1.06,1.5-.88.39.14.26c.43-.24,1.09-.39,1.24-.75a2.38,2.38,0,0,0-.16-1.65C141.77,136.86,141.09,137,140.67,136.91Z"/><path class="cls-2" d="M119,121.8c0,.41-.08.81-.08,1.22q0,9.45,0,18.91a11.76,11.76,0,0,1-.23,1.64l-1.91.49h-.48l-1.92-.49a13.38,13.38,0,0,1-.21-1.64c0-6.31,0-12.61,0-18.91,0-.41-.05-.81-.08-1.22Zm-2.42,15c-.83.79-.9,1.46-.5,2.1a1,1,0,0,0,.9.31c.25-.09.6-.68.53-.8a6.26,6.26,0,0,0-1.07-1S116.45,137.28,116.56,136.85Z"/><path class="cls-9" d="M172,143.57a11.72,11.72,0,0,1-.22-1.64q0-9.47,0-18.91c0-.41-.05-.81-.08-1.22h4.94c0,.41-.08.81-.08,1.22,0,6.3,0,12.6,0,18.91a11.72,11.72,0,0,1-.22,1.64l-1.91.49H174Zm3.38-4.35-.94-2.45h-.3l-1.05,2.46C173.92,138.62,174.59,138.17,175.42,139.22Z"/><path class="cls-7" d="M151.88,121.84l0-.22h11.74l0,.22H158c0,.33,0,.58,0,.83q0,18.75,0,37.51c0,.22,0,.44,0,.67-.15-.11-.4-.2-.43-.33a4.76,4.76,0,0,1,0-1V121.84Z"/><path class="cls-11" d="M174,144.06h.48v.88c0,5,0,9.94-.06,14.91,0,.33-.29.66-.44,1V144.06Z"/><path class="cls-11" d="M182.2,144.06h.48v16.72h-.5V144.06Z"/><path class="cls-12" d="M182.2,144.06v.88c-.74-.06-1.57.11-2-.81-.06-.15,0-.37.05-.56Z"/><path class="cls-12" d="M182.69,144.94v-.88l1.91-.49c.35.86-.26,1.09-.83,1.28A3.78,3.78,0,0,1,182.69,144.94Z"/><path class="cls-12" d="M174.45,144.94v-.88l1.91-.49c.35.86-.26,1.09-.83,1.28A3.78,3.78,0,0,1,174.45,144.94Z"/><path class="cls-11" d="M165.71,144.06h.49v16.72h-.5V144.06Z"/><path class="cls-12" d="M166.21,144.94v-.88l1.91-.49.21.62-.68.7Z"/><path class="cls-12" d="M165.71,144.06v.88c-.74-.06-1.57.11-2-.81-.06-.15,0-.37,0-.56Z"/><path class="cls-12" d="M174,144.06v.88c-.74-.06-1.57.11-2-.81-.06-.15,0-.37,0-.56Z"/><path class="cls-5" d="M170.19,155.17v2.54H170v-2.54Z"/><path class="cls-5" d="M167.64,144.89l.68-.7C168.4,144.74,168.18,145,167.64,144.89Z"/><path class="cls-11" d="M141,144.06h.49v16.72H141V144.06Z"/><path class="cls-11" d="M149.23,144.06h.49v.88q0,8,0,15.91c-.15-.34-.44-.67-.44-1,0-4.56,0-9.12,0-13.68,0-.41,0-.82,0-1.23Z"/><path class="cls-12" d="M141,144.06v.88c-.73-.06-1.56.11-1.95-.81a1.37,1.37,0,0,1,0-.56Z"/><path class="cls-12" d="M141.49,144.94v-.88l1.91-.49c.35.86-.27,1.09-.83,1.28A3.81,3.81,0,0,1,141.49,144.94Z"/><path class="cls-12" d="M149.23,144.06v.88c-.73-.06-1.56.11-1.95-.81-.06-.15,0-.37,0-.56Z"/><path class="cls-5" d="M137.18,154.94v2.12H137v-2.11Z"/><path class="cls-13" d="M145.76,157l.59-.67.27.24-.57.7Z"/><path class="cls-13" d="M144.68,156.32l.46.71-.23.19-.59-.68Z"/><path class="cls-13" d="M146.11,154.85l.54.61-.27.24-.53-.61Z"/><path class="cls-13" d="M145.08,155.22a5.46,5.46,0,0,1-.48.36s-.13-.13-.2-.21l.44-.42Z"/><path class="cls-11" d="M124.51,144.06H125v16.79c-.16-.34-.44-.67-.44-1,0-4.56,0-9.12,0-13.68,0-.41,0-.82,0-1.23Z"/><path class="cls-12" d="M125,144.94v-.88l1.9-.49c.36.86-.26,1.09-.82,1.28A3.88,3.88,0,0,1,125,144.94Z"/><path class="cls-11" d="M91.55,144.06H92v.88q0,8,0,15.91a3.22,3.22,0,0,1-.44-1c0-4.56,0-9.12,0-13.68,0-.41,0-.82,0-1.23Z"/><path class="cls-12" d="M92,144.94v-.88l1.91-.49c.35.86-.26,1.09-.83,1.28A3.78,3.78,0,0,1,92,144.94Z"/><path class="cls-11" d="M223.4,144.06h.49v.88c0,5,0,9.94,0,14.91,0,.33-.29.66-.44,1q0-8,0-15.91Z"/><path class="cls-12" d="M223.4,144.06v.88c-.73-.06-1.56.11-1.95-.81a1.37,1.37,0,0,1,0-.56Z"/><path class="cls-11" d="M198.68,144.06h.48v.88c0,5,0,9.94,0,14.91a3,3,0,0,1-.45,1V144.06Z"/><path class="cls-12" d="M198.68,144.06v.88c-.74-.06-1.57.11-1.95-.81-.07-.15,0-.37,0-.56Z"/><path class="cls-11" d="M239.88,144.06h.49v.88q0,8,0,15.91c-.15-.34-.44-.67-.44-1,0-4.56,0-9.12,0-13.68,0-.41,0-.82,0-1.23Z"/><path class="cls-12" d="M240.38,144.94v-.88l1.91-.49c.35.85-.26,1.1-.83,1.28A3.78,3.78,0,0,1,240.38,144.94Z"/><path class="cls-11" d="M108,144.06h.48v.88c0,5,0,9.94,0,14.91a3,3,0,0,1-.45,1V144.06Z"/><path class="cls-12" d="M108,144.06v.88c-.74-.06-1.57.11-2-.81-.07-.15,0-.37,0-.56Z"/><path class="cls-14" d="M103.74,155.72l0-.58h.09v.61Z"/><path class="cls-12" d="M149.73,144.94v-.88l1.91-.49c.35.85-.26,1.09-.83,1.28A3.78,3.78,0,0,1,149.73,144.94Z"/><path class="cls-13" d="M153.89,156.16l.31-1.21a3.17,3.17,0,0,1,.4.19c-.1.39-.23.76-.36,1.14Z"/><path class="cls-13" d="M153.54,155.25v1.8h-.26l.12-1.74Z"/><path class="cls-11" d="M83.31,144.06h.48v.88c0,5,0,9.94-.06,14.91,0,.33-.29.66-.44,1V144.06Z"/><path class="cls-12" d="M83.31,144.06v.88c-.74-.06-1.57.11-2-.81-.06-.15,0-.37,0-.56Z"/><path class="cls-13" d="M80.22,154.84l.72,1-.25.2-.78-1Z"/><path class="cls-13" d="M80.68,156.49l-.3.94L80,157.3l.3-.94Z"/><path class="cls-13" d="M78.62,156.32l.6.67-.22.25-.66-.59Z"/><path class="cls-13" d="M78.69,154.93a1.83,1.83,0,0,1,.27.42c0,.07-.12.24-.15.23s-.28-.1-.31-.19S78.59,155.16,78.69,154.93Z"/><path class="cls-11" d="M206.92,144.06h.48v16.79c-.16-.34-.44-.67-.44-1,0-4.56,0-9.12,0-13.68,0-.41,0-.82,0-1.23Z"/><path class="cls-14" d="M211.86,154.82a7.9,7.9,0,0,0,0,1.29c.19,1.13.13,1.22-1.08,1.07v-2.36Z"/><path class="cls-12" d="M207.41,144.94v-.88l1.91-.49c.29.83-.22,1.15-.85,1.32A4.57,4.57,0,0,1,207.41,144.94Z"/><path class="cls-12" d="M199.17,144.94v-.88l1.91-.49c.35.85-.26,1.09-.83,1.28A3.78,3.78,0,0,1,199.17,144.94Z"/><path class="cls-12" d="M206.92,144.06v.88a7.2,7.2,0,0,1-1.63-.4c-.2-.1-.19-.64-.28-1Z"/><path class="cls-12" d="M83.8,144.94v-.88l1.91-.49c.35.86-.26,1.09-.83,1.28A3.78,3.78,0,0,1,83.8,144.94Z"/><path class="cls-12" d="M91.55,144.06v.88c-.74-.06-1.57.11-2-.81-.06-.15,0-.37,0-.56Z"/><path class="cls-11" d="M116.27,144.06h.48v16.79c-.16-.34-.44-.67-.44-1,0-4.56,0-9.12,0-13.68,0-.41,0-.82,0-1.23Z"/><path class="cls-12" d="M108.52,144.94v-.88l1.91-.49c.35.86-.26,1.09-.83,1.28A3.78,3.78,0,0,1,108.52,144.94Z"/><path class="cls-12" d="M116.27,144.06v.88c-.73-.06-1.57.11-2-.81-.07-.15,0-.37,0-.56Z"/><path class="cls-11" d="M231.64,144.06h.49v.88q0,8,0,15.91c-.15-.34-.44-.67-.44-1,0-4.56,0-9.12,0-13.68,0-.41,0-.82,0-1.23Z"/><path class="cls-12" d="M223.89,144.94v-.88l1.91-.49c.35.86-.27,1.09-.83,1.28A3.85,3.85,0,0,1,223.89,144.94Z"/><path class="cls-12" d="M231.64,144.06v.88c-.73-.06-1.56.11-1.95-.81a1.37,1.37,0,0,1,0-.56Z"/><path class="cls-12" d="M232.14,144.94v-.88l1.91-.49c.35.85-.26,1.09-.83,1.28A3.81,3.81,0,0,1,232.14,144.94Z"/><path class="cls-12" d="M239.88,144.06v.88c-.73-.06-1.56.11-2-.81-.06-.15,0-.37,0-.56Z"/><path class="cls-11" d="M120.75,157.22l-.87-2.35.15-.12.71,1.09.7-1.07.14.08Z"/><path class="cls-12" d="M116.76,144.94v-.88l1.91-.49c.35.85-.26,1.09-.82,1.28A3.88,3.88,0,0,1,116.76,144.94Z"/><path class="cls-12" d="M124.51,144.06v.88c-.73-.06-1.57.11-2-.81-.07-.15,0-.37,0-.56Z"/><path class="cls-13" d="M199.5,138.18l-.72,0-.17,1.08h-.21v-2.41h1.19l-.75.62Z"/><path class="cls-15" d="M232.92,136.94,232,138l1,1.17-.15.18-1.06-.89-.17.8-.22,0v-2.4l.17,0,.21.79,1-.89Z"/><path class="cls-15" d="M149.94,137.42c-.34-.59-.59-.25-.65.14s0,1.07-.18,1.71c-.17-.45-.53-1-.46-1.36a1.91,1.91,0,0,1,.92-1c.13-.08.78.36.79.59a5.47,5.47,0,0,1-.3,1.51l-.15-.14Z"/><path class="cls-8" d="M149.94,137.42l0,1.42Z"/><path class="cls-15" d="M140.67,136.91c.42,0,1.1,0,1.19.15a2.38,2.38,0,0,1,.16,1.65c-.15.36-.81.51-1.24.75l-.14-.26.88-.39-1.06-1.5Z"/><path class="cls-15" d="M116.56,136.85c-.11.43-.15.59-.14.57a6.26,6.26,0,0,1,1.07,1c.07.12-.28.71-.53.8a1,1,0,0,1-.9-.31C115.66,138.31,115.73,137.64,116.56,136.85Z"/><path class="cls-15" d="M175.42,139.22c-.83-1.05-1.5-.6-2.29,0l1.05-2.46h.3Z"/><rect class="cls-2" x="115.17" y="135.41" width="2.85" height="5.28"/><rect class="cls-2" x="139.76" y="135.41" width="2.85" height="5.28"/><rect class="cls-2" x="147.85" y="135.41" width="2.85" height="5.28"/><rect class="cls-2" x="172.72" y="135.41" width="3.38" height="5.28"/><rect class="cls-2" x="197.18" y="135.41" width="3.38" height="5.28"/><rect class="cls-2" x="230.3" y="135.41" width="3.38" height="5.28"/><rect class="cls-6" x="209.37" y="153.32" width="3.38" height="5.28"/><rect class="cls-6" x="118.96" y="153.32" width="3.38" height="5.28"/><rect class="cls-6" x="102.19" y="153.32" width="3.38" height="5.28"/><path class="cls-16" d="M167.67,4.61A2.7,2.7,0,1,1,165,1.92,2.69,2.69,0,0,1,167.67,4.61Z"/><path class="cls-16" d="M159.54,4.61A1.64,1.64,0,1,1,157.91,3,1.63,1.63,0,0,1,159.54,4.61Z"/><path class="cls-16" d="M173.68,4.61A1.63,1.63,0,1,1,172.05,3,1.63,1.63,0,0,1,173.68,4.61Z"/><path class="cls-17" d="M102.24,230.37a10.65,10.65,0,0,1-1.45-.1,5,5,0,0,1-1.12-.3,1.86,1.86,0,0,1-.69-.43.54.54,0,0,1-.14-.53l7.25-25.66a.82.82,0,0,1,.37-.41,3.29,3.29,0,0,1,.81-.34,9.57,9.57,0,0,1,1.12-.23,11,11,0,0,1,1.32-.08l108.3,0h0a11,11,0,0,1,1.32.08,7.45,7.45,0,0,1,1.11.23,3.46,3.46,0,0,1,.81.34.81.81,0,0,1,.38.41L229,229a.54.54,0,0,1-.14.53,1.86,1.86,0,0,1-.69.43,5,5,0,0,1-1.12.3,9.1,9.1,0,0,1-1.45.11l-123.34,0ZM241.79,200a2.68,2.68,0,0,1-.4,0l-.35-.07a1.28,1.28,0,0,1-.26-.1c-.06,0-.11-.08-.12-.13l-.74-1.9a.12.12,0,0,1,0-.12.5.5,0,0,1,.17-.1,1.84,1.84,0,0,1,.29-.06,2.38,2.38,0,0,1,.39,0h13.73l.41,0,.35.07a1.28,1.28,0,0,1,.26.1.31.31,0,0,1,.13.12l.89,1.9a.12.12,0,0,1,0,.13.85.85,0,0,1-.17.1,1.67,1.67,0,0,1-.3.07l-.38,0Zm18.09,0-.41,0-.36-.07-.26-.1a.3.3,0,0,1-.14-.13l-.91-1.9a.11.11,0,0,1,0-.12.45.45,0,0,1,.17-.1,1.77,1.77,0,0,1,.29-.07l.38,0H272.4l.4,0,.36.07a1.69,1.69,0,0,1,.27.1.29.29,0,0,1,.14.12l1.06,1.9a.11.11,0,0,1,0,.12.38.38,0,0,1-.17.1,1,1,0,0,1-.28.07,2.17,2.17,0,0,1-.38,0Zm17.86,0a2.6,2.6,0,0,1-.4,0l-.37-.07a1.39,1.39,0,0,1-.27-.1.32.32,0,0,1-.15-.12l-1.08-1.9a.09.09,0,0,1,0-.12.34.34,0,0,1,.16-.1,1.42,1.42,0,0,1,.28-.07l.37,0H290a2.73,2.73,0,0,1,.41,0,1.91,1.91,0,0,1,.36.07,1.54,1.54,0,0,1,.28.09.43.43,0,0,1,.16.13l1.23,1.89a.12.12,0,0,1,0,.13.34.34,0,0,1-.16.1,1.26,1.26,0,0,1-.28.07l-.37,0ZM37,200a3.38,3.38,0,0,1-.47,0,1.45,1.45,0,0,1-.36-.09.35.35,0,0,1-.19-.12.12.12,0,0,1,0-.16l2.57-4a.55.55,0,0,1,.2-.15,1.3,1.3,0,0,1,.35-.12,2.6,2.6,0,0,1,.45-.08,4.07,4.07,0,0,1,.5,0h13a3.38,3.38,0,0,1,.47,0,2,2,0,0,1,.35.08.46.46,0,0,1,.2.13.12.12,0,0,1,0,.15l-2.27,4a.4.4,0,0,1-.18.15,1.42,1.42,0,0,1-.35.13,2.75,2.75,0,0,1-.45.09,4.41,4.41,0,0,1-.52,0Zm17.85,0a3.53,3.53,0,0,1-.48,0,1.36,1.36,0,0,1-.35-.09.42.42,0,0,1-.21-.13.14.14,0,0,1,0-.15l2.22-4a.35.35,0,0,1,.18-.15,1.51,1.51,0,0,1,.33-.13l.44-.08a4.07,4.07,0,0,1,.5,0h13a3.38,3.38,0,0,1,.47,0,2.45,2.45,0,0,1,.36.08.7.7,0,0,1,.2.12c0,.05.06.1,0,.15l-1.9,4a.37.37,0,0,1-.17.15,1.75,1.75,0,0,1-.33.13,4.12,4.12,0,0,1-.45.08,4.06,4.06,0,0,1-.51,0Zm17.8,0a3.6,3.6,0,0,1-.49,0,2.61,2.61,0,0,1-.37-.08.51.51,0,0,1-.21-.13.11.11,0,0,1,0-.15l1.86-4a.39.39,0,0,1,.16-.15l.33-.12.44-.08a3.84,3.84,0,0,1,.5,0h13a3.3,3.3,0,0,1,.47,0,1.2,1.2,0,0,1,.36.08.45.45,0,0,1,.22.12.13.13,0,0,1,0,.15l-1.54,4a.31.31,0,0,1-.16.16,1.41,1.41,0,0,1-.32.13l-.43.08a4.24,4.24,0,0,1-.51,0Zm17.77,0a3.43,3.43,0,0,1-.48,0,2.49,2.49,0,0,1-.38-.08.55.55,0,0,1-.22-.13.14.14,0,0,1,0-.16l1.5-4a.35.35,0,0,1,.15-.15,1.11,1.11,0,0,1,.31-.12,1.83,1.83,0,0,1,.43-.08,3.74,3.74,0,0,1,.49,0h17a3.64,3.64,0,0,1,.48,0,2.61,2.61,0,0,1,.37.08.7.7,0,0,1,.23.13.14.14,0,0,1,.06.14l-1.1,4a.25.25,0,0,1-.14.15,1.31,1.31,0,0,1-.31.13,2.38,2.38,0,0,1-.42.09,4.12,4.12,0,0,1-.51,0Zm21.77,0a3.68,3.68,0,0,1-.49,0,1.93,1.93,0,0,1-.38-.09.66.66,0,0,1-.24-.13.16.16,0,0,1-.06-.15l1.06-4a.27.27,0,0,1,.14-.14,1.22,1.22,0,0,1,.3-.13l.41-.08a4,4,0,0,1,.5,0h83.68a3.79,3.79,0,0,1,.49,0,2.29,2.29,0,0,1,.41.08.87.87,0,0,1,.29.12.26.26,0,0,1,.13.15l.72,4a.18.18,0,0,1-.07.16.91.91,0,0,1-.26.12,1.87,1.87,0,0,1-.39.09,3.79,3.79,0,0,1-.49,0l-85.75,0Zm90.23,0a3.84,3.84,0,0,1-.5,0,2.2,2.2,0,0,1-.42-.09,1.24,1.24,0,0,1-.3-.12.27.27,0,0,1-.13-.16l-.76-4a.15.15,0,0,1,.07-.15.6.6,0,0,1,.24-.12,2,2,0,0,1,.38-.08,3.64,3.64,0,0,1,.48,0h17a3.91,3.91,0,0,1,.49,0l.42.08a1.42,1.42,0,0,1,.3.13.29.29,0,0,1,.14.15l1.16,4a.14.14,0,0,1,0,.15.66.66,0,0,1-.24.13,1.63,1.63,0,0,1-.38.09,3.68,3.68,0,0,1-.49,0Zm22.17,0a4.12,4.12,0,0,1-.51,0,2.63,2.63,0,0,1-.44-.09,1.52,1.52,0,0,1-.31-.13.35.35,0,0,1-.15-.15l-1.2-4a.17.17,0,0,1,0-.15.7.7,0,0,1,.23-.13,2.78,2.78,0,0,1,.38-.08,3.38,3.38,0,0,1,.47,0h13.07a4.07,4.07,0,0,1,.5,0l.42.08.32.12a.35.35,0,0,1,.15.15l1.53,4a.16.16,0,0,1,0,.16.61.61,0,0,1-.23.13,2.33,2.33,0,0,1-.37.08,3.53,3.53,0,0,1-.48,0Zm34.09-2.54a2.73,2.73,0,0,1-.41,0,2,2,0,0,1-.35-.06,1.28,1.28,0,0,1-.26-.1.31.31,0,0,1-.13-.12l-.89-1.85a.1.1,0,0,1,0-.12.38.38,0,0,1,.17-.1,1,1,0,0,1,.28-.06,2.13,2.13,0,0,1,.37,0H271l.4,0,.35.07.27.09a.35.35,0,0,1,.14.12l1,1.86a.09.09,0,0,1,0,.12.44.44,0,0,1-.16.1,1.49,1.49,0,0,1-.28.06,2.13,2.13,0,0,1-.37,0ZM40.37,194.65a3.38,3.38,0,0,1-.47,0,2.14,2.14,0,0,1-.34-.08.46.46,0,0,1-.18-.12.12.12,0,0,1,0-.15l2.44-3.82a.49.49,0,0,1,.19-.14,1.27,1.27,0,0,1,.33-.12l.44-.08.49,0H76.59a3.23,3.23,0,0,1,.46,0,1.44,1.44,0,0,1,.35.07,1,1,0,0,1,.21.12.12.12,0,0,1,0,.14l-1.72,3.82a.52.52,0,0,1-.17.15,1.07,1.07,0,0,1-.32.12,2.54,2.54,0,0,1-.43.08,4.07,4.07,0,0,1-.5,0Zm39.18,0a3.23,3.23,0,0,1-.46,0,2.45,2.45,0,0,1-.36-.08,1,1,0,0,1-.21-.12.14.14,0,0,1,0-.15l1.68-3.82a.29.29,0,0,1,.15-.14,1.55,1.55,0,0,1,.31-.12,2.63,2.63,0,0,1,.42-.07,3.91,3.91,0,0,1,.49,0H94.27a3.33,3.33,0,0,1,.46,0,2.45,2.45,0,0,1,.36.08.57.57,0,0,1,.22.12.16.16,0,0,1,0,.14L94,194.26a.35.35,0,0,1-.15.15,2,2,0,0,1-.31.12l-.42.08a4,4,0,0,1-.5,0h-13Zm17.41,0a3.38,3.38,0,0,1-.47,0,2.45,2.45,0,0,1-.36-.08,1,1,0,0,1-.23-.12.15.15,0,0,1,0-.15l1.33-3.82a.31.31,0,0,1,.14-.14,1,1,0,0,1,.3-.12l.41-.08a3.75,3.75,0,0,1,.48,0h12.74a3.38,3.38,0,0,1,.47,0,2.45,2.45,0,0,1,.36.08.7.7,0,0,1,.23.11.15.15,0,0,1,.06.14l-1,3.83a.24.24,0,0,1-.14.14.87.87,0,0,1-.29.12,2.59,2.59,0,0,1-.42.09l-.49,0Zm17.41,0-.48,0a1.67,1.67,0,0,1-.37-.09.54.54,0,0,1-.24-.12.14.14,0,0,1-.06-.14l1-3.83c0-.05,0-.09.12-.14a1.36,1.36,0,0,1,.29-.11l.41-.08a3.64,3.64,0,0,1,.48,0h12.73a3.48,3.48,0,0,1,.47,0,1.85,1.85,0,0,1,.37.08.7.7,0,0,1,.23.11.13.13,0,0,1,.07.14l-.68,3.82a.22.22,0,0,1-.12.15.87.87,0,0,1-.29.12,2.29,2.29,0,0,1-.41.08,3.68,3.68,0,0,1-.49,0Zm17.39,0a3.64,3.64,0,0,1-.48,0,2,2,0,0,1-.38-.08.67.67,0,0,1-.24-.12.16.16,0,0,1-.07-.15l.64-3.82a.26.26,0,0,1,.12-.14l.28-.12a2.21,2.21,0,0,1,.4-.07,3.64,3.64,0,0,1,.48,0h12.73a3.59,3.59,0,0,1,.47,0l.38.08a.73.73,0,0,1,.25.12.14.14,0,0,1,.08.14l-.34,3.82c0,.05,0,.1-.11.15a1.55,1.55,0,0,1-.28.12,3.13,3.13,0,0,1-.4.08,3.64,3.64,0,0,1-.48,0Zm17.41,0a3.68,3.68,0,0,1-.49,0l-.39-.08a1.17,1.17,0,0,1-.25-.12.2.2,0,0,1-.09-.15l.31-3.82c0-.05,0-.1.11-.14a.7.7,0,0,1,.26-.12l.4-.08a3.38,3.38,0,0,1,.47,0h12.73a3.38,3.38,0,0,1,.47,0,3,3,0,0,1,.39.08,1.07,1.07,0,0,1,.26.11c.06.05.09.09.09.14v3.83a.17.17,0,0,1-.1.14.7.7,0,0,1-.26.12,2,2,0,0,1-.4.09,3.53,3.53,0,0,1-.48,0Zm17.39,0a3.64,3.64,0,0,1-.48,0,2,2,0,0,1-.4-.09.7.7,0,0,1-.26-.12.17.17,0,0,1-.1-.14l0-3.83s0-.09.09-.14a.92.92,0,0,1,.26-.11,1.91,1.91,0,0,1,.39-.08,3.38,3.38,0,0,1,.47,0h12.73a3.59,3.59,0,0,1,.47,0l.4.07.27.12a.24.24,0,0,1,.11.14l.34,3.82a.19.19,0,0,1-.09.15.58.58,0,0,1-.25.12,1.91,1.91,0,0,1-.39.08,3.68,3.68,0,0,1-.49,0Zm17.4,0a3.91,3.91,0,0,1-.49,0l-.4-.08a.81.81,0,0,1-.28-.12c-.07,0-.11-.09-.11-.15l-.38-3.82a.14.14,0,0,1,.08-.14,1.17,1.17,0,0,1,.25-.12l.38-.07a3.38,3.38,0,0,1,.47,0h12.73l.48,0,.39.08a.81.81,0,0,1,.28.12.22.22,0,0,1,.12.14l.69,3.82a.18.18,0,0,1-.07.15,1.17,1.17,0,0,1-.25.12,2.49,2.49,0,0,1-.38.08,3.38,3.38,0,0,1-.47,0Zm17.39,0a3.64,3.64,0,0,1-.48,0,3.32,3.32,0,0,1-.41-.08,1.7,1.7,0,0,1-.29-.12.29.29,0,0,1-.13-.15l-.72-3.82a.15.15,0,0,1,.07-.14.67.67,0,0,1,.24-.12,2.61,2.61,0,0,1,.37-.08l.47,0h12.72a3.64,3.64,0,0,1,.48,0l.41.08a1.18,1.18,0,0,1,.29.11.32.32,0,0,1,.14.15l1,3.82a.12.12,0,0,1-.05.14.89.89,0,0,1-.24.13,2.49,2.49,0,0,1-.38.08,3.38,3.38,0,0,1-.47,0Zm17.41,0a4,4,0,0,1-.5,0l-.42-.08a1.42,1.42,0,0,1-.3-.13.31.31,0,0,1-.14-.14l-1.06-3.82a.17.17,0,0,1,.06-.15.7.7,0,0,1,.23-.11,2.45,2.45,0,0,1,.36-.08,3.38,3.38,0,0,1,.47,0H230.2a3.64,3.64,0,0,1,.48,0,2,2,0,0,1,.4.08,1.27,1.27,0,0,1,.3.11c.08,0,.13.09.14.14l1.37,3.82a.14.14,0,0,1,0,.15.51.51,0,0,1-.22.12,1.7,1.7,0,0,1-.37.08,3.38,3.38,0,0,1-.47,0Zm17.39,0a4.07,4.07,0,0,1-.5,0,2.41,2.41,0,0,1-.42-.08,1,1,0,0,1-.31-.12.27.27,0,0,1-.15-.15l-1.41-3.82a.14.14,0,0,1,0-.14.58.58,0,0,1,.21-.11,1.6,1.6,0,0,1,.36-.08,3.23,3.23,0,0,1,.46,0h12.73l.48,0,.43.08.31.12a.32.32,0,0,1,.16.14l1.71,3.82a.13.13,0,0,1,0,.15.64.64,0,0,1-.21.12,2.45,2.45,0,0,1-.36.08,3.38,3.38,0,0,1-.47,0Zm17.4,0a4.07,4.07,0,0,1-.5,0l-.44-.08-.32-.12a.39.39,0,0,1-.16-.15l-1.75-3.82a.12.12,0,0,1,0-.14.47.47,0,0,1,.21-.12l.35-.08.46,0H285a3.91,3.91,0,0,1,.49,0,2.66,2.66,0,0,1,.44.08,1.94,1.94,0,0,1,.34.11.47.47,0,0,1,.18.14l2.47,3.82q.06.09,0,.15a.35.35,0,0,1-.19.12,1.42,1.42,0,0,1-.34.08,3.38,3.38,0,0,1-.47,0Zm-210-5a3.23,3.23,0,0,1-.46,0,2,2,0,0,1-.33-.08.37.37,0,0,1-.18-.11.11.11,0,0,1,0-.14l2.32-3.63a.47.47,0,0,1,.18-.14,2.33,2.33,0,0,1,.32-.11l.42-.07a3.75,3.75,0,0,1,.48,0H70.57a3.09,3.09,0,0,1,.45,0,1.57,1.57,0,0,1,.34.07.48.48,0,0,1,.19.11.11.11,0,0,1,0,.13l-1.8,3.63a.32.32,0,0,1-.16.14l-.32.12-.42.07a3.75,3.75,0,0,1-.48,0Zm28.78,0a3.09,3.09,0,0,1-.45,0,2.15,2.15,0,0,1-.35-.07.64.64,0,0,1-.21-.12.12.12,0,0,1,0-.14l1.77-3.63a.37.37,0,0,1,.16-.13,1.58,1.58,0,0,1,.31-.11,2.33,2.33,0,0,1,.41-.07,3.75,3.75,0,0,1,.48,0h12.4l.45,0a2.29,2.29,0,0,1,.35.08.53.53,0,0,1,.2.11.1.1,0,0,1,0,.13l-1.48,3.63a.29.29,0,0,1-.15.14,1.46,1.46,0,0,1-.3.11,2.41,2.41,0,0,1-.42.08,3.64,3.64,0,0,1-.48,0Zm16.95,0a3.13,3.13,0,0,1-.46,0,2.45,2.45,0,0,1-.36-.08.68.68,0,0,1-.21-.11c0-.05-.06-.09,0-.14l1.44-3.63a.28.28,0,0,1,.15-.13,1.46,1.46,0,0,1,.3-.11l.4-.08.47,0h12.41a3.19,3.19,0,0,1,.45,0,2.15,2.15,0,0,1,.35.07.74.74,0,0,1,.22.11s.07.09,0,.14l-1.15,3.62a.24.24,0,0,1-.14.14.94.94,0,0,1-.3.12l-.41.08a3.64,3.64,0,0,1-.48,0Zm17,0a3.38,3.38,0,0,1-.47,0,2.45,2.45,0,0,1-.36-.08.55.55,0,0,1-.23-.12.16.16,0,0,1,0-.14l1.12-3.62a.24.24,0,0,1,.14-.14,1.26,1.26,0,0,1,.28-.11l.41-.07a3.33,3.33,0,0,1,.46,0H120a3.09,3.09,0,0,1,.45,0,1.64,1.64,0,0,1,.36.07.7.7,0,0,1,.23.11.13.13,0,0,1,.06.13l-.83,3.63a.25.25,0,0,1-.13.14,1.55,1.55,0,0,1-.28.12,2.21,2.21,0,0,1-.4.07,3.64,3.64,0,0,1-.48,0Zm16.94,0a3.38,3.38,0,0,1-.47,0,2.56,2.56,0,0,1-.36-.07.88.88,0,0,1-.24-.12.14.14,0,0,1-.06-.14l.79-3.63a.29.29,0,0,1,.12-.13,1.26,1.26,0,0,1,.28-.11,2.09,2.09,0,0,1,.39-.07,3.48,3.48,0,0,1,.47,0h12.4l.46,0a3,3,0,0,1,.37.08.9.9,0,0,1,.24.11c.05,0,.08.08.07.13l-.5,3.63a.22.22,0,0,1-.12.14,1.09,1.09,0,0,1-.28.11,1.91,1.91,0,0,1-.39.08,3.64,3.64,0,0,1-.48,0Zm17,0a3.38,3.38,0,0,1-.47,0,1.8,1.8,0,0,1-.38-.08.84.84,0,0,1-.25-.11.15.15,0,0,1-.07-.14l.47-3.63c0-.05,0-.09.11-.13a1,1,0,0,1,.27-.11l.38-.08.47,0h12.4l.46,0a1.7,1.7,0,0,1,.37.08.65.65,0,0,1,.25.11c.06,0,.09.08.08.13l-.18,3.63c0,.05,0,.09-.1.14a.92.92,0,0,1-.26.11,3,3,0,0,1-.39.08,3.38,3.38,0,0,1-.47,0Zm16.94,0a3.38,3.38,0,0,1-.47,0,2.49,2.49,0,0,1-.38-.08.92.92,0,0,1-.26-.11c-.06-.05-.09-.09-.09-.14l.15-3.63c0-.05,0-.09.1-.14a1.22,1.22,0,0,1,.25-.11l.38-.07a3.33,3.33,0,0,1,.46,0h12.4a3.48,3.48,0,0,1,.47,0l.38.07a1.07,1.07,0,0,1,.26.11.17.17,0,0,1,.09.14l.15,3.62a.17.17,0,0,1-.09.14.7.7,0,0,1-.26.12,2,2,0,0,1-.38.07,3.48,3.48,0,0,1-.47,0Zm16.94,0a3.59,3.59,0,0,1-.47,0,2,2,0,0,1-.39-.07l-.27-.12a.19.19,0,0,1-.1-.14l-.18-3.62a.17.17,0,0,1,.09-.14.84.84,0,0,1,.25-.11,2.73,2.73,0,0,1,.37-.07,3.33,3.33,0,0,1,.46,0h12.4a3.48,3.48,0,0,1,.47,0,2,2,0,0,1,.38.07,1.16,1.16,0,0,1,.27.11.26.26,0,0,1,.11.13l.47,3.63a.16.16,0,0,1-.08.14.9.9,0,0,1-.24.11,2,2,0,0,1-.38.08,3.33,3.33,0,0,1-.46,0Zm16.94,0a3.38,3.38,0,0,1-.47,0,2.18,2.18,0,0,1-.4-.08,1.16,1.16,0,0,1-.27-.11.22.22,0,0,1-.12-.14l-.5-3.63a.14.14,0,0,1,.07-.13.9.9,0,0,1,.24-.11,1.74,1.74,0,0,1,.37-.07,3.09,3.09,0,0,1,.45,0h12.4l.47,0a1.91,1.91,0,0,1,.39.08.82.82,0,0,1,.28.11c.07,0,.12.08.13.13l.79,3.63a.15.15,0,0,1-.06.14.9.9,0,0,1-.24.11,2.61,2.61,0,0,1-.37.08,3.38,3.38,0,0,1-.47,0Zm17,0-.48,0-.41-.08a1.26,1.26,0,0,1-.28-.11c-.07,0-.12-.09-.13-.14l-.83-3.63a.13.13,0,0,1,.06-.13.6.6,0,0,1,.24-.11,1.6,1.6,0,0,1,.36-.08l.45,0h12.4a3.48,3.48,0,0,1,.47,0l.4.07a1.26,1.26,0,0,1,.28.11.27.27,0,0,1,.14.14l1.12,3.62a.14.14,0,0,1-.06.14.45.45,0,0,1-.22.12,2.45,2.45,0,0,1-.36.08l-.46,0Zm16.93,0a3.59,3.59,0,0,1-.47,0,2.18,2.18,0,0,1-.41-.07,1.44,1.44,0,0,1-.3-.12.31.31,0,0,1-.14-.14l-1.15-3.62a.13.13,0,0,1,.05-.14.64.64,0,0,1,.22-.11l.35-.07a3.19,3.19,0,0,1,.45,0h12.4a3.38,3.38,0,0,1,.47,0,2.33,2.33,0,0,1,.41.07,1.46,1.46,0,0,1,.3.11.33.33,0,0,1,.15.13l1.44,3.63a.13.13,0,0,1,0,.14.64.64,0,0,1-.22.11,1.4,1.4,0,0,1-.35.08,3.33,3.33,0,0,1-.46,0Zm16.95,0a3.64,3.64,0,0,1-.48,0,2.24,2.24,0,0,1-.42-.08,1.58,1.58,0,0,1-.31-.11.29.29,0,0,1-.15-.14L239,185.54a.12.12,0,0,1,0-.13.58.58,0,0,1,.21-.11,1.54,1.54,0,0,1,.35-.07,3.09,3.09,0,0,1,.45,0h12.42a3.33,3.33,0,0,1,.46,0,2.33,2.33,0,0,1,.41.07,1.46,1.46,0,0,1,.3.11.36.36,0,0,1,.16.13l1.76,3.63a.11.11,0,0,1,0,.14.51.51,0,0,1-.21.11,2.14,2.14,0,0,1-.34.08,3.23,3.23,0,0,1-.46,0Zm17.25,0a3.91,3.91,0,0,1-.49,0l-.42-.08a1.48,1.48,0,0,1-.32-.11.51.51,0,0,1-.17-.14l-1.8-3.63a.09.09,0,0,1,0-.13.51.51,0,0,1,.21-.11,1.9,1.9,0,0,1,.34-.08l.44,0h25.07a3.87,3.87,0,0,1,.48,0l.42.07a1.82,1.82,0,0,1,.33.11.45.45,0,0,1,.18.14l2.33,3.62a.1.1,0,0,1,0,.14.37.37,0,0,1-.18.12,1.35,1.35,0,0,1-.34.07,3,3,0,0,1-.45,0ZM46.59,184.74l-.44,0a2,2,0,0,1-.33-.08.43.43,0,0,1-.18-.11.1.1,0,0,1,0-.13L47.84,181a.5.5,0,0,1,.17-.12,1.58,1.58,0,0,1,.31-.11l.41-.07a3.59,3.59,0,0,1,.47,0H69a2.81,2.81,0,0,1,.43,0,1.36,1.36,0,0,1,.33.07.41.41,0,0,1,.19.1.11.11,0,0,1,0,.13L68.2,184.4a.45.45,0,0,1-.16.13,1.85,1.85,0,0,1-.31.11l-.41.07a3.64,3.64,0,0,1-.48,0Zm24.7,0a3,3,0,0,1-.45,0,2.24,2.24,0,0,1-.34-.07.53.53,0,0,1-.2-.11.11.11,0,0,1,0-.13L72,181a.36.36,0,0,1,.16-.13,1.5,1.5,0,0,1,.3-.1,2.21,2.21,0,0,1,.4-.07,3.44,3.44,0,0,1,.46,0h12.1l.44,0a2.09,2.09,0,0,1,.33.07.51.51,0,0,1,.21.11.13.13,0,0,1,0,.13L85,184.39a.29.29,0,0,1-.15.14,1.5,1.5,0,0,1-.3.1,2.18,2.18,0,0,1-.4.08,3.62,3.62,0,0,1-.47,0Zm16.51,0a3.1,3.1,0,0,1-.45,0,1.9,1.9,0,0,1-.34-.08.41.41,0,0,1-.21-.11.11.11,0,0,1,0-.13L88.2,181s.06-.09.14-.13a1.18,1.18,0,0,1,.29-.11l.39-.07.46,0h12.11a2.94,2.94,0,0,1,.44,0l.34.07a.68.68,0,0,1,.21.11.13.13,0,0,1,0,.12l-1.16,3.45a.3.3,0,0,1-.14.13,1.18,1.18,0,0,1-.29.11l-.4.08-.46,0Zm16.51,0-.45,0-.35-.08a.58.58,0,0,1-.21-.11.13.13,0,0,1-.06-.13l1.14-3.45a.27.27,0,0,1,.13-.13,1.73,1.73,0,0,1,.28-.1,3.08,3.08,0,0,1,.39-.07,3.19,3.19,0,0,1,.45,0h12.1a2.94,2.94,0,0,1,.44,0,1.44,1.44,0,0,1,.35.07.71.71,0,0,1,.23.1.13.13,0,0,1,.06.13l-.86,3.45a.27.27,0,0,1-.13.13,1.09,1.09,0,0,1-.28.11,2,2,0,0,1-.39.07,3.33,3.33,0,0,1-.46,0Zm16.51,0a3.19,3.19,0,0,1-.45,0,2.56,2.56,0,0,1-.36-.07.75.75,0,0,1-.22-.11.13.13,0,0,1-.06-.13l.82-3.45c0-.05,0-.09.12-.13a1,1,0,0,1,.27-.1,2,2,0,0,1,.38-.07,3.29,3.29,0,0,1,.45,0h12.11a2.94,2.94,0,0,1,.44,0,1.64,1.64,0,0,1,.36.07.83.83,0,0,1,.23.1.16.16,0,0,1,.07.13l-.55,3.44c0,.05,0,.1-.11.14a1.86,1.86,0,0,1-.27.11l-.38.07a3.54,3.54,0,0,1-.47,0Zm16.52,0a3.39,3.39,0,0,1-.46,0,2.88,2.88,0,0,1-.36-.07,1.1,1.1,0,0,1-.24-.11.15.15,0,0,1-.07-.14l.51-3.44a.22.22,0,0,1,.11-.13,1.18,1.18,0,0,1,.27-.1,1.74,1.74,0,0,1,.37-.07,3.19,3.19,0,0,1,.45,0H150l.45,0a2.88,2.88,0,0,1,.36.07.9.9,0,0,1,.24.11c.06,0,.09.08.08.13l-.24,3.44c0,.05,0,.09-.1.13a.7.7,0,0,1-.26.11l-.38.08-.46,0Zm16.51,0-.46,0a3,3,0,0,1-.37-.08.6.6,0,0,1-.24-.11c-.06,0-.09-.08-.09-.13l.2-3.44a.2.2,0,0,1,.1-.13,1,1,0,0,1,.25-.11l.37-.07a3.24,3.24,0,0,1,.45,0h12.12a3,3,0,0,1,.44,0l.37.07a.9.9,0,0,1,.24.11.15.15,0,0,1,.09.12l.08,3.45c0,.05,0,.09-.09.13a1,1,0,0,1-.25.11,1.87,1.87,0,0,1-.37.07,3.33,3.33,0,0,1-.46,0Zm16.51,0a3.44,3.44,0,0,1-.46,0,1.74,1.74,0,0,1-.37-.07.92.92,0,0,1-.26-.11c-.06,0-.1-.08-.1-.13l-.1-3.45a.17.17,0,0,1,.09-.13,1.15,1.15,0,0,1,.24-.1,2.88,2.88,0,0,1,.36-.07,3.19,3.19,0,0,1,.45,0h12.1a3.29,3.29,0,0,1,.45,0,1.87,1.87,0,0,1,.37.07,1.09,1.09,0,0,1,.26.1.19.19,0,0,1,.1.13l.38,3.44a.15.15,0,0,1-.07.14.9.9,0,0,1-.24.11l-.37.07a3.23,3.23,0,0,1-.46,0Zm16.51,0a3.33,3.33,0,0,1-.46,0l-.38-.07a1.16,1.16,0,0,1-.27-.11.19.19,0,0,1-.1-.14l-.42-3.44c0-.05,0-.09.07-.13a.91.91,0,0,1,.24-.1,1.64,1.64,0,0,1,.36-.07,2.94,2.94,0,0,1,.44,0h12.1l.45,0,.38.07a1.16,1.16,0,0,1,.27.11c.07,0,.11.08.12.13l.69,3.44s0,.09-.07.13a.55.55,0,0,1-.23.11,1.6,1.6,0,0,1-.36.08,3.09,3.09,0,0,1-.45,0Zm16.52,0-.47,0-.39-.08a.91.91,0,0,1-.28-.11c-.07,0-.11-.08-.12-.13l-.71-3.44c0-.05,0-.09.06-.13a.64.64,0,0,1,.22-.11l.35-.07.45,0h12.09l.46,0,.38.07a1.26,1.26,0,0,1,.28.11.2.2,0,0,1,.12.12l1,3.45s0,.09-.05.13a.64.64,0,0,1-.22.11l-.35.08-.45,0Zm16.5,0a3.33,3.33,0,0,1-.46,0,2.21,2.21,0,0,1-.4-.07,1.26,1.26,0,0,1-.28-.11c-.07,0-.12-.08-.13-.13l-1-3.45a.11.11,0,0,1,.06-.12.58.58,0,0,1,.21-.11l.34-.07.45,0h12.1a3.29,3.29,0,0,1,.45,0,3.45,3.45,0,0,1,.39.07,1.21,1.21,0,0,1,.29.1.36.36,0,0,1,.14.13l1.31,3.45a.12.12,0,0,1,0,.13.64.64,0,0,1-.22.11,2.24,2.24,0,0,1-.34.07,3.23,3.23,0,0,1-.46,0Zm16.52,0a3.48,3.48,0,0,1-.47,0l-.41-.07a1.18,1.18,0,0,1-.29-.11.33.33,0,0,1-.15-.13l-1.34-3.45a.12.12,0,0,1,0-.13.69.69,0,0,1,.21-.1,1.45,1.45,0,0,1,.34-.07,2.94,2.94,0,0,1,.44,0h12.11a3.19,3.19,0,0,1,.45,0,2.21,2.21,0,0,1,.4.07,1.63,1.63,0,0,1,.29.1.33.33,0,0,1,.15.13l1.61,3.44a.12.12,0,0,1,0,.14.71.71,0,0,1-.2.11,2.24,2.24,0,0,1-.34.07,2.94,2.94,0,0,1-.44,0Zm16.5,0a3.59,3.59,0,0,1-.47,0l-.41-.07a2.45,2.45,0,0,1-.3-.11.38.38,0,0,1-.16-.14l-1.64-3.44a.11.11,0,0,1,0-.13.53.53,0,0,1,.2-.1,1.36,1.36,0,0,1,.33-.07,2.94,2.94,0,0,1,.44,0H263l.46,0,.41.07a1.58,1.58,0,0,1,.31.11.31.31,0,0,1,.16.13l1.92,3.44a.1.1,0,0,1,0,.13.53.53,0,0,1-.2.11,2,2,0,0,1-.33.08l-.45,0Zm16.35,0-.48,0-.42-.08a1.58,1.58,0,0,1-.31-.11c-.09,0-.15-.08-.17-.13l-1.95-3.44a.1.1,0,0,1,0-.13.56.56,0,0,1,.19-.11,2.09,2.09,0,0,1,.33-.07l.44,0H279a3.33,3.33,0,0,1,.46,0l.41.07a1.74,1.74,0,0,1,.32.1.5.5,0,0,1,.17.13l2.23,3.45a.09.09,0,0,1,0,.13.37.37,0,0,1-.18.11,1.27,1.27,0,0,1-.32.07,3,3,0,0,1-.45,0ZM49.49,180.16a2.81,2.81,0,0,1-.43,0,2,2,0,0,1-.32-.06.5.5,0,0,1-.18-.11.09.09,0,0,1,0-.12l2.1-3.28a.4.4,0,0,1,.17-.13l.3-.1c.12,0,.26-.05.4-.06a3.29,3.29,0,0,1,.45,0H63.78l.42,0a1.73,1.73,0,0,1,.32.07.48.48,0,0,1,.19.1.09.09,0,0,1,0,.12l-1.83,3.28a.36.36,0,0,1-.16.13,1.89,1.89,0,0,1-.31.1,2.33,2.33,0,0,1-.41.07,3.44,3.44,0,0,1-.46,0Zm16.11,0a2.81,2.81,0,0,1-.43,0,1.36,1.36,0,0,1-.33-.07.48.48,0,0,1-.19-.1.09.09,0,0,1,0-.13l1.8-3.28a.37.37,0,0,1,.16-.12,1.39,1.39,0,0,1,.29-.1l.4-.07.45,0h11.8l.43,0a2.09,2.09,0,0,1,.33.07.56.56,0,0,1,.19.1.1.1,0,0,1,0,.12L79,179.83a.33.33,0,0,1-.15.13l-.3.1a3.81,3.81,0,0,1-.85.1Zm16.09,0-.43,0a2.09,2.09,0,0,1-.33-.07.48.48,0,0,1-.19-.11.1.1,0,0,1,0-.12l1.51-3.28a.35.35,0,0,1,.14-.12,1.21,1.21,0,0,1,.29-.1l.38-.07.45,0h11.8a2.82,2.82,0,0,1,.43,0,2.24,2.24,0,0,1,.34.07.42.42,0,0,1,.2.1.1.1,0,0,1,0,.12l-1.25,3.28a.35.35,0,0,1-.14.12,1.18,1.18,0,0,1-.29.11l-.39.07-.46,0H81.69Zm16.12,0-.44,0-.34-.07a.68.68,0,0,1-.21-.11s-.06-.08,0-.12L98,176.55a.24.24,0,0,1,.14-.12.91.91,0,0,1,.28-.1l.38-.07a3.24,3.24,0,0,1,.45,0H111a2.81,2.81,0,0,1,.43,0,2.35,2.35,0,0,1,.34.06,1,1,0,0,1,.21.1s.07.08,0,.12l-.95,3.28c0,.05-.06.09-.13.13a1.18,1.18,0,0,1-.27.1,2.26,2.26,0,0,1-.39.07,3.19,3.19,0,0,1-.45,0Zm16.1,0a2.94,2.94,0,0,1-.44,0,1.45,1.45,0,0,1-.34-.07.65.65,0,0,1-.22-.1s-.07-.08,0-.13l.92-3.28s0-.08.12-.12a2,2,0,0,1,.27-.1,3.38,3.38,0,0,1,.38-.06,2.94,2.94,0,0,1,.44,0h11.8a3,3,0,0,1,.44,0,1.59,1.59,0,0,1,.34.06.65.65,0,0,1,.22.1s.08.08.07.12l-.66,3.28c0,.05,0,.09-.12.13a1.18,1.18,0,0,1-.27.1l-.38.07a3.29,3.29,0,0,1-.45,0Zm16.11,0a2.94,2.94,0,0,1-.44,0,2.56,2.56,0,0,1-.36-.07.71.71,0,0,1-.23-.1.13.13,0,0,1-.06-.13l.63-3.28s0-.08.11-.12a.94.94,0,0,1,.26-.1l.37-.07.45,0h11.8l.43,0,.35.07a.71.71,0,0,1,.23.1c.05,0,.08.08.07.12l-.36,3.28a.26.26,0,0,1-.11.13,1.61,1.61,0,0,1-.25.1l-.38.07-.45,0Zm16.1,0-.45,0-.35-.07a.9.9,0,0,1-.24-.11c-.05,0-.08-.08-.07-.12l.33-3.28a.21.21,0,0,1,.1-.12,1,1,0,0,1,.25-.1l.37-.07.44,0h11.8a2.9,2.9,0,0,1,.43,0,1.64,1.64,0,0,1,.36.07.6.6,0,0,1,.24.1.14.14,0,0,1,.09.12l-.08,3.27c0,.05,0,.09-.09.13a.84.84,0,0,1-.25.11l-.37.07-.45,0Zm16.09,0a2.94,2.94,0,0,1-.44,0,1.87,1.87,0,0,1-.37-.07.91.91,0,0,1-.24-.1c-.06,0-.09-.08-.09-.13l.05-3.27s0-.09.09-.13a.93.93,0,0,1,.24-.09,1.91,1.91,0,0,1,.36-.07,3.15,3.15,0,0,1,.44,0h11.8a2.94,2.94,0,0,1,.44,0,1.68,1.68,0,0,1,.36.06.86.86,0,0,1,.25.1q.09.06.09.12l.22,3.28c0,.05,0,.09-.08.13a.79.79,0,0,1-.24.1,1.64,1.64,0,0,1-.36.07,2.94,2.94,0,0,1-.44,0H162.21Zm16.11,0a3.19,3.19,0,0,1-.45,0,1.87,1.87,0,0,1-.37-.07,1,1,0,0,1-.25-.1c-.06,0-.1-.08-.1-.13l-.25-3.28a.17.17,0,0,1,.08-.12.71.71,0,0,1,.23-.1,1.7,1.7,0,0,1,.35-.06,3,3,0,0,1,.44,0h11.8l.44,0,.37.07a.94.94,0,0,1,.26.1.24.24,0,0,1,.11.12l.51,3.28c0,.05,0,.09-.07.13a.71.71,0,0,1-.23.1,2.88,2.88,0,0,1-.36.07,3.24,3.24,0,0,1-.45,0Zm16.11,0a3.46,3.46,0,0,1-.46,0l-.37-.07a1.18,1.18,0,0,1-.27-.1.22.22,0,0,1-.11-.13l-.54-3.28s0-.08.06-.12a.83.83,0,0,1,.23-.1l.35-.07.43,0h11.8l.45,0,.37.07a.94.94,0,0,1,.26.1.2.2,0,0,1,.12.12l.81,3.28a.11.11,0,0,1-.06.12.64.64,0,0,1-.22.11l-.35.07-.44,0Zm16.09,0-.45,0-.38-.07a1.16,1.16,0,0,1-.27-.11.2.2,0,0,1-.12-.12l-.84-3.28a.11.11,0,0,1,.06-.12.59.59,0,0,1,.21-.1,2.24,2.24,0,0,1,.34-.07,3,3,0,0,1,.43,0h11.8a3.19,3.19,0,0,1,.45,0,2,2,0,0,1,.38.07,1.21,1.21,0,0,1,.27.09c.07,0,.12.08.13.13l1.1,3.28s0,.08,0,.12a.41.41,0,0,1-.21.1,1.45,1.45,0,0,1-.34.07,3,3,0,0,1-.44,0Zm16.11,0a3.44,3.44,0,0,1-.46,0,2.26,2.26,0,0,1-.39-.07,1.28,1.28,0,0,1-.28-.1.26.26,0,0,1-.14-.13l-1.13-3.27a.14.14,0,0,1,.05-.13.6.6,0,0,1,.21-.09,1.47,1.47,0,0,1,.33-.07,2.94,2.94,0,0,1,.44,0h11.79a3.19,3.19,0,0,1,.45,0,2.28,2.28,0,0,1,.39.06l.28.1a.35.35,0,0,1,.14.12l1.39,3.28a.11.11,0,0,1,0,.13.53.53,0,0,1-.2.1,1.36,1.36,0,0,1-.33.07,2.94,2.94,0,0,1-.44,0Zm16.1,0a3.33,3.33,0,0,1-.46,0,2.21,2.21,0,0,1-.4-.07,1.63,1.63,0,0,1-.29-.1.3.3,0,0,1-.14-.13L240,176.52s0-.08,0-.12a.53.53,0,0,1,.2-.1,1.4,1.4,0,0,1,.32-.06,2.9,2.9,0,0,1,.43,0h11.8l.45,0a3.45,3.45,0,0,1,.39.07,1.5,1.5,0,0,1,.3.1.39.39,0,0,1,.15.12l1.68,3.28a.1.1,0,0,1,0,.13.73.73,0,0,1-.2.1,2.09,2.09,0,0,1-.33.07,2.81,2.81,0,0,1-.43,0Zm15.72,0-.46,0-.4-.07a1.46,1.46,0,0,1-.3-.11.35.35,0,0,1-.16-.12l-1.71-3.28a.1.1,0,0,1,0-.12.48.48,0,0,1,.19-.1,1.73,1.73,0,0,1,.32-.07l.42,0h19.81a3.29,3.29,0,0,1,.45,0,2.38,2.38,0,0,1,.4.07,1.05,1.05,0,0,1,.3.1.32.32,0,0,1,.17.12l2.12,3.27a.1.1,0,0,1,0,.13.37.37,0,0,1-.18.1,1.18,1.18,0,0,1-.32.07,2.72,2.72,0,0,1-.43,0ZM51.64,175.85a2.62,2.62,0,0,1-.41,0,1.61,1.61,0,0,1-.31-.07.38.38,0,0,1-.17-.1s0-.07,0-.12l1.06-1.66a.5.5,0,0,1,.17-.12,1.5,1.5,0,0,1,.3-.1c.12,0,.25,0,.39-.06l.45,0H65.94a2.54,2.54,0,0,1,.41,0,1.3,1.3,0,0,1,.32.06.43.43,0,0,1,.18.1.07.07,0,0,1,0,.11L66,175.54a.27.27,0,0,1-.15.12,1.5,1.5,0,0,1-.3.1l-.39.07-.45,0h-13Zm16.84,0-.42,0a1.8,1.8,0,0,1-.31-.07.5.5,0,0,1-.18-.1.11.11,0,0,1,0-.12l.91-1.67a.27.27,0,0,1,.15-.11,1.63,1.63,0,0,1,.29-.1,2.28,2.28,0,0,1,.39-.06,3.19,3.19,0,0,1,.45,0H82.56l.42,0a1.73,1.73,0,0,1,.32.07.42.42,0,0,1,.19.09s.06.08,0,.12l-.77,1.67a.35.35,0,0,1-.14.12,1.39,1.39,0,0,1-.29.1,3.45,3.45,0,0,1-.39.07l-.45,0h-13Zm16.86,0-.42,0a2.09,2.09,0,0,1-.33-.07.48.48,0,0,1-.19-.1s-.06-.08,0-.12l.75-1.67a.35.35,0,0,1,.14-.12,1.32,1.32,0,0,1,.28-.09l.38-.07.44,0H99.19l.42,0a2.36,2.36,0,0,1,.33.07.63.63,0,0,1,.2.09s.06.08,0,.12l-.6,1.67a.29.29,0,0,1-.14.12,2,2,0,0,1-.27.1c-.12,0-.25.05-.39.06a3.15,3.15,0,0,1-.44,0Zm16.85,0a2.81,2.81,0,0,1-.43,0,2.35,2.35,0,0,1-.34-.06.73.73,0,0,1-.2-.1s-.07-.08,0-.12l.59-1.67a.31.31,0,0,1,.13-.12,1.39,1.39,0,0,1,.27-.1,3.38,3.38,0,0,1,.38-.06,3.17,3.17,0,0,1,.44,0h12.83a2.67,2.67,0,0,1,.42,0,1.49,1.49,0,0,1,.34.06.69.69,0,0,1,.21.1.13.13,0,0,1,0,.12l-.45,1.66a.18.18,0,0,1-.12.12.71.71,0,0,1-.26.1l-.38.07a3.17,3.17,0,0,1-.44,0Zm16.84,0-.43,0a2.24,2.24,0,0,1-.34-.07.65.65,0,0,1-.22-.1.11.11,0,0,1-.06-.12l.44-1.66s0-.08.12-.12a.94.94,0,0,1,.26-.1,1.8,1.8,0,0,1,.36-.06,3.15,3.15,0,0,1,.44,0h12.83l.42,0,.35.07.22.09a.15.15,0,0,1,.07.12l-.3,1.67s0,.08-.1.12a1.28,1.28,0,0,1-.26.1l-.37.07-.44,0Zm16.84,0-.43,0-.35-.07a.71.71,0,0,1-.23-.1.15.15,0,0,1-.07-.12l.28-1.67a.2.2,0,0,1,.11-.12l.25-.09a2.88,2.88,0,0,1,.36-.07l.44,0h12.82l.43,0,.35.07a.85.85,0,0,1,.23.09.17.17,0,0,1,.08.12l-.13,1.67a.21.21,0,0,1-.1.12,1,1,0,0,1-.25.1,1.68,1.68,0,0,1-.36.06,3,3,0,0,1-.44,0Zm16.84,0a2.9,2.9,0,0,1-.43,0,2.69,2.69,0,0,1-.36-.06.71.71,0,0,1-.23-.1c-.06,0-.09-.08-.08-.12l.11-1.67s0-.08.1-.12a.81.81,0,0,1,.24-.09,2.56,2.56,0,0,1,.36-.07l.43,0h12.82a3,3,0,0,1,.43,0l.36.06a.91.91,0,0,1,.24.1q.09.06.09.12l0,1.66s0,.09-.09.13a.81.81,0,0,1-.24.09,1.67,1.67,0,0,1-.35.07,3,3,0,0,1-.44,0Zm16.83,0a2.9,2.9,0,0,1-.43,0,1.64,1.64,0,0,1-.36-.07.81.81,0,0,1-.24-.09c-.06,0-.09-.08-.09-.13l-.06-1.66s0-.08.09-.12a.91.91,0,0,1,.24-.1,2.81,2.81,0,0,1,.35-.06,2.9,2.9,0,0,1,.43,0h12.82a3.15,3.15,0,0,1,.44,0,1.93,1.93,0,0,1,.36.06,1,1,0,0,1,.25.1.17.17,0,0,1,.1.12l.19,1.66a.12.12,0,0,1-.08.12.71.71,0,0,1-.23.1,2.24,2.24,0,0,1-.34.07l-.44,0Zm16.84,0-.44,0-.36-.07a1,1,0,0,1-.25-.1c-.06,0-.1-.07-.1-.12l-.21-1.67s0-.08.07-.11a.71.71,0,0,1,.23-.1,1.49,1.49,0,0,1,.34-.06,2.9,2.9,0,0,1,.43,0h12.82l.44,0a2.88,2.88,0,0,1,.36.07l.26.09a.24.24,0,0,1,.11.12l.36,1.67s0,.08-.07.12a.59.59,0,0,1-.21.1l-.35.07-.43,0Zm16.84,0-.44,0-.37-.07a1.09,1.09,0,0,1-.26-.1.24.24,0,0,1-.11-.12l-.37-1.67s0-.08.06-.12a1,1,0,0,1,.22-.09,2.24,2.24,0,0,1,.34-.07l.42,0h12.82l.44,0,.37.07a1.21,1.21,0,0,1,.27.09q.1.06.12.12l.52,1.67s0,.08-.06.12a.68.68,0,0,1-.21.1,2.35,2.35,0,0,1-.34.06,2.81,2.81,0,0,1-.43,0Zm16.84,0a3.15,3.15,0,0,1-.44,0,3.38,3.38,0,0,1-.38-.06,2,2,0,0,1-.27-.1q-.1-.06-.12-.12l-.53-1.67s0-.08,0-.12a1,1,0,0,1,.21-.1,2.19,2.19,0,0,1,.33-.06,2.82,2.82,0,0,1,.42,0h12.83a2.94,2.94,0,0,1,.44,0,3.38,3.38,0,0,1,.38.06,1.28,1.28,0,0,1,.28.1.31.31,0,0,1,.13.12l.68,1.66a.1.1,0,0,1-.05.12.42.42,0,0,1-.2.1,2.09,2.09,0,0,1-.33.07,2.89,2.89,0,0,1-.43,0Zm16.84,0-.45,0-.38-.07a1.28,1.28,0,0,1-.28-.1.24.24,0,0,1-.14-.12l-.69-1.66a.12.12,0,0,1,0-.12.53.53,0,0,1,.2-.1,2.29,2.29,0,0,1,.32-.06,2.81,2.81,0,0,1,.43,0h12.82a3.19,3.19,0,0,1,.45,0,2,2,0,0,1,.38.06,1.28,1.28,0,0,1,.28.1.27.27,0,0,1,.15.11l.83,1.67a.1.1,0,0,1,0,.12.48.48,0,0,1-.19.1,2.21,2.21,0,0,1-.32.07l-.43,0Zm16.84,0-.45,0-.39-.07a1.63,1.63,0,0,1-.29-.1.49.49,0,0,1-.15-.12l-.85-1.67a.08.08,0,0,1,0-.11.48.48,0,0,1,.19-.1,1.73,1.73,0,0,1,.32-.07l.41,0h12.83l.45,0,.39.07a1.66,1.66,0,0,1,.29.09.44.44,0,0,1,.16.12l1,1.67s0,.08,0,.12a.37.37,0,0,1-.18.1,1.3,1.3,0,0,1-.32.06,2.67,2.67,0,0,1-.42,0Zm16.23,0-.36,0-.32-.05-.24-.08a.28.28,0,0,1-.13-.1l-1.07-1.79a.07.07,0,0,1,0-.09.35.35,0,0,1,.15-.08,1.22,1.22,0,0,1,.25-.05l.33,0h6.11a2.17,2.17,0,0,1,.36,0l.31.05.24.07a.24.24,0,0,1,.13.1l1.16,1.79a.08.08,0,0,1,0,.1.3.3,0,0,1-.14.07,1.31,1.31,0,0,1-.25.06l-.34,0Zm8.41-5.56-229.19,0c-1,0-2,.06-2.89.15a22.25,22.25,0,0,0-2.57.42,11.14,11.14,0,0,0-2,.61,2.84,2.84,0,0,0-1.11.76L.31,228.74a1.31,1.31,0,0,0-.2,1.36,2.57,2.57,0,0,0,1.29,1.12A9.68,9.68,0,0,0,4,232a21.32,21.32,0,0,0,3.6.28h0l312.63-.07a21.44,21.44,0,0,0,3.61-.28,9.66,9.66,0,0,0,2.56-.76,2.51,2.51,0,0,0,1.29-1.11,1.32,1.32,0,0,0-.21-1.36l-40.53-56.48a2.76,2.76,0,0,0-1.11-.76,10.88,10.88,0,0,0-2-.61,19.78,19.78,0,0,0-2.57-.41,27,27,0,0,0-2.89-.15Z"/><path class="cls-16" d="M218,202.27h0l-108.3,0a11,11,0,0,0-1.32.08,9.57,9.57,0,0,0-1.12.23,3.29,3.29,0,0,0-.81.34.82.82,0,0,0-.37.41L98.84,229a.54.54,0,0,0,.14.53,1.86,1.86,0,0,0,.69.43,5,5,0,0,0,1.12.3,10.65,10.65,0,0,0,1.45.1l123.34,0a9.1,9.1,0,0,0,1.45-.11,5,5,0,0,0,1.12-.3,1.86,1.86,0,0,0,.69-.43A.54.54,0,0,0,229,229l-7.34-25.65a.81.81,0,0,0-.38-.41,3.46,3.46,0,0,0-.81-.34,7.45,7.45,0,0,0-1.11-.23,11,11,0,0,0-1.32-.08Z"/><path class="cls-2" d="M248.77,173.54H236a2.81,2.81,0,0,0-.43,0,2.29,2.29,0,0,0-.32.06.53.53,0,0,0-.2.1.12.12,0,0,0,0,.12l.69,1.66a.24.24,0,0,0,.14.12,1.28,1.28,0,0,0,.28.1l.38.07.45,0h13l.43,0a2.21,2.21,0,0,0,.32-.07.48.48,0,0,0,.19-.1.1.1,0,0,0,0-.12l-.83-1.67a.27.27,0,0,0-.15-.11,1.28,1.28,0,0,0-.28-.1,2,2,0,0,0-.38-.06,3.19,3.19,0,0,0-.45,0Z"/><path class="cls-2" d="M232.15,173.54H219.32a2.82,2.82,0,0,0-.42,0,2.19,2.19,0,0,0-.33.06,1,1,0,0,0-.21.1s-.06.08,0,.12l.53,1.67s.05.08.12.12a2,2,0,0,0,.27.1,3.38,3.38,0,0,0,.38.06,3.15,3.15,0,0,0,.44,0h13a2.89,2.89,0,0,0,.43,0,2.09,2.09,0,0,0,.33-.07.42.42,0,0,0,.2-.1.1.1,0,0,0,.05-.12l-.68-1.66a.31.31,0,0,0-.13-.12,1.28,1.28,0,0,0-.28-.1,3.38,3.38,0,0,0-.38-.06,2.94,2.94,0,0,0-.44,0Z"/><path class="cls-2" d="M215.53,173.55H202.71l-.42,0a2.24,2.24,0,0,0-.34.07,1,1,0,0,0-.22.09s-.07.08-.06.12l.37,1.67a.24.24,0,0,0,.11.12,1.09,1.09,0,0,0,.26.1l.37.07.44,0h13a2.81,2.81,0,0,0,.43,0,2.35,2.35,0,0,0,.34-.06.68.68,0,0,0,.21-.1q.08-.06.06-.12l-.52-1.67s0-.08-.12-.12a1.21,1.21,0,0,0-.27-.09l-.37-.07-.44,0Z"/><path class="cls-2" d="M198.91,173.55H186.09a2.9,2.9,0,0,0-.43,0,1.49,1.49,0,0,0-.34.06.71.71,0,0,0-.23.1c-.05,0-.08.07-.07.11l.21,1.67s0,.09.1.12a1,1,0,0,0,.25.1l.36.07.44,0h13l.43,0,.35-.07a.59.59,0,0,0,.21-.1s.08-.08.07-.12l-.36-1.67a.24.24,0,0,0-.11-.12l-.26-.09a2.88,2.88,0,0,0-.36-.07l-.44,0Z"/><path class="cls-2" d="M182.29,173.55H169.47a2.9,2.9,0,0,0-.43,0,2.81,2.81,0,0,0-.35.06.91.91,0,0,0-.24.1q-.09.06-.09.12l.06,1.66s0,.09.09.13a.81.81,0,0,0,.24.09,1.64,1.64,0,0,0,.36.07,2.9,2.9,0,0,0,.43,0h13l.44,0a2.24,2.24,0,0,0,.34-.07.71.71,0,0,0,.23-.1.12.12,0,0,0,.08-.12l-.19-1.66a.17.17,0,0,0-.1-.12,1,1,0,0,0-.25-.1,1.93,1.93,0,0,0-.36-.06,3.15,3.15,0,0,0-.44,0Z"/><path class="cls-2" d="M165.67,173.56H152.85l-.43,0a2.56,2.56,0,0,0-.36.07.81.81,0,0,0-.24.09c-.06,0-.1.08-.1.12l-.11,1.67s0,.08.08.12a.71.71,0,0,0,.23.1,2.69,2.69,0,0,0,.36.06,2.9,2.9,0,0,0,.43,0h13a3,3,0,0,0,.44,0,1.67,1.67,0,0,0,.35-.07.81.81,0,0,0,.24-.09c.06,0,.09-.08.09-.13l0-1.66s0-.08-.09-.12a.91.91,0,0,0-.24-.1l-.36-.06a3,3,0,0,0-.43,0Z"/><path class="cls-2" d="M149.05,173.56H136.23l-.44,0a2.88,2.88,0,0,0-.36.07l-.25.09a.2.2,0,0,0-.11.12l-.28,1.67a.15.15,0,0,0,.07.12.71.71,0,0,0,.23.1l.35.07.43,0h13a3,3,0,0,0,.44,0,1.68,1.68,0,0,0,.36-.06,1,1,0,0,0,.25-.1.21.21,0,0,0,.1-.12l.13-1.67a.17.17,0,0,0-.08-.12.85.85,0,0,0-.23-.09l-.35-.07-.43,0Z"/><path class="cls-2" d="M132.43,173.56H119.6a3.15,3.15,0,0,0-.44,0,1.8,1.8,0,0,0-.36.06.94.94,0,0,0-.26.1q-.11.06-.12.12l-.44,1.66a.11.11,0,0,0,.06.12.65.65,0,0,0,.22.1,2.24,2.24,0,0,0,.34.07l.43,0h13l.44,0,.37-.07a1.28,1.28,0,0,0,.26-.1c.06,0,.1-.08.1-.12l.3-1.67a.15.15,0,0,0-.07-.12l-.22-.09-.35-.07-.42,0Z"/><path class="cls-2" d="M115.81,173.56H103a3.17,3.17,0,0,0-.44,0,3.38,3.38,0,0,0-.38.06,1.39,1.39,0,0,0-.27.1.31.31,0,0,0-.13.12l-.59,1.67s0,.08,0,.12a.73.73,0,0,0,.2.1,2.35,2.35,0,0,0,.34.06,2.81,2.81,0,0,0,.43,0h13a3.17,3.17,0,0,0,.44,0l.38-.07a.71.71,0,0,0,.26-.1.18.18,0,0,0,.12-.12l.45-1.66a.13.13,0,0,0,0-.12.69.69,0,0,0-.21-.1,1.49,1.49,0,0,0-.34-.06,2.67,2.67,0,0,0-.42,0Z"/><path class="cls-2" d="M68.48,175.85h0Zm14.14,0h0Z"/><path class="cls-2" d="M65.94,173.57H53.11l-.45,0c-.14,0-.27,0-.39.06a1.5,1.5,0,0,0-.3.1.5.5,0,0,0-.17.12l-1.06,1.66c0,.05,0,.09,0,.12a.38.38,0,0,0,.17.1,1.61,1.61,0,0,0,.31.07,2.62,2.62,0,0,0,.41,0h13l.45,0,.39-.07a1.5,1.5,0,0,0,.3-.1.27.27,0,0,0,.15-.12l.92-1.67a.07.07,0,0,0,0-.11.43.43,0,0,0-.18-.1,1.3,1.3,0,0,0-.32-.06,2.54,2.54,0,0,0-.41,0Z"/><path class="cls-2" d="M252.8,176.21H241a2.9,2.9,0,0,0-.43,0,1.4,1.4,0,0,0-.32.06.53.53,0,0,0-.2.1s-.06.08,0,.12l1.43,3.28a.3.3,0,0,0,.14.13,1.63,1.63,0,0,0,.29.1,2.21,2.21,0,0,0,.4.07,3.33,3.33,0,0,0,.46,0h12.06a2.81,2.81,0,0,0,.43,0,2.09,2.09,0,0,0,.33-.07.73.73,0,0,0,.2-.1.1.1,0,0,0,0-.13l-1.68-3.28a.39.39,0,0,0-.15-.12,1.5,1.5,0,0,0-.3-.1,3.45,3.45,0,0,0-.39-.07l-.45,0Z"/><path class="cls-2" d="M276.19,176.2H256.38l-.42,0a1.73,1.73,0,0,0-.32.07.48.48,0,0,0-.19.1.1.1,0,0,0,0,.12l1.71,3.28a.35.35,0,0,0,.16.12,1.46,1.46,0,0,0,.3.11l.4.07.46,0h20.24a2.72,2.72,0,0,0,.43,0,1.18,1.18,0,0,0,.32-.07.37.37,0,0,0,.18-.1.1.1,0,0,0,0-.13l-2.12-3.27a.32.32,0,0,0-.17-.12,1.05,1.05,0,0,0-.3-.1,2.38,2.38,0,0,0-.4-.07,3.29,3.29,0,0,0-.45,0Z"/><path class="cls-2" d="M237.05,176.21H225.26a2.94,2.94,0,0,0-.44,0,1.47,1.47,0,0,0-.33.07.6.6,0,0,0-.21.09.14.14,0,0,0-.05.13l1.13,3.27a.26.26,0,0,0,.14.13,1.28,1.28,0,0,0,.28.1,2.26,2.26,0,0,0,.39.07,3.44,3.44,0,0,0,.46,0h12.06a2.94,2.94,0,0,0,.44,0,1.36,1.36,0,0,0,.33-.07.53.53,0,0,0,.2-.1.11.11,0,0,0,0-.13l-1.39-3.28a.35.35,0,0,0-.14-.12l-.28-.1a2.28,2.28,0,0,0-.39-.06,3.19,3.19,0,0,0-.45,0Z"/><path class="cls-2" d="M221.3,176.21H209.5a3,3,0,0,0-.43,0,2.24,2.24,0,0,0-.34.07.59.59,0,0,0-.21.1.11.11,0,0,0-.06.12l.84,3.28a.2.2,0,0,0,.12.12,1.16,1.16,0,0,0,.27.11l.38.07.45,0h12.07a3,3,0,0,0,.44,0,1.45,1.45,0,0,0,.34-.07.41.41,0,0,0,.21-.1s.07-.08,0-.12l-1.1-3.28c0-.05-.06-.09-.13-.13a1.21,1.21,0,0,0-.27-.09,2,2,0,0,0-.38-.07,3.19,3.19,0,0,0-.45,0Z"/><path class="cls-2" d="M205.55,176.22h-11.8l-.43,0-.35.07a.83.83,0,0,0-.23.1q-.08.06-.06.12l.54,3.28a.22.22,0,0,0,.11.13,1.18,1.18,0,0,0,.27.1l.37.07a3.46,3.46,0,0,0,.46,0h12.06l.44,0,.35-.07a.64.64,0,0,0,.22-.11.11.11,0,0,0,.06-.12l-.81-3.28a.2.2,0,0,0-.12-.12.94.94,0,0,0-.26-.1l-.37-.07-.45,0Z"/><path class="cls-2" d="M189.8,176.22H178a3,3,0,0,0-.44,0,1.7,1.7,0,0,0-.35.06.71.71,0,0,0-.23.1.17.17,0,0,0-.08.12l.25,3.28c0,.05,0,.09.1.13a1,1,0,0,0,.25.1,1.87,1.87,0,0,0,.37.07,3.19,3.19,0,0,0,.45,0h12.06a3.24,3.24,0,0,0,.45,0,2.88,2.88,0,0,0,.36-.07.71.71,0,0,0,.23-.1c.05,0,.08-.08.07-.13l-.51-3.28a.24.24,0,0,0-.11-.12.94.94,0,0,0-.26-.1l-.37-.07-.44,0Z"/><path class="cls-2" d="M174.05,176.22h-11.8a3.15,3.15,0,0,0-.44,0,1.91,1.91,0,0,0-.36.07.93.93,0,0,0-.24.09c-.06,0-.09.08-.09.13l-.05,3.27c0,.05,0,.09.09.13a.91.91,0,0,0,.24.1,1.87,1.87,0,0,0,.37.07,2.94,2.94,0,0,0,.44,0h12.08a2.94,2.94,0,0,0,.44,0,1.64,1.64,0,0,0,.36-.07.79.79,0,0,0,.24-.1c.06,0,.09-.08.08-.13l-.22-3.28s0-.08-.09-.12a.86.86,0,0,0-.25-.1,1.68,1.68,0,0,0-.36-.06,2.94,2.94,0,0,0-.44,0Z"/><path class="cls-2" d="M158.3,176.22H146.5l-.44,0-.37.07a1,1,0,0,0-.25.1.21.21,0,0,0-.1.12l-.33,3.28s0,.08.07.12a.9.9,0,0,0,.24.11l.35.07.45,0h12.06l.45,0,.37-.07a.84.84,0,0,0,.25-.11c.06,0,.09-.08.09-.13l.08-3.27a.14.14,0,0,0-.09-.12.6.6,0,0,0-.24-.1,1.64,1.64,0,0,0-.36-.07,2.9,2.9,0,0,0-.43,0Z"/><path class="cls-2" d="M142.55,176.23h-11.8l-.45,0-.37.07a.94.94,0,0,0-.26.1c-.07,0-.11.08-.11.12l-.63,3.28a.13.13,0,0,0,.06.13.71.71,0,0,0,.23.1,2.56,2.56,0,0,0,.36.07,2.94,2.94,0,0,0,.44,0h12.06l.45,0,.38-.07a1.61,1.61,0,0,0,.25-.1.26.26,0,0,0,.11-.13l.36-3.28s0-.08-.07-.12a.71.71,0,0,0-.23-.1l-.35-.07-.43,0Z"/><path class="cls-2" d="M126.79,176.23H115a2.94,2.94,0,0,0-.44,0,3.38,3.38,0,0,0-.38.06,2,2,0,0,0-.27.1q-.11.06-.12.12l-.92,3.28c0,.05,0,.09,0,.13a.65.65,0,0,0,.22.1,1.45,1.45,0,0,0,.34.07,2.94,2.94,0,0,0,.44,0H126a3.29,3.29,0,0,0,.45,0l.38-.07a1.18,1.18,0,0,0,.27-.1c.07,0,.11-.08.12-.13l.66-3.28s0-.08-.07-.12a.65.65,0,0,0-.22-.1,1.59,1.59,0,0,0-.34-.06,3,3,0,0,0-.44,0Z"/><path class="cls-2" d="M111,176.23H99.24a3.24,3.24,0,0,0-.45,0l-.38.07a.91.91,0,0,0-.28.1.24.24,0,0,0-.14.12l-1.21,3.28s0,.08,0,.12a.68.68,0,0,0,.21.11l.34.07.44,0h12.07a3.19,3.19,0,0,0,.45,0,2.26,2.26,0,0,0,.39-.07,1.18,1.18,0,0,0,.27-.1c.07,0,.12-.08.13-.13l.95-3.28s0-.08,0-.12a1,1,0,0,0-.21-.1,2.35,2.35,0,0,0-.34-.06,2.81,2.81,0,0,0-.43,0Z"/><path class="cls-2" d="M95.28,176.24H83.48l-.45,0-.38.07a1.21,1.21,0,0,0-.29.1.35.35,0,0,0-.14.12l-1.51,3.28a.1.1,0,0,0,0,.12.48.48,0,0,0,.19.11,2.09,2.09,0,0,0,.33.07l.43,0H93.77l.46,0,.39-.07a1.18,1.18,0,0,0,.29-.11.35.35,0,0,0,.14-.12l1.25-3.28a.1.1,0,0,0,0-.12.42.42,0,0,0-.2-.1,2.24,2.24,0,0,0-.34-.07,2.82,2.82,0,0,0-.43,0Z"/><path class="cls-2" d="M79.53,176.24H67.73l-.45,0-.4.07a1.39,1.39,0,0,0-.29.1.37.37,0,0,0-.16.12l-1.8,3.28a.09.09,0,0,0,0,.13.48.48,0,0,0,.19.1,1.36,1.36,0,0,0,.33.07,2.81,2.81,0,0,0,.43,0H77.67a3.81,3.81,0,0,0,.85-.1l.3-.1a.33.33,0,0,0,.15-.13l1.54-3.28a.1.1,0,0,0,0-.12.56.56,0,0,0-.19-.1,2.09,2.09,0,0,0-.33-.07l-.43,0Z"/><path class="cls-2" d="M263,180.59H250.92a2.94,2.94,0,0,0-.44,0,1.36,1.36,0,0,0-.33.07.53.53,0,0,0-.2.1.11.11,0,0,0,0,.13l1.64,3.44a.38.38,0,0,0,.16.14,2.45,2.45,0,0,0,.3.11l.41.07a3.59,3.59,0,0,0,.47,0h12.37l.45,0a2,2,0,0,0,.33-.08.53.53,0,0,0,.2-.11.1.1,0,0,0,0-.13l-1.92-3.44a.31.31,0,0,0-.16-.13,1.58,1.58,0,0,0-.31-.11l-.41-.07-.46,0Z"/><path class="cls-2" d="M279,180.58H266.9l-.44,0a2.09,2.09,0,0,0-.33.07.56.56,0,0,0-.19.11.1.1,0,0,0,0,.13l1.95,3.44s.08.09.17.13a1.58,1.58,0,0,0,.31.11l.42.08.48,0h12.36a3,3,0,0,0,.45,0,1.27,1.27,0,0,0,.32-.07.37.37,0,0,0,.18-.11.09.09,0,0,0,0-.13l-2.23-3.45a.5.5,0,0,0-.17-.13,1.74,1.74,0,0,0-.32-.1l-.41-.07a3.33,3.33,0,0,0-.46,0Z"/><path class="cls-2" d="M246.89,180.59H234.78a2.94,2.94,0,0,0-.44,0,1.45,1.45,0,0,0-.34.07.69.69,0,0,0-.21.1.12.12,0,0,0,0,.13l1.34,3.45a.33.33,0,0,0,.15.13,1.18,1.18,0,0,0,.29.11l.41.07a3.48,3.48,0,0,0,.47,0h12.37a2.94,2.94,0,0,0,.44,0,2.24,2.24,0,0,0,.34-.07.71.71,0,0,0,.2-.11.12.12,0,0,0,0-.14l-1.61-3.44a.33.33,0,0,0-.15-.13,1.63,1.63,0,0,0-.29-.1,2.21,2.21,0,0,0-.4-.07,3.19,3.19,0,0,0-.45,0Z"/><path class="cls-2" d="M230.74,180.59h-12.1l-.45,0-.34.07a.58.58,0,0,0-.21.11.11.11,0,0,0-.06.12l1,3.45s.06.09.13.13a1.26,1.26,0,0,0,.28.11,2.21,2.21,0,0,0,.4.07,3.33,3.33,0,0,0,.46,0h12.37a3.23,3.23,0,0,0,.46,0,2.24,2.24,0,0,0,.34-.07.64.64,0,0,0,.22-.11.12.12,0,0,0,0-.13L232,180.92a.36.36,0,0,0-.14-.13,1.21,1.21,0,0,0-.29-.1,3.45,3.45,0,0,0-.39-.07,3.29,3.29,0,0,0-.45,0Z"/><path class="cls-2" d="M214.59,180.6H202.5l-.45,0-.35.07a.64.64,0,0,0-.22.11s-.08.08-.06.13l.71,3.44s.05.09.12.13a.91.91,0,0,0,.28.11l.39.08.47,0h12.37l.45,0,.35-.08a.64.64,0,0,0,.22-.11c.05,0,.07-.08.05-.13l-1-3.45a.2.2,0,0,0-.12-.12,1.26,1.26,0,0,0-.28-.11l-.38-.07-.46,0Z"/><path class="cls-2" d="M198.45,180.6h-12.1a2.94,2.94,0,0,0-.44,0,1.64,1.64,0,0,0-.36.07.91.91,0,0,0-.24.1c-.05,0-.08.08-.07.13l.42,3.44a.19.19,0,0,0,.1.14,1.16,1.16,0,0,0,.27.11l.38.07a3.33,3.33,0,0,0,.46,0h12.38a3.09,3.09,0,0,0,.45,0,1.6,1.6,0,0,0,.36-.08.55.55,0,0,0,.23-.11c.05,0,.08-.08.07-.13l-.69-3.44c0-.05,0-.09-.12-.13a1.16,1.16,0,0,0-.27-.11l-.38-.07-.45,0Z"/><path class="cls-2" d="M182.31,180.6h-12.1a3.19,3.19,0,0,0-.45,0,2.88,2.88,0,0,0-.36.07,1.15,1.15,0,0,0-.24.1.17.17,0,0,0-.09.13l.1,3.45c0,.05,0,.09.1.13a.92.92,0,0,0,.26.11,1.74,1.74,0,0,0,.37.07,3.44,3.44,0,0,0,.46,0h12.37a3.23,3.23,0,0,0,.46,0l.37-.07a.9.9,0,0,0,.24-.11.15.15,0,0,0,.07-.14l-.38-3.44a.19.19,0,0,0-.1-.13,1.09,1.09,0,0,0-.26-.1,1.87,1.87,0,0,0-.37-.07,3.29,3.29,0,0,0-.45,0Z"/><path class="cls-2" d="M166.18,180.61H154.06a3.24,3.24,0,0,0-.45,0l-.37.07a1,1,0,0,0-.25.11.2.2,0,0,0-.1.13l-.2,3.44c0,.05,0,.09.09.13a.6.6,0,0,0,.24.11,3,3,0,0,0,.37.08l.46,0h12.38a3.33,3.33,0,0,0,.46,0,1.87,1.87,0,0,0,.37-.07,1,1,0,0,0,.25-.11c.06,0,.09-.08.09-.13l-.08-3.45a.15.15,0,0,0-.09-.12.9.9,0,0,0-.24-.11l-.37-.07a3,3,0,0,0-.44,0Z"/><path class="cls-2" d="M150,180.61h-12.1a3.19,3.19,0,0,0-.45,0,1.74,1.74,0,0,0-.37.07,1.18,1.18,0,0,0-.27.1.22.22,0,0,0-.11.13l-.51,3.44a.15.15,0,0,0,.07.14,1.1,1.1,0,0,0,.24.11,2.88,2.88,0,0,0,.36.07,3.39,3.39,0,0,0,.46,0h12.37l.46,0,.38-.08a.7.7,0,0,0,.26-.11c.06,0,.1-.08.1-.13l.24-3.44c0-.05,0-.09-.08-.13a.9.9,0,0,0-.24-.11,2.88,2.88,0,0,0-.36-.07l-.45,0Z"/><path class="cls-2" d="M133.88,180.61H121.77a3.29,3.29,0,0,0-.45,0,2,2,0,0,0-.38.07,1,1,0,0,0-.27.1c-.07,0-.11.08-.12.13l-.82,3.45a.13.13,0,0,0,.06.13.75.75,0,0,0,.22.11,2.56,2.56,0,0,0,.36.07,3.19,3.19,0,0,0,.45,0H133.2a3.54,3.54,0,0,0,.47,0l.38-.07a1.86,1.86,0,0,0,.27-.11c.07,0,.11-.09.11-.14l.55-3.44a.16.16,0,0,0-.07-.13.83.83,0,0,0-.23-.1,1.64,1.64,0,0,0-.36-.07,2.94,2.94,0,0,0-.44,0Z"/><path class="cls-2" d="M117.73,180.61h-12.1a3.19,3.19,0,0,0-.45,0,3.08,3.08,0,0,0-.39.07,1.73,1.73,0,0,0-.28.1.27.27,0,0,0-.13.13l-1.14,3.45a.13.13,0,0,0,.06.13.58.58,0,0,0,.21.11l.35.08.45,0h12.38a3.33,3.33,0,0,0,.46,0,2,2,0,0,0,.39-.07,1.09,1.09,0,0,0,.28-.11.27.27,0,0,0,.13-.13l.86-3.45a.13.13,0,0,0-.06-.13.71.71,0,0,0-.23-.1,1.44,1.44,0,0,0-.35-.07,2.94,2.94,0,0,0-.44,0Z"/><path class="cls-2" d="M101.59,180.61H89.48l-.46,0-.39.07a1.18,1.18,0,0,0-.29.11c-.08,0-.13.08-.14.13l-1.44,3.44a.11.11,0,0,0,0,.13.41.41,0,0,0,.21.11,1.9,1.9,0,0,0,.34.08,3.1,3.1,0,0,0,.45,0h12.38l.46,0,.4-.08a1.18,1.18,0,0,0,.29-.11.3.3,0,0,0,.14-.13l1.16-3.45a.13.13,0,0,0,0-.12.68.68,0,0,0-.21-.11l-.34-.07a2.94,2.94,0,0,0-.44,0Z"/><path class="cls-2" d="M85.44,180.62H73.34a3.44,3.44,0,0,0-.46,0,2.21,2.21,0,0,0-.4.07,1.5,1.5,0,0,0-.3.1A.36.36,0,0,0,72,181l-1.75,3.45a.11.11,0,0,0,0,.13.53.53,0,0,0,.2.11,2.24,2.24,0,0,0,.34.07,3,3,0,0,0,.45,0H83.66a3.62,3.62,0,0,0,.47,0,2.18,2.18,0,0,0,.4-.08,1.5,1.5,0,0,0,.3-.1.29.29,0,0,0,.15-.14L86.46,181a.13.13,0,0,0,0-.13.51.51,0,0,0-.21-.11,2.09,2.09,0,0,0-.33-.07l-.44,0Z"/><path class="cls-2" d="M69,180.62H49.2a3.59,3.59,0,0,0-.47,0l-.41.07a1.58,1.58,0,0,0-.31.11.5.5,0,0,0-.17.12l-2.21,3.45a.1.1,0,0,0,0,.13.43.43,0,0,0,.18.11,2,2,0,0,0,.33.08l.44,0H66.84a3.64,3.64,0,0,0,.48,0l.41-.07a1.85,1.85,0,0,0,.31-.11.45.45,0,0,0,.16-.13L70,181a.11.11,0,0,0,0-.13.41.41,0,0,0-.19-.1,1.36,1.36,0,0,0-.33-.07,2.81,2.81,0,0,0-.43,0Z"/><path class="cls-2" d="M252.44,185.2H240a3.09,3.09,0,0,0-.45,0,1.54,1.54,0,0,0-.35.07.58.58,0,0,0-.21.11.12.12,0,0,0,0,.13l1.48,3.63a.29.29,0,0,0,.15.14,1.58,1.58,0,0,0,.31.11,2.24,2.24,0,0,0,.42.08,3.64,3.64,0,0,0,.48,0H254.5a3.23,3.23,0,0,0,.46,0,2.14,2.14,0,0,0,.34-.08.51.51,0,0,0,.21-.11.11.11,0,0,0,0-.14l-1.76-3.63a.36.36,0,0,0-.16-.13,1.46,1.46,0,0,0-.3-.11,2.33,2.33,0,0,0-.41-.07,3.33,3.33,0,0,0-.46,0Z"/><path class="cls-2" d="M281.94,185.19H256.87l-.44,0a1.9,1.9,0,0,0-.34.08.51.51,0,0,0-.21.11.09.09,0,0,0,0,.13l1.8,3.63a.51.51,0,0,0,.17.14,1.48,1.48,0,0,0,.32.11l.42.08a3.91,3.91,0,0,0,.49,0h25.65a3,3,0,0,0,.45,0,1.35,1.35,0,0,0,.34-.07.37.37,0,0,0,.18-.12.1.1,0,0,0,0-.14l-2.33-3.62a.45.45,0,0,0-.18-.14,1.82,1.82,0,0,0-.33-.11l-.42-.07a3.87,3.87,0,0,0-.48,0Z"/><path class="cls-2" d="M235.86,185.2h-12.4a3.19,3.19,0,0,0-.45,0l-.35.07a.64.64,0,0,0-.22.11.13.13,0,0,0-.05.14l1.15,3.62a.31.31,0,0,0,.14.14,1.44,1.44,0,0,0,.3.12,2.18,2.18,0,0,0,.41.07,3.59,3.59,0,0,0,.47,0h12.7a3.33,3.33,0,0,0,.46,0,1.4,1.4,0,0,0,.35-.08.64.64,0,0,0,.22-.11.13.13,0,0,0,0-.14l-1.44-3.63a.33.33,0,0,0-.15-.13,1.46,1.46,0,0,0-.3-.11,2.33,2.33,0,0,0-.41-.07,3.38,3.38,0,0,0-.47,0Z"/><path class="cls-2" d="M219.31,185.2h-12.4l-.45,0a1.6,1.6,0,0,0-.36.08.6.6,0,0,0-.24.11.13.13,0,0,0-.06.13l.83,3.63s.06.09.13.14a1.26,1.26,0,0,0,.28.11l.41.08.48,0h12.69l.46,0a2.45,2.45,0,0,0,.36-.08.45.45,0,0,0,.22-.12.14.14,0,0,0,.06-.14l-1.12-3.62a.27.27,0,0,0-.14-.14,1.26,1.26,0,0,0-.28-.11l-.4-.07a3.48,3.48,0,0,0-.47,0Z"/><path class="cls-2" d="M202.75,185.21h-12.4a3.09,3.09,0,0,0-.45,0,1.74,1.74,0,0,0-.37.07.9.9,0,0,0-.24.11.14.14,0,0,0-.07.13l.5,3.63a.22.22,0,0,0,.12.14,1.16,1.16,0,0,0,.27.11,2.18,2.18,0,0,0,.4.08,3.38,3.38,0,0,0,.47,0h12.69a3.38,3.38,0,0,0,.47,0,2.61,2.61,0,0,0,.37-.08.9.9,0,0,0,.24-.11.15.15,0,0,0,.06-.14l-.79-3.63c0-.05-.06-.09-.13-.13a.82.82,0,0,0-.28-.11,1.91,1.91,0,0,0-.39-.08l-.47,0Z"/><path class="cls-2" d="M186.2,185.21H173.8a3.33,3.33,0,0,0-.46,0,2.73,2.73,0,0,0-.37.07.84.84,0,0,0-.25.11.17.17,0,0,0-.09.14l.18,3.62a.19.19,0,0,0,.1.14l.27.12a2,2,0,0,0,.39.07,3.59,3.59,0,0,0,.47,0h12.7a3.33,3.33,0,0,0,.46,0,2,2,0,0,0,.38-.08.9.9,0,0,0,.24-.11.16.16,0,0,0,.08-.14l-.47-3.63a.26.26,0,0,0-.11-.13,1.16,1.16,0,0,0-.27-.11,2,2,0,0,0-.38-.07,3.48,3.48,0,0,0-.47,0Z"/><path class="cls-2" d="M169.64,185.21h-12.4a3.33,3.33,0,0,0-.46,0l-.38.07a1.22,1.22,0,0,0-.25.11c-.07.05-.1.09-.1.14l-.15,3.63c0,.05,0,.09.09.14a.92.92,0,0,0,.26.11,2.49,2.49,0,0,0,.38.08,3.38,3.38,0,0,0,.47,0h12.69a3.48,3.48,0,0,0,.47,0,2,2,0,0,0,.38-.07.7.7,0,0,0,.26-.12.17.17,0,0,0,.09-.14l-.15-3.62a.17.17,0,0,0-.09-.14,1.07,1.07,0,0,0-.26-.11l-.38-.07a3.48,3.48,0,0,0-.47,0Z"/><path class="cls-2" d="M153.09,185.22h-12.4l-.47,0-.38.08a1,1,0,0,0-.27.11c-.07,0-.11.08-.11.13l-.47,3.63a.15.15,0,0,0,.07.14.84.84,0,0,0,.25.11,1.8,1.8,0,0,0,.38.08,3.38,3.38,0,0,0,.47,0h12.69a3.38,3.38,0,0,0,.47,0,3,3,0,0,0,.39-.08.92.92,0,0,0,.26-.11c.07-.05.1-.09.1-.14l.18-3.63c0-.05,0-.09-.08-.13a.65.65,0,0,0-.25-.11,1.7,1.7,0,0,0-.37-.08l-.46,0Z"/><path class="cls-2" d="M136.53,185.22h-12.4a3.48,3.48,0,0,0-.47,0,2.09,2.09,0,0,0-.39.07,1.26,1.26,0,0,0-.28.11.29.29,0,0,0-.12.13l-.79,3.63a.14.14,0,0,0,.06.14.88.88,0,0,0,.24.12,2.56,2.56,0,0,0,.36.07,3.38,3.38,0,0,0,.47,0H135.9a3.64,3.64,0,0,0,.48,0,1.91,1.91,0,0,0,.39-.08,1.09,1.09,0,0,0,.28-.11.22.22,0,0,0,.12-.14l.5-3.63c0-.05,0-.09-.07-.13a.9.9,0,0,0-.24-.11,3,3,0,0,0-.37-.08l-.46,0Z"/><path class="cls-2" d="M120,185.22H107.57a3.33,3.33,0,0,0-.46,0l-.41.07a1.26,1.26,0,0,0-.28.11.24.24,0,0,0-.14.14l-1.12,3.62a.16.16,0,0,0,0,.14.55.55,0,0,0,.23.12,2.45,2.45,0,0,0,.36.08,3.38,3.38,0,0,0,.47,0H119a3.64,3.64,0,0,0,.48,0,2.21,2.21,0,0,0,.4-.07,1.55,1.55,0,0,0,.28-.12.25.25,0,0,0,.13-.14l.83-3.63a.13.13,0,0,0-.06-.13.7.7,0,0,0-.23-.11,1.64,1.64,0,0,0-.36-.07,3.09,3.09,0,0,0-.45,0Z"/><path class="cls-2" d="M103.42,185.22H91l-.47,0-.4.08a1.46,1.46,0,0,0-.3.11.28.28,0,0,0-.15.13l-1.44,3.63c0,.05,0,.09,0,.14a.68.68,0,0,0,.21.11,2.45,2.45,0,0,0,.36.08,3.13,3.13,0,0,0,.46,0H102a3.64,3.64,0,0,0,.48,0l.41-.08a.94.94,0,0,0,.3-.12.24.24,0,0,0,.14-.14l1.15-3.62s0-.09,0-.14a.74.74,0,0,0-.22-.11,2.15,2.15,0,0,0-.35-.07,3.19,3.19,0,0,0-.45,0Z"/><path class="cls-2" d="M86.86,185.23H74.46a3.75,3.75,0,0,0-.48,0,2.33,2.33,0,0,0-.41.07,1.58,1.58,0,0,0-.31.11.37.37,0,0,0-.16.13l-1.77,3.63a.12.12,0,0,0,0,.14.64.64,0,0,0,.21.12,2.15,2.15,0,0,0,.35.07,3.09,3.09,0,0,0,.45,0h12.7a3.64,3.64,0,0,0,.48,0,2.41,2.41,0,0,0,.42-.08,1.46,1.46,0,0,0,.3-.11.29.29,0,0,0,.15-.14l1.48-3.63a.1.1,0,0,0,0-.13.53.53,0,0,0-.2-.11,2.29,2.29,0,0,0-.35-.08l-.45,0Z"/><path class="cls-2" d="M285,190H251.43l-.46,0-.35.08a.47.47,0,0,0-.21.12.12.12,0,0,0,0,.14l1.75,3.82a.39.39,0,0,0,.16.15l.32.12.44.08a4.07,4.07,0,0,0,.5,0H288a3.38,3.38,0,0,0,.47,0,1.42,1.42,0,0,0,.34-.08.35.35,0,0,0,.19-.12s0-.09,0-.15l-2.47-3.82a.47.47,0,0,0-.18-.14,1.94,1.94,0,0,0-.34-.11,2.66,2.66,0,0,0-.44-.08,3.91,3.91,0,0,0-.49,0Z"/><path class="cls-2" d="M247.17,190.05H234.44a3.23,3.23,0,0,0-.46,0,1.6,1.6,0,0,0-.36.08.58.58,0,0,0-.21.11.14.14,0,0,0,0,.14l1.41,3.82a.27.27,0,0,0,.15.15,1,1,0,0,0,.31.12,2.41,2.41,0,0,0,.42.08,4.07,4.07,0,0,0,.5,0h13a3.38,3.38,0,0,0,.47,0,2.45,2.45,0,0,0,.36-.08.64.64,0,0,0,.21-.12.13.13,0,0,0,0-.15l-1.71-3.82a.32.32,0,0,0-.16-.14l-.31-.12-.43-.08-.48,0Z"/><path class="cls-2" d="M230.2,190.05H217.46a3.38,3.38,0,0,0-.47,0,2.45,2.45,0,0,0-.36.08.7.7,0,0,0-.23.11.17.17,0,0,0-.06.15l1.06,3.82a.31.31,0,0,0,.14.14,1.42,1.42,0,0,0,.3.13l.42.08a4,4,0,0,0,.5,0h13a3.38,3.38,0,0,0,.47,0,1.7,1.7,0,0,0,.37-.08.51.51,0,0,0,.22-.12.14.14,0,0,0,0-.15l-1.37-3.82s-.06-.09-.14-.14a1.27,1.27,0,0,0-.3-.11,2,2,0,0,0-.4-.08,3.64,3.64,0,0,0-.48,0Z"/><path class="cls-2" d="M213.19,190.05H200.47l-.47,0a2.61,2.61,0,0,0-.37.08.67.67,0,0,0-.24.12.15.15,0,0,0-.07.14l.72,3.82a.29.29,0,0,0,.13.15,1.7,1.7,0,0,0,.29.12,3.32,3.32,0,0,0,.41.08,3.64,3.64,0,0,0,.48,0h13a3.38,3.38,0,0,0,.47,0,2.49,2.49,0,0,0,.38-.08.89.89,0,0,0,.24-.13.12.12,0,0,0,.05-.14l-1-3.82a.32.32,0,0,0-.14-.15,1.18,1.18,0,0,0-.29-.11l-.41-.08a3.64,3.64,0,0,0-.48,0Z"/><path class="cls-2" d="M196.21,190.06H183.48a3.38,3.38,0,0,0-.47,0l-.38.07a1.17,1.17,0,0,0-.25.12.14.14,0,0,0-.08.14l.38,3.82c0,.06,0,.1.11.15a.81.81,0,0,0,.28.12l.4.08a3.91,3.91,0,0,0,.49,0h13a3.38,3.38,0,0,0,.47,0,2.49,2.49,0,0,0,.38-.08,1.17,1.17,0,0,0,.25-.12.18.18,0,0,0,.07-.15l-.69-3.82a.22.22,0,0,0-.12-.14.81.81,0,0,0-.28-.12l-.39-.08-.48,0Z"/><path class="cls-2" d="M179.22,190.06H166.49a3.38,3.38,0,0,0-.47,0,1.91,1.91,0,0,0-.39.08.92.92,0,0,0-.26.11c-.06.05-.09.09-.09.14l0,3.83a.17.17,0,0,0,.1.14.7.7,0,0,0,.26.12,2,2,0,0,0,.4.09,3.64,3.64,0,0,0,.48,0h13a3.68,3.68,0,0,0,.49,0,1.91,1.91,0,0,0,.39-.08.58.58,0,0,0,.25-.12.19.19,0,0,0,.09-.15l-.34-3.82a.24.24,0,0,0-.11-.14l-.27-.12-.4-.07a3.59,3.59,0,0,0-.47,0Z"/><path class="cls-2" d="M162.23,190.06H149.5a3.38,3.38,0,0,0-.47,0l-.4.08a.7.7,0,0,0-.26.12c-.07,0-.11.09-.11.14l-.31,3.82a.2.2,0,0,0,.09.15,1.17,1.17,0,0,0,.25.12l.39.08a3.68,3.68,0,0,0,.49,0h13a3.53,3.53,0,0,0,.48,0,2,2,0,0,0,.4-.09.7.7,0,0,0,.26-.12.17.17,0,0,0,.1-.14v-3.83s0-.09-.09-.14a1.07,1.07,0,0,0-.26-.11,3,3,0,0,0-.39-.08,3.38,3.38,0,0,0-.47,0Z"/><path class="cls-2" d="M145.24,190.06H132.51a3.64,3.64,0,0,0-.48,0,2.21,2.21,0,0,0-.4.07l-.28.12a.26.26,0,0,0-.12.14l-.64,3.82a.16.16,0,0,0,.07.15.67.67,0,0,0,.24.12,2,2,0,0,0,.38.08,3.64,3.64,0,0,0,.48,0h13.05a3.64,3.64,0,0,0,.48,0,3.13,3.13,0,0,0,.4-.08,1.55,1.55,0,0,0,.28-.12c.07-.05.11-.1.11-.15l.34-3.82a.14.14,0,0,0-.08-.14.73.73,0,0,0-.25-.12l-.38-.08a3.59,3.59,0,0,0-.47,0Z"/><path class="cls-2" d="M128.25,190.07H115.52a3.64,3.64,0,0,0-.48,0l-.41.08a1.36,1.36,0,0,0-.29.11c-.07.05-.11.09-.12.14l-1,3.83a.14.14,0,0,0,.06.14.54.54,0,0,0,.24.12,1.67,1.67,0,0,0,.37.09l.48,0h13a3.68,3.68,0,0,0,.49,0,2.29,2.29,0,0,0,.41-.08.87.87,0,0,0,.29-.12.22.22,0,0,0,.12-.15l.68-3.82a.13.13,0,0,0-.07-.14.7.7,0,0,0-.23-.11,1.85,1.85,0,0,0-.37-.08,3.48,3.48,0,0,0-.47,0Z"/><path class="cls-2" d="M111.26,190.07H98.52a3.75,3.75,0,0,0-.48,0l-.41.08a1,1,0,0,0-.3.12.31.31,0,0,0-.14.14l-1.33,3.82a.15.15,0,0,0,0,.15,1,1,0,0,0,.23.12,2.45,2.45,0,0,0,.36.08,3.38,3.38,0,0,0,.47,0H110l.49,0a2.59,2.59,0,0,0,.42-.09.87.87,0,0,0,.29-.12.24.24,0,0,0,.14-.14l1-3.83a.15.15,0,0,0-.06-.14.7.7,0,0,0-.23-.11,2.45,2.45,0,0,0-.36-.08,3.38,3.38,0,0,0-.47,0Z"/><path class="cls-2" d="M94.27,190.07H81.54a3.91,3.91,0,0,0-.49,0,2.63,2.63,0,0,0-.42.07,1.55,1.55,0,0,0-.31.12.29.29,0,0,0-.15.14l-1.68,3.82a.14.14,0,0,0,0,.15,1,1,0,0,0,.21.12,2.45,2.45,0,0,0,.36.08,3.23,3.23,0,0,0,.46,0h13a4,4,0,0,0,.5,0l.42-.08a2,2,0,0,0,.31-.12.35.35,0,0,0,.15-.15l1.38-3.82a.16.16,0,0,0,0-.14.57.57,0,0,0-.22-.12,2.45,2.45,0,0,0-.36-.08,3.33,3.33,0,0,0-.46,0Z"/><path class="cls-2" d="M70.57,185.23H46.33a3.75,3.75,0,0,0-.48,0l-.42.07a2.33,2.33,0,0,0-.32.11.47.47,0,0,0-.18.14l-2.32,3.63a.11.11,0,0,0,0,.14.37.37,0,0,0,.18.11,2,2,0,0,0,.33.08,3.23,3.23,0,0,0,.46,0H68.4a3.75,3.75,0,0,0,.48,0l.42-.07.32-.12a.32.32,0,0,0,.16-.14l1.8-3.63a.11.11,0,0,0,0-.13.48.48,0,0,0-.19-.11,1.57,1.57,0,0,0-.34-.07,3.09,3.09,0,0,0-.45,0Z"/><path class="cls-2" d="M76.59,190.08H43.26l-.49,0-.44.08a1.27,1.27,0,0,0-.33.12.49.49,0,0,0-.19.14l-2.44,3.82a.12.12,0,0,0,0,.15.46.46,0,0,0,.18.12,2.14,2.14,0,0,0,.34.08,3.38,3.38,0,0,0,.47,0H74.5a4.07,4.07,0,0,0,.5,0,2.54,2.54,0,0,0,.43-.08,1.07,1.07,0,0,0,.32-.12.52.52,0,0,0,.17-.15l1.72-3.82a.12.12,0,0,0,0-.14,1,1,0,0,0-.21-.12,1.44,1.44,0,0,0-.35-.07,3.23,3.23,0,0,0-.46,0Z"/><path class="cls-2" d="M53.05,195.19H40a4.07,4.07,0,0,0-.5,0,2.6,2.6,0,0,0-.45.08,1.3,1.3,0,0,0-.35.12.55.55,0,0,0-.2.15l-2.57,4a.12.12,0,0,0,0,.16.35.35,0,0,0,.19.12,1.45,1.45,0,0,0,.36.09,3.38,3.38,0,0,0,.47,0H50.32a4.41,4.41,0,0,0,.52,0,2.75,2.75,0,0,0,.45-.09,1.42,1.42,0,0,0,.35-.13.4.4,0,0,0,.18-.15l2.27-4a.12.12,0,0,0,0-.15.46.46,0,0,0-.2-.13,2,2,0,0,0-.35-.08,3.38,3.38,0,0,0-.47,0Z"/><path class="cls-2" d="M70.48,195.19h-13a4.07,4.07,0,0,0-.5,0l-.44.08a1.51,1.51,0,0,0-.33.13.35.35,0,0,0-.18.15l-2.22,4a.14.14,0,0,0,0,.15.42.42,0,0,0,.21.13,1.36,1.36,0,0,0,.35.09,3.53,3.53,0,0,0,.48,0H68.18a4.06,4.06,0,0,0,.51,0,4.12,4.12,0,0,0,.45-.08,1.75,1.75,0,0,0,.33-.13.37.37,0,0,0,.17-.15l1.9-4s0-.1,0-.15a.7.7,0,0,0-.2-.12,2.45,2.45,0,0,0-.36-.08,3.38,3.38,0,0,0-.47,0Z"/><path class="cls-2" d="M87.84,195.18h-13a3.84,3.84,0,0,0-.5,0l-.44.08-.33.12a.39.39,0,0,0-.16.15l-1.86,4a.11.11,0,0,0,0,.15.51.51,0,0,0,.21.13,2.61,2.61,0,0,0,.37.08,3.6,3.6,0,0,0,.49,0H86a4.24,4.24,0,0,0,.51,0l.43-.08a1.41,1.41,0,0,0,.32-.13.31.31,0,0,0,.16-.16l1.54-4a.13.13,0,0,0,0-.15.45.45,0,0,0-.22-.12,1.2,1.2,0,0,0-.36-.08,3.3,3.3,0,0,0-.47,0Z"/><path class="cls-2" d="M109.14,195.18h-17a3.74,3.74,0,0,0-.49,0,1.83,1.83,0,0,0-.43.08,1.11,1.11,0,0,0-.31.12.35.35,0,0,0-.15.15l-1.5,4a.14.14,0,0,0,0,.16.55.55,0,0,0,.22.13,2.49,2.49,0,0,0,.38.08,3.43,3.43,0,0,0,.48,0h17.4a4.12,4.12,0,0,0,.51,0,2.38,2.38,0,0,0,.42-.09,1.31,1.31,0,0,0,.31-.13.25.25,0,0,0,.14-.15l1.1-4a.14.14,0,0,0-.06-.14.7.7,0,0,0-.23-.13,2.61,2.61,0,0,0-.37-.08,3.64,3.64,0,0,0-.48,0Z"/><path class="cls-2" d="M218.44,195.16h-17a3.64,3.64,0,0,0-.48,0,2,2,0,0,0-.38.08.6.6,0,0,0-.24.12.15.15,0,0,0-.07.15l.76,4a.27.27,0,0,0,.13.16,1.24,1.24,0,0,0,.3.12,2.2,2.2,0,0,0,.42.09,3.84,3.84,0,0,0,.5,0h17.39a3.68,3.68,0,0,0,.49,0,1.63,1.63,0,0,0,.38-.09.66.66,0,0,0,.24-.13.14.14,0,0,0,0-.15l-1.16-4a.29.29,0,0,0-.14-.15,1.42,1.42,0,0,0-.3-.13l-.42-.08a3.91,3.91,0,0,0-.49,0Z"/><path class="cls-2" d="M236.16,195.16H223.09a3.38,3.38,0,0,0-.47,0,2.78,2.78,0,0,0-.38.08.7.7,0,0,0-.23.13.17.17,0,0,0,0,.15l1.2,4a.35.35,0,0,0,.15.15,1.52,1.52,0,0,0,.31.13,2.63,2.63,0,0,0,.44.09,4.12,4.12,0,0,0,.51,0H238a3.53,3.53,0,0,0,.48,0,2.33,2.33,0,0,0,.37-.08.61.61,0,0,0,.23-.13.16.16,0,0,0,0-.16l-1.53-4a.35.35,0,0,0-.15-.15l-.32-.12-.42-.08a4.07,4.07,0,0,0-.5,0Z"/><path class="cls-2" d="M197.09,195.17H113.41a4,4,0,0,0-.5,0l-.41.08a1.22,1.22,0,0,0-.3.13.27.27,0,0,0-.14.14l-1.06,4a.16.16,0,0,0,.06.15.66.66,0,0,0,.24.13,1.93,1.93,0,0,0,.38.09,3.68,3.68,0,0,0,.49,0l85.75,0a3.79,3.79,0,0,0,.49,0,1.87,1.87,0,0,0,.39-.09.91.91,0,0,0,.26-.12.18.18,0,0,0,.07-.16l-.72-4a.26.26,0,0,0-.13-.15.87.87,0,0,0-.29-.12,2.29,2.29,0,0,0-.41-.08,3.79,3.79,0,0,0-.49,0Z"/><path class="cls-2" d="M63.78,176.24H52a3.29,3.29,0,0,0-.45,0c-.14,0-.28,0-.4.06l-.3.1a.4.4,0,0,0-.17.13l-2.1,3.28a.09.09,0,0,0,0,.12.5.5,0,0,0,.18.11,2,2,0,0,0,.32.06,2.81,2.81,0,0,0,.43,0H61.56a3.44,3.44,0,0,0,.46,0,2.33,2.33,0,0,0,.41-.07,1.89,1.89,0,0,0,.31-.1.36.36,0,0,0,.16-.13l1.83-3.28a.09.09,0,0,0,0-.12.48.48,0,0,0-.19-.1,1.73,1.73,0,0,0-.32-.07l-.42,0Z"/><path class="cls-2" d="M265.39,173.54H252.56l-.41,0a1.73,1.73,0,0,0-.32.07.48.48,0,0,0-.19.1.08.08,0,0,0,0,.11l.85,1.67a.49.49,0,0,0,.15.12,1.63,1.63,0,0,0,.29.1l.39.07.45,0h13a2.67,2.67,0,0,0,.42,0,1.3,1.3,0,0,0,.32-.06.37.37,0,0,0,.18-.1s.05-.08,0-.12l-1-1.67a.44.44,0,0,0-.16-.12,1.66,1.66,0,0,0-.29-.09l-.39-.07-.45,0Z"/><path class="cls-2" d="M99.19,173.57H86.35l-.44,0-.38.07a1.32,1.32,0,0,0-.28.09.35.35,0,0,0-.14.12l-.75,1.67s0,.08,0,.12a.48.48,0,0,0,.19.1,2.09,2.09,0,0,0,.33.07l.42,0h13a3.15,3.15,0,0,0,.44,0c.14,0,.27,0,.39-.06a2,2,0,0,0,.27-.1.29.29,0,0,0,.14-.12l.6-1.67s0-.08,0-.12a.63.63,0,0,0-.2-.09,2.36,2.36,0,0,0-.33-.07l-.42,0Z"/><path class="cls-2" d="M82.56,173.57H69.74a3.19,3.19,0,0,0-.45,0,2.28,2.28,0,0,0-.39.06,1.63,1.63,0,0,0-.29.1.27.27,0,0,0-.15.11l-.91,1.67a.11.11,0,0,0,0,.12.5.5,0,0,0,.18.1,1.8,1.8,0,0,0,.31.07l.42,0h13l.45,0a3.45,3.45,0,0,0,.39-.07,1.39,1.39,0,0,0,.29-.1.35.35,0,0,0,.14-.12l.77-1.67s0-.08,0-.12a.42.42,0,0,0-.19-.09,1.73,1.73,0,0,0-.32-.07l-.42,0Z"/><path class="cls-2" d="M274.7,173.54h-6.11l-.33,0a1.22,1.22,0,0,0-.25.05.35.35,0,0,0-.15.08.07.07,0,0,0,0,.09l1.07,1.79a.28.28,0,0,0,.13.1l.24.08.32.05.36,0h6.19l.34,0a1.31,1.31,0,0,0,.25-.06.3.3,0,0,0,.14-.07.08.08,0,0,0,0-.1l-1.16-1.79a.24.24,0,0,0-.13-.1l-.24-.07-.31-.05a2.17,2.17,0,0,0-.36,0Z"/><path class="cls-2" d="M254.54,197.44H240.81a2.38,2.38,0,0,0-.39,0,1.84,1.84,0,0,0-.29.06.5.5,0,0,0-.17.1.12.12,0,0,0,0,.12l.74,1.9s.06.09.12.13a1.28,1.28,0,0,0,.26.1l.35.07a2.68,2.68,0,0,0,.4,0h13.92l.38,0a1.67,1.67,0,0,0,.3-.07.85.85,0,0,0,.17-.1.12.12,0,0,0,0-.13l-.89-1.9a.31.31,0,0,0-.13-.12,1.28,1.28,0,0,0-.26-.1l-.35-.07-.41,0Z"/><path class="cls-2" d="M272.4,197.44H258.66l-.38,0a1.77,1.77,0,0,0-.29.07.45.45,0,0,0-.17.1.11.11,0,0,0,0,.12l.91,1.9a.3.3,0,0,0,.14.13l.26.1.36.07.41,0h13.91a2.17,2.17,0,0,0,.38,0,1,1,0,0,0,.28-.07.38.38,0,0,0,.17-.1.11.11,0,0,0,0-.12l-1.06-1.9a.29.29,0,0,0-.14-.12,1.69,1.69,0,0,0-.27-.1l-.36-.07-.4,0Z"/><path class="cls-2" d="M271,195H257.46a2.13,2.13,0,0,0-.37,0,1,1,0,0,0-.28.06.38.38,0,0,0-.17.1.1.1,0,0,0,0,.12l.89,1.85a.31.31,0,0,0,.13.12,1.28,1.28,0,0,0,.26.1,2,2,0,0,0,.35.06,2.73,2.73,0,0,0,.41,0H272.4a2.13,2.13,0,0,0,.37,0,1.49,1.49,0,0,0,.28-.06.44.44,0,0,0,.16-.1.09.09,0,0,0,0-.12l-1-1.86a.35.35,0,0,0-.14-.12l-.27-.09-.35-.07-.4,0Z"/><path class="cls-2" d="M290,197.43H276.29l-.37,0a1.42,1.42,0,0,0-.28.07.34.34,0,0,0-.16.1.09.09,0,0,0,0,.12l1.08,1.9a.32.32,0,0,0,.15.12,1.39,1.39,0,0,0,.27.1l.37.07a2.6,2.6,0,0,0,.4,0h13.92l.37,0a1.26,1.26,0,0,0,.28-.07.34.34,0,0,0,.16-.1.12.12,0,0,0,0-.13l-1.23-1.89a.43.43,0,0,0-.16-.13,1.54,1.54,0,0,0-.28-.09,1.91,1.91,0,0,0-.36-.07,2.73,2.73,0,0,0-.41,0Z"/></g><g id="conference"><path class="cls-17" d="M278.94,17.14V21H50.62v-3.9c0-4.56,3.15-8.27,8.54-8.27H270.4C276.08,8.87,278.94,11.73,278.94,17.14Z"/><circle class="cls-18" cx="249.75" cy="14.96" r="2.3"/><circle class="cls-19" cx="258.01" cy="14.96" r="2.3"/><path class="cls-20" d="M268.58,15a2.3,2.3,0,1,1-2.3-2.3A2.3,2.3,0,0,1,268.58,15Z"/></g></g></svg>