<svg xmlns="http://www.w3.org/2000/svg" xmlns:xlink="http://www.w3.org/1999/xlink" viewBox="0 0 192.88 123.95"><defs><style>.cls-1{fill:#00176a;}.cls-2{fill:none;}.cls-3{fill:#e0d7d7;}.cls-4{fill:#ff6e00;}.cls-5{fill:#f0f1f5;}.cls-6{isolation:isolate;}.cls-7{fill:#171721;}.cls-8{clip-path:url(#clip-path);}.cls-9{fill:#6467f1;}.cls-10{fill:#22222d;}.cls-11{fill:#2f2f2f;}.cls-12{fill:#898989;}.cls-13{fill:#fff;}.cls-14{clip-path:url(#clip-path-2);}.cls-15{fill:#17171e;}.cls-16{clip-path:url(#clip-path-3);}.cls-17{clip-path:url(#clip-path-4);}.cls-18{fill:#363644;}.cls-19{fill:#2dd9f1;}.cls-20{fill:#039db1;}.cls-21{clip-path:url(#clip-path-5);}.cls-22{clip-path:url(#clip-path-6);}.cls-23{fill:#fcac0c;}.cls-24{clip-path:url(#clip-path-7);}.cls-25{fill:#1c1c25;}.cls-26{fill:#1a1a23;}.cls-27{clip-path:url(#clip-path-8);}.cls-28{fill:#1d1d27;}.cls-29{clip-path:url(#clip-path-9);}.cls-30{clip-path:url(#clip-path-10);}.cls-31{clip-path:url(#clip-path-11);}.cls-32{clip-path:url(#clip-path-12);}.cls-33{clip-path:url(#clip-path-13);}.cls-34{clip-path:url(#clip-path-14);}.cls-35{clip-path:url(#clip-path-15);}.cls-36{clip-path:url(#clip-path-16);}.cls-37{clip-path:url(#clip-path-17);}.cls-38{clip-path:url(#clip-path-18);}.cls-39{clip-path:url(#clip-path-19);}.cls-40{clip-path:url(#clip-path-20);}.cls-41{clip-path:url(#clip-path-21);}.cls-42{clip-path:url(#clip-path-22);}.cls-43{clip-path:url(#clip-path-23);}.cls-44{clip-path:url(#clip-path-24);}.cls-45{clip-path:url(#clip-path-25);}.cls-46{clip-path:url(#clip-path-26);}.cls-47{clip-path:url(#clip-path-27);}.cls-48{clip-path:url(#clip-path-28);}.cls-49{clip-path:url(#clip-path-29);}.cls-50{clip-path:url(#clip-path-30);}.cls-51{clip-path:url(#clip-path-31);}.cls-52{clip-path:url(#clip-path-32);}.cls-53{clip-path:url(#clip-path-33);}.cls-54{clip-path:url(#clip-path-34);}.cls-55{fill:#c22e24;}.cls-56{fill:#ff4233;}.cls-57{clip-path:url(#clip-path-35);}.cls-58{clip-path:url(#clip-path-36);}.cls-59{fill:#e1e1e1;}.cls-60{clip-path:url(#clip-path-37);}.cls-61{clip-path:url(#clip-path-38);}.cls-62{clip-path:url(#clip-path-39);}.cls-63{clip-path:url(#clip-path-40);}.cls-64{clip-path:url(#clip-path-41);}.cls-65{clip-path:url(#clip-path-42);}.cls-66{clip-path:url(#clip-path-43);}.cls-67{clip-path:url(#clip-path-44);}.cls-68{clip-path:url(#clip-path-45);}.cls-69{clip-path:url(#clip-path-46);}.cls-70{clip-path:url(#clip-path-47);}.cls-71{clip-path:url(#clip-path-48);}.cls-72{clip-path:url(#clip-path-49);}.cls-73{clip-path:url(#clip-path-50);}.cls-74{clip-path:url(#clip-path-51);}.cls-75{fill:#0d0d12;}.cls-76{fill:#15151f;}.cls-77{fill:#121219;}.cls-78{fill:#14141c;}.cls-79{fill:#0c0c12;}.cls-80{fill:#020f16;}.cls-81{fill:#baa400;}.cls-82,.cls-83,.cls-86,.cls-87,.cls-90,.cls-91,.cls-94,.cls-95{mix-blend-mode:color-dodge;}.cls-82{fill:url(#radial-gradient);}.cls-83{fill:url(#radial-gradient-2);}.cls-84{fill:#0d042c;}.cls-85{fill:#3fc300;}.cls-86{fill:url(#radial-gradient-3);}.cls-87{fill:url(#radial-gradient-4);}.cls-88{fill:#091602;}.cls-89{fill:#ba3500;}.cls-90{fill:url(#radial-gradient-5);}.cls-91{fill:url(#radial-gradient-6);}.cls-92{fill:#161216;}.cls-93{fill:#93baa8;}.cls-94{fill:url(#radial-gradient-7);}.cls-95{fill:url(#radial-gradient-8);}</style><clipPath id="clip-path"><path class="cls-1" d="M192.88,28.83l0,10.33a3,3,0,0,1-1.73,2.42l0-10.33A3,3,0,0,0,192.88,28.83Z"/></clipPath><clipPath id="clip-path-2"><polygon class="cls-2" points="188.62 35.28 68.81 104.91 37.81 87.01 157.62 17.39 188.62 35.28"/></clipPath><clipPath id="clip-path-3"><path class="cls-1" d="M0,95.53,0,85.21C0,87,1.2,88.76,3.54,90.11l0,10.33C1.17,99.09,0,97.31,0,95.53Z"/></clipPath><clipPath id="clip-path-4"><path class="cls-1" d="M51.23,112.57l0,10.32a9.68,9.68,0,0,1-8.8,0l0-10.33A9.71,9.71,0,0,0,51.23,112.57Z"/></clipPath><clipPath id="clip-path-5"><path class="cls-4" d="M77.74,57.34V58a.76.76,0,0,1-.45.63V58A.77.77,0,0,0,77.74,57.34Z"/></clipPath><clipPath id="clip-path-6"><path class="cls-4" d="M72.15,59.42v-.65a.77.77,0,0,0,.46.64,2.44,2.44,0,0,0,2.2,0v.65a2.42,2.42,0,0,1-2.19,0A.78.78,0,0,1,72.15,59.42Z"/></clipPath><clipPath id="clip-path-7"><path class="cls-2" d="M71.63,60.89v.64a.79.79,0,0,1-.45.64v-.65A.76.76,0,0,0,71.63,60.89Z"/></clipPath><clipPath id="clip-path-8"><path class="cls-2" d="M66,63v-.65a.75.75,0,0,0,.46.64,2.42,2.42,0,0,0,2.19,0v.65a2.44,2.44,0,0,1-2.2,0A.79.79,0,0,1,66,63Z"/></clipPath><clipPath id="clip-path-9"><path class="cls-2" d="M65.52,64.44v.65a.77.77,0,0,1-.45.63v-.65A.76.76,0,0,0,65.52,64.44Z"/></clipPath><clipPath id="clip-path-10"><path class="cls-2" d="M59.93,66.52v-.65a.79.79,0,0,0,.45.65,2.44,2.44,0,0,0,2.2,0v.64a2.44,2.44,0,0,1-2.2,0A.75.75,0,0,1,59.93,66.52Z"/></clipPath><clipPath id="clip-path-11"><path class="cls-2" d="M59.4,68v.65a.76.76,0,0,1-.45.63v-.65A.76.76,0,0,0,59.4,68Z"/></clipPath><clipPath id="clip-path-12"><path class="cls-2" d="M53.81,70.07v-.64a.76.76,0,0,0,.45.64,2.44,2.44,0,0,0,2.2,0v.64a2.44,2.44,0,0,1-2.2,0A.79.79,0,0,1,53.81,70.07Z"/></clipPath><clipPath id="clip-path-13"><path class="cls-2" d="M123.27,19.57v.55a.66.66,0,0,1-.38.53V20.1A.65.65,0,0,0,123.27,19.57Z"/></clipPath><clipPath id="clip-path-14"><path class="cls-2" d="M118.52,21.33v-.54a.67.67,0,0,0,.39.54,2.06,2.06,0,0,0,1.87,0v.55a2.06,2.06,0,0,1-1.87,0A.67.67,0,0,1,118.52,21.33Z"/></clipPath><clipPath id="clip-path-15"><path class="cls-2" d="M118.08,22.58v.55a.66.66,0,0,1-.38.54v-.55A.66.66,0,0,0,118.08,22.58Z"/></clipPath><clipPath id="clip-path-16"><path class="cls-2" d="M113.33,24.35V23.8a.67.67,0,0,0,.39.55,2.09,2.09,0,0,0,1.87,0v.55a2.12,2.12,0,0,1-1.87,0A.67.67,0,0,1,113.33,24.35Z"/></clipPath><clipPath id="clip-path-17"><path class="cls-2" d="M112.89,25.6v.55a.65.65,0,0,1-.38.54v-.55A.65.65,0,0,0,112.89,25.6Z"/></clipPath><clipPath id="clip-path-18"><path class="cls-2" d="M108.14,27.37v-.55a.67.67,0,0,0,.39.55,2.1,2.1,0,0,0,1.86,0v.54a2,2,0,0,1-1.86,0A.65.65,0,0,1,108.14,27.37Z"/></clipPath><clipPath id="clip-path-19"><path class="cls-2" d="M127.19,22v.55a.65.65,0,0,1-.39.54v-.55A.66.66,0,0,0,127.19,22Z"/></clipPath><clipPath id="clip-path-20"><path class="cls-2" d="M122.44,23.76v-.55a.67.67,0,0,0,.39.55,2.12,2.12,0,0,0,1.87,0v.54a2,2,0,0,1-1.86,0A.65.65,0,0,1,122.44,23.76Z"/></clipPath><clipPath id="clip-path-21"><path class="cls-2" d="M122,25v.55a.65.65,0,0,1-.38.54v-.55A.67.67,0,0,0,122,25Z"/></clipPath><clipPath id="clip-path-22"><path class="cls-2" d="M117.25,26.78v-.55a.65.65,0,0,0,.39.54,2,2,0,0,0,1.86,0v.55a2.06,2.06,0,0,1-1.87,0A.67.67,0,0,1,117.25,26.78Z"/></clipPath><clipPath id="clip-path-23"><path class="cls-2" d="M116.8,28v.55a.66.66,0,0,1-.38.53v-.55A.63.63,0,0,0,116.8,28Z"/></clipPath><clipPath id="clip-path-24"><path class="cls-2" d="M112.05,29.79v-.54a.63.63,0,0,0,.38.54,2.06,2.06,0,0,0,1.87,0v.55a2.06,2.06,0,0,1-1.87,0A.67.67,0,0,1,112.05,29.79Z"/></clipPath><clipPath id="clip-path-25"><path class="cls-2" d="M131.39,24.46V25a.66.66,0,0,1-.38.54V25A.66.66,0,0,0,131.39,24.46Z"/></clipPath><clipPath id="clip-path-26"><path class="cls-2" d="M126.64,26.23v-.55a.67.67,0,0,0,.39.55,2.09,2.09,0,0,0,1.87,0v.55a2.12,2.12,0,0,1-1.87,0A.67.67,0,0,1,126.64,26.23Z"/></clipPath><clipPath id="clip-path-27"><path class="cls-2" d="M126.2,27.48V28a.67.67,0,0,1-.38.54V28A.66.66,0,0,0,126.2,27.48Z"/></clipPath><clipPath id="clip-path-28"><path class="cls-2" d="M121.45,29.25V28.7a.64.64,0,0,0,.39.54,2.06,2.06,0,0,0,1.87,0v.55a2.06,2.06,0,0,1-1.87,0A.65.65,0,0,1,121.45,29.25Z"/></clipPath><clipPath id="clip-path-29"><path class="cls-2" d="M121,30.5v.55a.64.64,0,0,1-.39.53V31A.67.67,0,0,0,121,30.5Z"/></clipPath><clipPath id="clip-path-30"><path class="cls-2" d="M116.26,32.27v-.55a.67.67,0,0,0,.39.54,2.06,2.06,0,0,0,1.87,0v.55a2,2,0,0,1-1.86,0A.67.67,0,0,1,116.26,32.27Z"/></clipPath><clipPath id="clip-path-31"><path class="cls-2" d="M60.4,56.89l0,1.41a2.24,2.24,0,0,1-1.31,1.84,7.08,7.08,0,0,1-6.4,0,2.27,2.27,0,0,1-1.34-1.86l0-1.42a2.27,2.27,0,0,0,1.33,1.87,7.08,7.08,0,0,0,6.4,0A2.25,2.25,0,0,0,60.4,56.89Z"/></clipPath><clipPath id="clip-path-32"><path class="cls-2" d="M70.22,51.21l0,1.41a2.27,2.27,0,0,1-1.32,1.85,7.08,7.08,0,0,1-6.4,0,2.25,2.25,0,0,1-1.33-1.87l0-1.41a2.25,2.25,0,0,0,1.34,1.86,7,7,0,0,0,6.39,0A2.24,2.24,0,0,0,70.22,51.21Z"/></clipPath><clipPath id="clip-path-33"><path class="cls-3" d="M133,13.57l0,1.29a2.08,2.08,0,0,1-1.21,1.69,6.47,6.47,0,0,1-5.86,0,2.08,2.08,0,0,1-1.22-1.71l0-1.29A2.1,2.1,0,0,0,126,15.26a6.45,6.45,0,0,0,5.85,0A2,2,0,0,0,133,13.57Z"/></clipPath><clipPath id="clip-path-34"><path class="cls-2" d="M142,18.93l0,1.29a2.05,2.05,0,0,1-1.2,1.69,6.44,6.44,0,0,1-5.86,0,2,2,0,0,1-1.22-1.71l0-1.29a2.06,2.06,0,0,0,1.22,1.71,6.5,6.5,0,0,0,5.86,0A2.1,2.1,0,0,0,142,18.93Z"/></clipPath><clipPath id="clip-path-35"><path class="cls-2" d="M56.12,101.64l0,2a3.1,3.1,0,0,1-1.81,2.54,9.72,9.72,0,0,1-8.82,0,3.12,3.12,0,0,1-1.84-2.57l0-2a3.12,3.12,0,0,0,1.84,2.57,9.72,9.72,0,0,0,8.82,0A3.08,3.08,0,0,0,56.12,101.64Z"/></clipPath><clipPath id="clip-path-36"><path class="cls-2" d="M41.76,93.53l0,1.94A3.1,3.1,0,0,1,39.92,98a9.72,9.72,0,0,1-8.82,0,3.12,3.12,0,0,1-1.84-2.57l0-2a3.1,3.1,0,0,0,1.84,2.57,9.7,9.7,0,0,0,8.81,0A3.08,3.08,0,0,0,41.76,93.53Z"/></clipPath><clipPath id="clip-path-37"><path class="cls-2" d="M35.46,68.86v3.06a.83.83,0,0,1-.48.67,2.56,2.56,0,0,1-2.32,0,.83.83,0,0,1-.48-.68v-3a.79.79,0,0,0,.48.67,2.56,2.56,0,0,0,2.32,0A.8.8,0,0,0,35.46,68.86Z"/></clipPath><clipPath id="clip-path-38"><path class="cls-2" d="M41.88,65.16v3a.81.81,0,0,1-.47.67,2.56,2.56,0,0,1-2.32,0,.81.81,0,0,1-.49-.67V65.15a.84.84,0,0,0,.48.68,2.58,2.58,0,0,0,2.33,0A.83.83,0,0,0,41.88,65.16Z"/></clipPath><clipPath id="clip-path-39"><path class="cls-2" d="M48.31,61.54v3.05a.8.8,0,0,1-.48.67,2.56,2.56,0,0,1-2.32,0,.81.81,0,0,1-.48-.67V61.53a.82.82,0,0,0,.48.68,2.56,2.56,0,0,0,2.32,0A.83.83,0,0,0,48.31,61.54Z"/></clipPath><clipPath id="clip-path-40"><path class="cls-2" d="M42.5,69.34v3a.8.8,0,0,1-.48.67,2.56,2.56,0,0,1-2.32,0,.81.81,0,0,1-.48-.67V69.33a.84.84,0,0,0,.48.68A2.56,2.56,0,0,0,42,70,.83.83,0,0,0,42.5,69.34Z"/></clipPath><clipPath id="clip-path-41"><path class="cls-2" d="M48.92,65.63v3.06a.85.85,0,0,1-.48.67,2.56,2.56,0,0,1-2.32,0,.83.83,0,0,1-.49-.68V65.62a.82.82,0,0,0,.49.68,2.56,2.56,0,0,0,2.32,0A.83.83,0,0,0,48.92,65.63Z"/></clipPath><clipPath id="clip-path-42"><path class="cls-5" d="M35.14,80.82v.37a.43.43,0,0,1-.26.36v-.37A.43.43,0,0,0,35.14,80.82Z"/></clipPath><clipPath id="clip-path-43"><path class="cls-5" d="M32,82v-.37a.45.45,0,0,0,.26.37,1.37,1.37,0,0,0,1.26,0v.37a1.38,1.38,0,0,1-1.25,0A.43.43,0,0,1,32,82Z"/></clipPath><clipPath id="clip-path-44"><path class="cls-5" d="M28.6,81v.37a.43.43,0,0,1-.25.36v-.37A.43.43,0,0,0,28.6,81Z"/></clipPath><clipPath id="clip-path-45"><path class="cls-5" d="M25.41,82.19v-.37a.45.45,0,0,0,.26.37,1.4,1.4,0,0,0,1.26,0v.37a1.4,1.4,0,0,1-1.26,0A.46.46,0,0,1,25.41,82.19Z"/></clipPath><clipPath id="clip-path-46"><path class="cls-5" d="M18.72,79.51v.37a.47.47,0,0,1-.26.36v-.37A.45.45,0,0,0,18.72,79.51Z"/></clipPath><clipPath id="clip-path-47"><path class="cls-5" d="M15.52,80.7v-.37a.45.45,0,0,0,.26.37,1.4,1.4,0,0,0,1.26,0v.37a1.4,1.4,0,0,1-1.26,0A.46.46,0,0,1,15.52,80.7Z"/></clipPath><clipPath id="clip-path-48"><path class="cls-5" d="M23.75,86.38v.37a.45.45,0,0,1-.26.36v-.37A.45.45,0,0,0,23.75,86.38Z"/></clipPath><clipPath id="clip-path-49"><path class="cls-5" d="M20.56,87.57V87.2a.44.44,0,0,0,.26.37,1.38,1.38,0,0,0,1.25,0v.37a1.38,1.38,0,0,1-1.25,0A.42.42,0,0,1,20.56,87.57Z"/></clipPath><clipPath id="clip-path-50"><path class="cls-5" d="M13.22,84.35v.37a.43.43,0,0,1-.25.36v-.37A.43.43,0,0,0,13.22,84.35Z"/></clipPath><clipPath id="clip-path-51"><path class="cls-5" d="M10,85.54v-.37a.46.46,0,0,0,.26.37,1.4,1.4,0,0,0,1.26,0v.37a1.4,1.4,0,0,1-1.26,0A.44.44,0,0,1,10,85.54Z"/></clipPath><radialGradient id="radial-gradient" cx="-6007.5" cy="454.65" r="7.78" gradientTransform="matrix(-0.87, -0.5, -0.87, 0.5, -4741.45, -3173.31)" gradientUnits="userSpaceOnUse"><stop offset="0.24" stop-color="#584e00"/><stop offset="0.37" stop-color="#433b00"/><stop offset="0.62" stop-color="#1f1b00"/><stop offset="0.83" stop-color="#080700"/><stop offset="0.97"/></radialGradient><radialGradient id="radial-gradient-2" cx="-6007.5" cy="454.65" r="1.67" gradientTransform="matrix(-0.87, -0.5, -0.87, 0.5, -4741.45, -3173.31)" gradientUnits="userSpaceOnUse"><stop offset="0.22" stop-color="#ffe200"/><stop offset="0.31" stop-color="#d9c100"/><stop offset="0.49" stop-color="#8d7d00"/><stop offset="0.66" stop-color="#504700"/><stop offset="0.8" stop-color="#252100"/><stop offset="0.9" stop-color="#0a0900"/><stop offset="0.97"/></radialGradient><radialGradient id="radial-gradient-3" cx="-6007.5" cy="458.06" r="7.79" gradientTransform="matrix(-0.87, -0.5, -0.87, 0.5, -4741.45, -3173.31)" gradientUnits="userSpaceOnUse"><stop offset="0.24" stop-color="#236e00"/><stop offset="0.45" stop-color="#154300"/><stop offset="0.68" stop-color="#0a1f00"/><stop offset="0.85" stop-color="#030800"/><stop offset="0.97"/></radialGradient><radialGradient id="radial-gradient-4" cx="-6007.5" cy="458.06" r="1.67" gradientTransform="matrix(-0.87, -0.5, -0.87, 0.5, -4741.45, -3173.31)" gradientUnits="userSpaceOnUse"><stop offset="0.22" stop-color="#5cff11"/><stop offset="0.31" stop-color="#4ed90e"/><stop offset="0.49" stop-color="#338d09"/><stop offset="0.66" stop-color="#1d5005"/><stop offset="0.8" stop-color="#0d2502"/><stop offset="0.9" stop-color="#040a01"/><stop offset="0.97"/></radialGradient><radialGradient id="radial-gradient-5" cx="-6007.5" cy="461.47" r="7.79" gradientTransform="matrix(-0.87, -0.5, -0.87, 0.5, -4741.45, -3173.31)" gradientUnits="userSpaceOnUse"><stop offset="0.24" stop-color="#581900"/><stop offset="0.37" stop-color="#431300"/><stop offset="0.62" stop-color="#1f0900"/><stop offset="0.83" stop-color="#080200"/><stop offset="0.97"/></radialGradient><radialGradient id="radial-gradient-6" cx="-6007.5" cy="461.47" r="1.67" gradientTransform="matrix(-0.87, -0.5, -0.87, 0.5, -4741.45, -3173.31)" gradientUnits="userSpaceOnUse"><stop offset="0.22" stop-color="#ff4900"/><stop offset="0.31" stop-color="#d93e00"/><stop offset="0.49" stop-color="#8d2800"/><stop offset="0.66" stop-color="#501700"/><stop offset="0.8" stop-color="#250b00"/><stop offset="0.9" stop-color="#0a0300"/><stop offset="0.97"/></radialGradient><radialGradient id="radial-gradient-7" cx="-6007.5" cy="464.88" r="7.78" gradientTransform="matrix(-0.87, -0.5, -0.87, 0.5, -4741.45, -3173.31)" gradientUnits="userSpaceOnUse"><stop offset="0.24" stop-color="#46584f"/><stop offset="0.37" stop-color="#35433c"/><stop offset="0.62" stop-color="#181f1b"/><stop offset="0.83" stop-color="#070807"/><stop offset="0.97"/></radialGradient><radialGradient id="radial-gradient-8" cx="-6007.5" cy="464.87" r="1.67" gradientTransform="matrix(-0.87, -0.5, -0.87, 0.5, -4741.45, -3173.31)" gradientUnits="userSpaceOnUse"><stop offset="0.22" stop-color="#c9ffe6"/><stop offset="0.31" stop-color="#abd9c4"/><stop offset="0.49" stop-color="#6f8d7f"/><stop offset="0.66" stop-color="#3f5049"/><stop offset="0.8" stop-color="#1d2521"/><stop offset="0.9" stop-color="#080a09"/><stop offset="0.97"/></radialGradient></defs><g class="cls-6"><g id="Layer_2" data-name="Layer 2"><g id="Layer_1-2" data-name="Layer 1"><polygon class="cls-7" points="157.64 14.82 157.61 25.14 136.87 13.17 136.9 2.84 157.64 14.82"/><path class="cls-1" d="M192.88,28.83l0,10.33a3,3,0,0,1-1.73,2.42l0-10.33A3,3,0,0,0,192.88,28.83Z"/><g class="cls-8"><g class="cls-6"><path class="cls-1" d="M192.88,28.83l0,10.33a2.33,2.33,0,0,1-.63,1.54l0-10.32a2.34,2.34,0,0,0,.64-1.55Z"/><path class="cls-1" d="M192.24,30.38l0,10.32a4.17,4.17,0,0,1-1.1.88l0-10.33a4.3,4.3,0,0,0,1.09-.87Z"/></g></g><polygon class="cls-7" points="188.64 32.71 188.61 43.04 157.61 25.14 157.64 14.82 188.64 32.71"/><polygon class="cls-1" points="191.15 31.25 191.12 41.58 188.61 43.04 188.64 32.71 191.15 31.25"/><path class="cls-9" d="M191.15,31.25l-2.51,1.46-31-17.89-14-8.06-1.86-1.08-4.93-2.84,3.6-2.09a6.86,6.86,0,0,1,6.24,0l1.82,1.05,1.86,1.07,40.71,23.51C193.45,27.72,193.47,29.9,191.15,31.25Z"/><g class="cls-6"><polygon class="cls-10" points="188.62 40.46 188.61 43.04 68.8 112.67 68.81 110.08 188.62 40.46"/><polygon class="cls-7" points="68.81 110.08 68.8 112.67 37.8 94.77 37.81 92.19 68.81 110.08"/><polygon class="cls-11" points="188.62 40.46 68.81 110.08 37.81 92.19 157.62 22.56 188.62 40.46"/></g><polygon class="cls-9" points="157.64 14.82 37.83 84.44 17.09 72.46 136.9 2.84 157.64 14.82"/><polygon class="cls-9" points="157.64 14.82 157.61 25.14 37.8 94.77 37.83 84.44 157.64 14.82"/><polygon class="cls-9" points="37.83 84.44 37.8 94.77 17.06 82.79 17.09 72.46 37.83 84.44"/><g class="cls-6"><polygon class="cls-3" points="188.62 35.28 188.6 40.45 68.8 110.07 68.81 104.91 188.62 35.28"/><polygon class="cls-12" points="68.81 104.91 68.8 110.07 37.8 92.18 37.81 87.01 68.81 104.91"/><polygon class="cls-13" points="188.62 35.28 68.81 104.91 37.81 87.01 157.62 17.39 188.62 35.28"/></g><g class="cls-14"><rect class="cls-15" x="53.7" y="75.81" width="0.16" height="39" transform="translate(-55.65 94.3) rotate(-60.04)"/><rect class="cls-15" x="57.81" y="73.43" width="0.16" height="39" transform="translate(-51.54 96.67) rotate(-60.04)"/><rect class="cls-15" x="61.92" y="71.06" width="0.16" height="39" transform="translate(-47.42 99.05) rotate(-60.04)"/><rect class="cls-15" x="66.04" y="68.68" width="0.16" height="39" transform="translate(-43.3 101.42) rotate(-60.04)"/><rect class="cls-15" x="70.15" y="66.3" width="0.16" height="39" transform="translate(-39.18 103.79) rotate(-60.04)"/><rect class="cls-15" x="74.26" y="63.92" width="0.16" height="39" transform="translate(-35.07 106.16) rotate(-60.04)"/><rect class="cls-15" x="78.37" y="61.55" width="0.16" height="39" transform="translate(-30.95 108.53) rotate(-60.04)"/><rect class="cls-15" x="82.48" y="59.17" width="0.16" height="39" transform="translate(-26.83 110.9) rotate(-60.04)"/><rect class="cls-15" x="86.59" y="56.79" width="0.16" height="39" transform="translate(-22.71 113.28) rotate(-60.04)"/><rect class="cls-15" x="90.7" y="54.42" width="0.16" height="39" transform="translate(-18.6 115.65) rotate(-60.04)"/><rect class="cls-15" x="94.81" y="52.04" width="0.16" height="39" transform="translate(-14.48 118.02) rotate(-60.04)"/><rect class="cls-15" x="98.93" y="49.66" width="0.16" height="39" transform="translate(-10.36 120.39) rotate(-60.04)"/><rect class="cls-15" x="103.04" y="47.28" width="0.16" height="39" transform="translate(-6.24 122.76) rotate(-60.04)"/><rect class="cls-15" x="107.15" y="44.91" width="0.16" height="39" transform="translate(-2.13 125.14) rotate(-60.04)"/><rect class="cls-15" x="111.42" y="42.53" width="0.16" height="39" transform="translate(2.07 127.64) rotate(-60.04)"/><rect class="cls-15" x="115.53" y="40.15" width="0.16" height="39" transform="translate(6.19 130.01) rotate(-60.04)"/><rect class="cls-15" x="119.64" y="37.77" width="0.16" height="39" transform="translate(10.3 132.39) rotate(-60.04)"/><rect class="cls-15" x="123.75" y="35.4" width="0.16" height="39" transform="translate(14.42 134.76) rotate(-60.04)"/><rect class="cls-15" x="127.86" y="33.02" width="0.16" height="39" transform="translate(18.54 137.13) rotate(-60.04)"/><rect class="cls-15" x="131.97" y="30.64" width="0.16" height="39" transform="translate(22.66 139.5) rotate(-60.04)"/><rect class="cls-15" x="136.08" y="28.27" width="0.16" height="39" transform="translate(26.77 141.87) rotate(-60.04)"/><rect class="cls-15" x="140.19" y="25.89" width="0.16" height="39" transform="translate(30.89 144.25) rotate(-60.04)"/><rect class="cls-15" x="144.31" y="23.51" width="0.16" height="39" transform="translate(35.01 146.62) rotate(-60.04)"/><rect class="cls-15" x="148.42" y="21.13" width="0.16" height="39" transform="translate(39.13 148.99) rotate(-60.04)"/><rect class="cls-15" x="152.53" y="18.76" width="0.16" height="39" transform="translate(43.24 151.36) rotate(-60.04)"/><rect class="cls-15" x="156.64" y="16.38" width="0.16" height="39" transform="translate(47.36 153.73) rotate(-60.04)"/><rect class="cls-15" x="160.75" y="14" width="0.16" height="39" transform="translate(51.48 156.1) rotate(-60.04)"/><rect class="cls-15" x="164.86" y="11.62" width="0.16" height="39" transform="translate(55.6 158.48) rotate(-60.04)"/><rect class="cls-15" x="168.97" y="9.25" width="0.16" height="39" transform="translate(59.71 160.85) rotate(-60.04)"/></g><path class="cls-1" d="M0,95.53,0,85.21C0,87,1.2,88.76,3.54,90.11l0,10.33C1.17,99.09,0,97.31,0,95.53Z"/><g class="cls-16"><g class="cls-6"><path class="cls-1" d="M3.54,90.11l0,10.33C1.17,99.09,0,97.31,0,95.53L0,85.21C0,87,1.2,88.76,3.54,90.11Z"/></g></g><polygon class="cls-1" points="68.83 102.34 68.8 112.67 51.2 122.89 51.23 112.56 68.83 102.34"/><polygon class="cls-1" points="42.43 112.56 42.4 122.89 3.51 100.44 3.54 90.11 42.43 112.56"/><path class="cls-1" d="M51.23,112.57l0,10.32a9.68,9.68,0,0,1-8.8,0l0-10.33A9.71,9.71,0,0,0,51.23,112.57Z"/><g class="cls-17"><g class="cls-6"><path class="cls-1" d="M51.23,112.57l0,10.32a8.25,8.25,0,0,1-3.09,1l0-10.33a8.24,8.24,0,0,0,3.09-1Z"/><path class="cls-1" d="M48.14,113.54l0,10.33a9.48,9.48,0,0,1-5.71-1l0-10.33a9.48,9.48,0,0,0,5.71,1Z"/></g></g><path class="cls-9" d="M68.83,102.34l-17.6,10.23a9.71,9.71,0,0,1-8.8,0L3.54,90.11a9.16,9.16,0,0,1-1.85-1.37,6.21,6.21,0,0,1-1.14-1.5c-1.24-2.35-.27-5,2.94-6.87l13.6-7.91,4.53,2.62,1.86,1.08Z"/><polygon class="cls-7" points="39.56 81.07 38.76 81.54 19.72 92.63 4.7 83.96 3.97 83.54 23.82 71.98 39.56 81.07"/><polygon class="cls-10" points="38.76 81.54 19.72 92.63 4.7 83.96 23.74 72.87 38.76 81.54"/><g class="cls-6"><polygon class="cls-10" points="66.39 90.75 66.38 92.04 64.36 93.22 64.36 91.93 66.39 90.75"/><polygon class="cls-7" points="64.36 91.93 64.36 93.22 45.65 82.42 45.65 81.13 64.36 91.93"/><polygon class="cls-18" points="66.39 90.75 64.36 91.93 45.65 81.13 47.68 79.95 66.39 90.75"/></g><g class="cls-6"><polygon class="cls-10" points="70.22 88.52 70.22 89.81 68.19 90.99 68.19 89.69 70.22 88.52"/><polygon class="cls-7" points="68.19 89.69 68.19 90.99 49.48 80.19 49.49 78.89 68.19 89.69"/><polygon class="cls-18" points="70.22 88.52 68.19 89.69 49.49 78.89 51.52 77.72 70.22 88.52"/></g><g class="cls-6"><polygon class="cls-10" points="78.3 83.83 78.29 85.12 76.27 86.3 76.27 85.01 78.3 83.83"/><polygon class="cls-7" points="76.27 85.01 76.27 86.3 57.56 75.5 57.56 74.21 76.27 85.01"/><polygon class="cls-18" points="78.3 83.83 76.27 85.01 57.56 74.21 59.59 73.03 78.3 83.83"/></g><g class="cls-6"><polygon class="cls-10" points="82.14 81.59 82.13 82.88 80.11 84.06 80.11 82.77 82.14 81.59"/><polygon class="cls-7" points="80.11 82.77 80.11 84.06 61.4 73.26 61.4 71.97 80.11 82.77"/><polygon class="cls-18" points="82.14 81.59 80.11 82.77 61.4 71.97 63.43 70.79 82.14 81.59"/></g><g class="cls-6"><polygon class="cls-10" points="86.02 79.34 86.02 80.63 83.99 81.81 84 80.52 86.02 79.34"/><polygon class="cls-7" points="84 80.52 83.99 81.81 65.29 71.01 65.29 69.72 84 80.52"/><polygon class="cls-18" points="86.02 79.34 84 80.52 65.29 69.72 67.32 68.54 86.02 79.34"/></g><g class="cls-6"><polygon class="cls-10" points="94 74.7 94 76 91.97 77.17 91.98 75.88 94 74.7"/><polygon class="cls-7" points="91.98 75.88 91.97 77.17 73.27 66.37 73.27 65.08 91.98 75.88"/><polygon class="cls-18" points="94 74.7 91.98 75.88 73.27 65.08 75.3 63.91 94 74.7"/></g><g class="cls-6"><polygon class="cls-10" points="97.84 72.47 97.84 73.76 95.81 74.94 95.81 73.65 97.84 72.47"/><polygon class="cls-7" points="95.81 73.65 95.81 74.94 77.11 64.14 77.11 62.85 95.81 73.65"/><polygon class="cls-18" points="97.84 72.47 95.81 73.65 77.11 62.85 79.14 61.67 97.84 72.47"/></g><g class="cls-6"><polygon class="cls-10" points="105.92 67.78 105.91 69.07 103.89 70.25 103.89 68.96 105.92 67.78"/><polygon class="cls-7" points="103.89 68.96 103.89 70.25 85.18 59.45 85.19 58.16 103.89 68.96"/><polygon class="cls-18" points="105.92 67.78 103.89 68.96 85.19 58.16 87.21 56.98 105.92 67.78"/></g><g class="cls-6"><polygon class="cls-10" points="109.75 65.54 109.75 66.83 107.72 68.01 107.73 66.72 109.75 65.54"/><polygon class="cls-7" points="107.73 66.72 107.72 68.01 89.02 57.21 89.02 55.92 107.73 66.72"/><polygon class="cls-18" points="109.75 65.54 107.73 66.72 89.02 55.92 91.05 54.74 109.75 65.54"/></g><g class="cls-6"><polygon class="cls-10" points="113.64 63.29 113.64 64.58 111.61 65.76 111.62 64.47 113.64 63.29"/><polygon class="cls-7" points="111.62 64.47 111.61 65.76 92.91 54.96 92.91 53.67 111.62 64.47"/><polygon class="cls-18" points="113.64 63.29 111.62 64.47 92.91 53.67 94.94 52.49 113.64 63.29"/></g><g class="cls-6"><polygon class="cls-10" points="124.27 57.2 124.26 58.49 122.24 59.67 122.24 58.38 124.27 57.2"/><polygon class="cls-7" points="122.24 58.38 122.24 59.67 103.53 48.87 103.53 47.58 122.24 58.38"/><polygon class="cls-18" points="124.27 57.2 122.24 58.38 103.53 47.58 105.56 46.4 124.27 57.2"/></g><g class="cls-6"><polygon class="cls-10" points="128.1 54.96 128.1 56.25 126.07 57.43 126.08 56.14 128.1 54.96"/><polygon class="cls-7" points="126.08 56.14 126.07 57.43 107.37 46.63 107.37 45.34 126.08 56.14"/><polygon class="cls-18" points="128.1 54.96 126.08 56.14 107.37 45.34 109.4 44.16 128.1 54.96"/></g><g class="cls-6"><polygon class="cls-10" points="136.18 50.27 136.18 51.56 134.15 52.74 134.15 51.45 136.18 50.27"/><polygon class="cls-7" points="134.15 51.45 134.15 52.74 115.44 41.94 115.45 40.65 134.15 51.45"/><polygon class="cls-18" points="136.18 50.27 134.15 51.45 115.45 40.65 117.47 39.47 136.18 50.27"/></g><g class="cls-6"><polygon class="cls-10" points="140.02 48.04 140.01 49.33 137.99 50.51 137.99 49.22 140.02 48.04"/><polygon class="cls-7" points="137.99 49.22 137.99 50.51 119.28 39.71 119.28 38.41 137.99 49.22"/><polygon class="cls-18" points="140.02 48.04 137.99 49.22 119.28 38.41 121.31 37.24 140.02 48.04"/></g><g class="cls-6"><polygon class="cls-10" points="143.91 45.78 143.9 47.08 141.87 48.25 141.88 46.96 143.91 45.78"/><polygon class="cls-7" points="141.88 46.96 141.87 48.25 123.17 37.45 123.17 36.16 141.88 46.96"/><polygon class="cls-18" points="143.91 45.78 141.88 46.96 123.17 36.16 125.2 34.98 143.91 45.78"/></g><g class="cls-6"><polygon class="cls-10" points="151.89 41.15 151.88 42.44 149.86 43.62 149.86 42.33 151.89 41.15"/><polygon class="cls-7" points="149.86 42.33 149.86 43.62 131.15 32.82 131.15 31.53 149.86 42.33"/><polygon class="cls-18" points="151.89 41.15 149.86 42.33 131.15 31.53 133.18 30.35 151.89 41.15"/></g><g class="cls-6"><polygon class="cls-10" points="155.72 38.91 155.72 40.2 153.69 41.38 153.7 40.09 155.72 38.91"/><polygon class="cls-7" points="153.7 40.09 153.69 41.38 134.99 30.58 134.99 29.29 153.7 40.09"/><polygon class="cls-18" points="155.72 38.91 153.7 40.09 134.99 29.29 137.02 28.11 155.72 38.91"/></g><g class="cls-6"><polygon class="cls-10" points="163.8 34.23 163.79 35.52 161.77 36.69 161.77 35.4 163.8 34.23"/><polygon class="cls-7" points="161.77 35.4 161.77 36.69 143.06 25.89 143.07 24.6 161.77 35.4"/><polygon class="cls-18" points="163.8 34.23 161.77 35.4 143.07 24.6 145.09 23.43 163.8 34.23"/></g><g class="cls-6"><polygon class="cls-10" points="167.64 31.99 167.63 33.28 165.61 34.46 165.61 33.17 167.64 31.99"/><polygon class="cls-7" points="165.61 33.17 165.61 34.46 146.9 23.66 146.9 22.37 165.61 33.17"/><polygon class="cls-18" points="167.64 31.99 165.61 33.17 146.9 22.37 148.93 21.19 167.64 31.99"/></g><g class="cls-6"><polygon class="cls-10" points="171.52 29.74 171.52 31.03 169.49 32.2 169.5 30.91 171.52 29.74"/><polygon class="cls-7" points="169.5 30.91 169.49 32.2 150.79 21.41 150.79 20.11 169.5 30.91"/><polygon class="cls-18" points="171.52 29.74 169.5 30.91 150.79 20.11 152.82 18.94 171.52 29.74"/></g><polygon class="cls-7" points="115.25 35.24 114.45 35.71 82.61 54.09 69.51 46.53 68.7 46.06 101.35 27.21 115.25 35.24"/><polygon class="cls-10" points="114.45 35.71 113.1 36.48 82.61 54.09 70.46 47.08 69.51 46.53 101.35 28.14 114.45 35.71"/><polygon class="cls-19" points="113.1 36.48 82.61 54.09 70.46 47.08 100.95 29.47 113.1 36.48"/><polygon class="cls-20" points="87.36 51.3 85.69 52.26 79.51 48.7 81.19 47.73 87.36 51.3"/><polygon class="cls-20" points="90.17 49.67 88.5 50.64 78.24 44.71 79.91 43.75 90.17 49.67"/><polygon class="cls-20" points="101.42 43.17 99.75 44.14 93.57 40.58 95.25 39.61 101.42 43.17"/><polygon class="cls-20" points="104.24 41.55 102.56 42.52 92.3 36.59 93.98 35.63 104.24 41.55"/><polygon class="cls-20" points="95.8 46.42 94.12 47.39 90.3 45.18 91.98 44.22 95.8 46.42"/><polygon class="cls-20" points="92.99 48.05 91.31 49.02 83.67 44.6 85.34 43.63 92.99 48.05"/><polygon class="cls-20" points="98.61 44.8 96.94 45.77 95.43 44.9 97.1 43.93 98.61 44.8"/><polygon class="cls-20" points="84.55 52.92 82.87 53.89 81.37 53.02 83.04 52.05 84.55 52.92"/><polygon class="cls-20" points="112.66 36.69 110.98 37.65 104.81 34.09 106.48 33.12 112.66 36.69"/><polygon class="cls-20" points="107.04 39.93 105.36 40.9 101.54 38.7 103.22 37.73 107.04 39.93"/><polygon class="cls-20" points="109.85 38.31 108.17 39.28 106.67 38.41 108.34 37.44 109.85 38.31"/><path class="cls-20" d="M97.83,33.72c-.42-.25-.39-.53,0-.76l.59-.33a1.21,1.21,0,0,1,1.26,0l1.33.77c.42.24.39.5,0,.73l-.58.34a1.27,1.27,0,0,1-1.29,0Zm2.25.42.35-.2c.16-.1.19-.19,0-.3L99.26,33a.47.47,0,0,0-.5,0l-.37.21c-.21.13-.1.24,0,.3l1.17.67A.5.5,0,0,0,100.08,34.14Z"/><path class="cls-20" d="M99.63,32.27l.21-.46.49-.29,2.6,1.5-.5.29-2.1-1.22-.38.36Z"/><g class="cls-6"><path class="cls-4" d="M77.74,57.34V58a.76.76,0,0,1-.45.63V58A.77.77,0,0,0,77.74,57.34Z"/><g class="cls-21"><g class="cls-6"><path class="cls-4" d="M77.74,57.34V58a.64.64,0,0,1-.17.41v-.65a.62.62,0,0,0,.17-.4Z"/><path class="cls-4" d="M77.57,57.74v.65a.91.91,0,0,1-.28.22V58a1.11,1.11,0,0,0,.28-.23Z"/></g></g></g><polygon class="cls-4" points="77.29 57.97 77.29 58.62 74.81 60.06 74.81 59.41 77.29 57.97"/><g class="cls-6"><path class="cls-4" d="M72.15,59.42v-.65a.77.77,0,0,0,.46.64,2.44,2.44,0,0,0,2.2,0v.65a2.42,2.42,0,0,1-2.19,0A.78.78,0,0,1,72.15,59.42Z"/><g class="cls-22"><g class="cls-6"><path class="cls-4" d="M74.81,59.41v.65a2,2,0,0,1-.77.24v-.64a2.12,2.12,0,0,0,.77-.25Z"/><path class="cls-4" d="M74,59.66v.64a2.4,2.4,0,0,1-1.42-.24.78.78,0,0,1-.46-.64v-.65a.77.77,0,0,0,.46.64,2.35,2.35,0,0,0,1.43.25Z"/></g></g></g><path class="cls-23" d="M77.28,56.7a.67.67,0,0,1,0,1.27l-2.48,1.44a2.44,2.44,0,0,1-2.2,0,.67.67,0,0,1,0-1.27l2.48-1.44A2.44,2.44,0,0,1,77.28,56.7Z"/><g class="cls-6"><g class="cls-6"><g class="cls-24"><g class="cls-6"><path class="cls-15" d="M71.63,60.89v.64a.64.64,0,0,1-.17.41v-.65a.6.6,0,0,0,.17-.4Z"/><path class="cls-25" d="M71.46,61.29v.65a1.32,1.32,0,0,1-.28.23v-.65a.93.93,0,0,0,.28-.23Z"/></g></g></g><polygon class="cls-26" points="71.18 61.52 71.18 62.17 68.69 63.61 68.69 62.96 71.18 61.52"/><g class="cls-6"><g class="cls-27"><g class="cls-6"><path class="cls-25" d="M68.69,63v.65a1.88,1.88,0,0,1-.77.24v-.64a2,2,0,0,0,.77-.25Z"/><path class="cls-15" d="M67.92,63.21v.64a2.43,2.43,0,0,1-1.43-.24A.79.79,0,0,1,66,63v-.65a.75.75,0,0,0,.46.64,2.33,2.33,0,0,0,1.42.25Z"/></g></g></g><path class="cls-28" d="M71.17,60.25a.67.67,0,0,1,0,1.27L68.69,63a2.42,2.42,0,0,1-2.19,0,.67.67,0,0,1,0-1.27L69,60.25A2.44,2.44,0,0,1,71.17,60.25Z"/></g><g class="cls-6"><g class="cls-6"><g class="cls-29"><g class="cls-6"><path class="cls-15" d="M65.52,64.44v.65a.6.6,0,0,1-.16.4v-.64a.64.64,0,0,0,.17-.41Z"/><path class="cls-25" d="M65.35,64.85v.64a1.18,1.18,0,0,1-.29.23v-.65a1.3,1.3,0,0,0,.28-.22Z"/></g></g></g><polygon class="cls-26" points="65.07 65.07 65.06 65.72 62.58 67.16 62.58 66.52 65.07 65.07"/><g class="cls-6"><g class="cls-30"><g class="cls-6"><path class="cls-25" d="M62.58,66.52v.64a1.93,1.93,0,0,1-.77.24v-.64a2.25,2.25,0,0,0,.77-.24Z"/><path class="cls-15" d="M61.81,66.76v.64a2.29,2.29,0,0,1-1.43-.24.75.75,0,0,1-.45-.64v-.65a.79.79,0,0,0,.45.65,2.43,2.43,0,0,0,1.43.24Z"/></g></g></g><path class="cls-28" d="M65.06,63.8a.67.67,0,0,1,0,1.27l-2.49,1.45a2.44,2.44,0,0,1-2.2,0,.68.68,0,0,1,0-1.28l2.48-1.44A2.44,2.44,0,0,1,65.06,63.8Z"/></g><g class="cls-6"><g class="cls-6"><g class="cls-31"><g class="cls-6"><path class="cls-15" d="M59.4,68v.65a.58.58,0,0,1-.16.4V68.4A.63.63,0,0,0,59.4,68Z"/><path class="cls-25" d="M59.24,68.4V69a1.4,1.4,0,0,1-.29.23v-.65a1,1,0,0,0,.29-.22Z"/></g></g></g><polygon class="cls-26" points="58.95 68.62 58.95 69.27 56.47 70.71 56.47 70.07 58.95 68.62"/><g class="cls-6"><g class="cls-32"><g class="cls-6"><path class="cls-25" d="M56.47,70.07v.64a2.12,2.12,0,0,1-.77.25v-.65a2.11,2.11,0,0,0,.77-.24Z"/><path class="cls-15" d="M55.7,70.31V71a2.36,2.36,0,0,1-1.43-.25.79.79,0,0,1-.46-.64v-.64a.76.76,0,0,0,.45.64,2.43,2.43,0,0,0,1.43.24Z"/></g></g></g><path class="cls-28" d="M59,67.35a.67.67,0,0,1,0,1.27l-2.48,1.45a2.44,2.44,0,0,1-2.2,0,.68.68,0,0,1,0-1.28l2.49-1.44A2.44,2.44,0,0,1,59,67.35Z"/></g><g class="cls-6"><g class="cls-6"><g class="cls-33"><g class="cls-6"><path class="cls-15" d="M123.27,19.57v.55a.55.55,0,0,1-.14.34v-.55a.53.53,0,0,0,.14-.34Z"/><path class="cls-25" d="M123.13,19.91v.55a1,1,0,0,1-.24.19V20.1a.78.78,0,0,0,.24-.19Z"/></g></g></g><polygon class="cls-26" points="122.89 20.1 122.89 20.65 120.78 21.88 120.78 21.33 122.89 20.1"/><g class="cls-6"><g class="cls-34"><g class="cls-6"><path class="cls-25" d="M120.78,21.33v.55a1.59,1.59,0,0,1-.66.2v-.54a1.77,1.77,0,0,0,.66-.21Z"/><path class="cls-15" d="M120.12,21.54v.54a2,2,0,0,1-1.21-.2.67.67,0,0,1-.39-.55v-.54a.67.67,0,0,0,.39.54,2,2,0,0,0,1.21.21Z"/></g></g></g><path class="cls-28" d="M122.88,19c.52.3.52.79,0,1.08l-2.11,1.23a2.06,2.06,0,0,1-1.87,0c-.51-.3-.52-.78,0-1.08L121,19A2.09,2.09,0,0,1,122.88,19Z"/></g><g class="cls-6"><g class="cls-6"><g class="cls-35"><g class="cls-6"><path class="cls-15" d="M118.08,22.58v.55a.56.56,0,0,1-.14.35v-.55a.56.56,0,0,0,.14-.35Z"/><path class="cls-25" d="M117.94,22.93v.55a1,1,0,0,1-.24.19v-.55a1,1,0,0,0,.24-.19Z"/></g></g></g><polygon class="cls-26" points="117.7 23.12 117.69 23.67 115.58 24.9 115.59 24.35 117.7 23.12"/><g class="cls-6"><g class="cls-36"><g class="cls-6"><path class="cls-25" d="M115.59,24.35v.55a2,2,0,0,1-.66.2v-.55a1.76,1.76,0,0,0,.66-.2Z"/><path class="cls-15" d="M114.93,24.55v.55a2,2,0,0,1-1.21-.2.67.67,0,0,1-.39-.55V23.8a.67.67,0,0,0,.39.55,2,2,0,0,0,1.21.2Z"/></g></g></g><path class="cls-28" d="M117.69,22a.57.57,0,0,1,0,1.08l-2.11,1.23a2.09,2.09,0,0,1-1.87,0c-.52-.3-.52-.79,0-1.08L115.82,22A2.06,2.06,0,0,1,117.69,22Z"/></g><g class="cls-6"><g class="cls-6"><g class="cls-37"><g class="cls-6"><path class="cls-15" d="M112.89,25.6v.55a.47.47,0,0,1-.14.34V26a.56.56,0,0,0,.14-.35Z"/><path class="cls-25" d="M112.75,26v.54a1,1,0,0,1-.24.2v-.55a1.26,1.26,0,0,0,.25-.19Z"/></g></g></g><polygon class="cls-26" points="112.5 26.14 112.5 26.69 110.39 27.91 110.39 27.36 112.5 26.14"/><g class="cls-6"><g class="cls-38"><g class="cls-6"><path class="cls-25" d="M110.39,27.37v.54a1.66,1.66,0,0,1-.65.21v-.55a1.84,1.84,0,0,0,.65-.2Z"/><path class="cls-15" d="M109.74,27.57v.55a2,2,0,0,1-1.21-.21.65.65,0,0,1-.39-.54v-.55a.67.67,0,0,0,.39.55,2,2,0,0,0,1.21.2Z"/></g></g></g><path class="cls-28" d="M112.5,25.06a.57.57,0,0,1,0,1.08l-2.11,1.23a2.1,2.1,0,0,1-1.86,0,.58.58,0,0,1,0-1.09l2.11-1.22A2.06,2.06,0,0,1,112.5,25.06Z"/></g><g class="cls-6"><g class="cls-6"><g class="cls-39"><g class="cls-6"><path class="cls-15" d="M127.19,22v.55a.56.56,0,0,1-.14.35v-.55a.56.56,0,0,0,.14-.35Z"/><path class="cls-25" d="M127.05,22.34v.55a1.81,1.81,0,0,1-.25.19v-.55a1,1,0,0,0,.24-.19Z"/></g></g></g><polygon class="cls-26" points="126.81 22.53 126.8 23.08 124.69 24.3 124.7 23.76 126.81 22.53"/><g class="cls-6"><g class="cls-40"><g class="cls-6"><path class="cls-25" d="M124.7,23.76v.54a1.66,1.66,0,0,1-.65.21V24a2,2,0,0,0,.66-.2Z"/><path class="cls-15" d="M124,24v.55a2,2,0,0,1-1.21-.21.65.65,0,0,1-.39-.54v-.55a.67.67,0,0,0,.39.55A2,2,0,0,0,124,24Z"/></g></g></g><path class="cls-28" d="M126.8,21.45a.57.57,0,0,1,0,1.08l-2.11,1.23a2.12,2.12,0,0,1-1.87,0,.58.58,0,0,1,0-1.09l2.11-1.22A2.06,2.06,0,0,1,126.8,21.45Z"/></g><g class="cls-6"><g class="cls-6"><g class="cls-41"><g class="cls-6"><path class="cls-15" d="M122,25v.55a.48.48,0,0,1-.14.34v-.55A.48.48,0,0,0,122,25Z"/><path class="cls-25" d="M121.85,25.35v.55a1,1,0,0,1-.24.2v-.55a1,1,0,0,0,.24-.2Z"/></g></g></g><polygon class="cls-26" points="121.61 25.55 121.61 26.09 119.5 27.32 119.5 26.77 121.61 25.55"/><g class="cls-6"><g class="cls-42"><g class="cls-6"><path class="cls-25" d="M119.5,26.77v.55a1.66,1.66,0,0,1-.65.21V27a1.66,1.66,0,0,0,.65-.21Z"/><path class="cls-15" d="M118.85,27v.55a2.06,2.06,0,0,1-1.22-.21.67.67,0,0,1-.38-.54v-.55a.65.65,0,0,0,.39.54,2,2,0,0,0,1.21.21Z"/></g></g></g><path class="cls-28" d="M121.61,24.47a.57.57,0,0,1,0,1.08l-2.11,1.22a2,2,0,0,1-1.86,0,.57.57,0,0,1,0-1.08l2.11-1.22A2.06,2.06,0,0,1,121.61,24.47Z"/></g><g class="cls-6"><g class="cls-6"><g class="cls-43"><g class="cls-6"><path class="cls-15" d="M116.8,28v.55a.55.55,0,0,1-.14.34v-.55a.48.48,0,0,0,.14-.34Z"/><path class="cls-25" d="M116.66,28.37v.55a1,1,0,0,1-.24.19v-.55a.78.78,0,0,0,.24-.19Z"/></g></g></g><polygon class="cls-26" points="116.42 28.56 116.42 29.11 114.31 30.34 114.31 29.79 116.42 28.56"/><g class="cls-6"><g class="cls-44"><g class="cls-6"><path class="cls-25" d="M114.31,29.79v.55a1.72,1.72,0,0,1-.65.21V30a1.66,1.66,0,0,0,.65-.21Z"/><path class="cls-15" d="M113.66,30v.55a2.06,2.06,0,0,1-1.22-.21.67.67,0,0,1-.39-.55v-.54a.63.63,0,0,0,.38.54,2.06,2.06,0,0,0,1.22.21Z"/></g></g></g><path class="cls-28" d="M116.42,27.48a.57.57,0,0,1,0,1.08l-2.11,1.23a2.06,2.06,0,0,1-1.87,0,.57.57,0,0,1,0-1.08l2.11-1.23A2.12,2.12,0,0,1,116.42,27.48Z"/></g><g class="cls-6"><g class="cls-6"><g class="cls-45"><g class="cls-6"><path class="cls-15" d="M131.39,24.46V25a.56.56,0,0,1-.14.35v-.55a.51.51,0,0,0,.14-.35Z"/><path class="cls-25" d="M131.25,24.81v.55a1,1,0,0,1-.24.19V25a1,1,0,0,0,.24-.19Z"/></g></g></g><polygon class="cls-26" points="131.01 25 131.01 25.55 128.9 26.78 128.9 26.23 131.01 25"/><g class="cls-6"><g class="cls-46"><g class="cls-6"><path class="cls-25" d="M128.9,26.23v.55a2,2,0,0,1-.66.2v-.55a1.9,1.9,0,0,0,.65-.2Z"/><path class="cls-15" d="M128.25,26.43V27a2,2,0,0,1-1.21-.2.67.67,0,0,1-.39-.55v-.55a.67.67,0,0,0,.39.55,2,2,0,0,0,1.22.2Z"/></g></g></g><path class="cls-28" d="M131,23.92A.57.57,0,0,1,131,25l-2.11,1.23a2.09,2.09,0,0,1-1.87,0c-.51-.3-.52-.79,0-1.08l2.11-1.23A2,2,0,0,1,131,23.92Z"/></g><g class="cls-6"><g class="cls-6"><g class="cls-47"><g class="cls-6"><path class="cls-15" d="M126.2,27.48V28a.51.51,0,0,1-.14.34v-.54a.56.56,0,0,0,.14-.35Z"/><path class="cls-25" d="M126.06,27.83v.54a1,1,0,0,1-.24.2V28a1.26,1.26,0,0,0,.24-.19Z"/></g></g></g><polygon class="cls-26" points="125.82 28.02 125.82 28.57 123.71 29.79 123.71 29.24 125.82 28.02"/><g class="cls-6"><g class="cls-48"><g class="cls-6"><path class="cls-25" d="M123.71,29.24v.55a1.77,1.77,0,0,1-.66.21v-.55a1.77,1.77,0,0,0,.66-.21Z"/><path class="cls-15" d="M123.05,29.45V30a2,2,0,0,1-1.21-.21.65.65,0,0,1-.39-.54V28.7a.64.64,0,0,0,.39.54,2,2,0,0,0,1.21.21Z"/></g></g></g><path class="cls-28" d="M125.81,26.94a.57.57,0,0,1,0,1.08l-2.11,1.22a2.06,2.06,0,0,1-1.87,0,.57.57,0,0,1,0-1.08l2.11-1.22A2.06,2.06,0,0,1,125.81,26.94Z"/></g><g class="cls-6"><g class="cls-6"><g class="cls-49"><g class="cls-6"><path class="cls-15" d="M121,30.5v.55a.53.53,0,0,1-.14.34v-.55a.51.51,0,0,0,.14-.34Z"/><path class="cls-25" d="M120.87,30.84v.55a1,1,0,0,1-.25.19V31a1,1,0,0,0,.24-.2Z"/></g></g></g><polygon class="cls-26" points="120.63 31.04 120.63 31.58 118.51 32.81 118.52 32.26 120.63 31.04"/><g class="cls-6"><g class="cls-50"><g class="cls-6"><path class="cls-25" d="M118.52,32.26v.55a1.66,1.66,0,0,1-.65.21v-.55a1.77,1.77,0,0,0,.66-.21Z"/><path class="cls-15" d="M117.86,32.47V33a2,2,0,0,1-1.21-.21.67.67,0,0,1-.39-.54v-.55a.67.67,0,0,0,.39.54,2,2,0,0,0,1.21.21Z"/></g></g></g><path class="cls-28" d="M120.62,30a.58.58,0,0,1,0,1.09l-2.11,1.22a2.06,2.06,0,0,1-1.87,0,.57.57,0,0,1,0-1.08L118.75,30A2.12,2.12,0,0,1,120.62,30Z"/></g><g class="cls-6"><g class="cls-6"><g class="cls-51"><g class="cls-6"><path class="cls-15" d="M60.4,56.89l0,1.41a1.77,1.77,0,0,1-.48,1.17l0-1.41a1.79,1.79,0,0,0,.48-1.17Z"/><path class="cls-25" d="M59.92,58.06l0,1.41a3.37,3.37,0,0,1-.83.67,6,6,0,0,1-2.25.71l0-1.41a6,6,0,0,0,2.24-.71,3.26,3.26,0,0,0,.84-.67Z"/><path class="cls-15" d="M56.84,59.44l0,1.41a6.93,6.93,0,0,1-4.15-.71,2.27,2.27,0,0,1-1.34-1.86l0-1.42a2.27,2.27,0,0,0,1.33,1.87,7,7,0,0,0,4.16.71Z"/></g></g></g><path class="cls-28" d="M59.06,55c1.78,1,1.78,2.68,0,3.71a7.08,7.08,0,0,1-6.4,0c-1.77-1-1.78-2.69,0-3.71A7.08,7.08,0,0,1,59.06,55Z"/></g><g class="cls-6"><g class="cls-6"><g class="cls-52"><g class="cls-6"><path class="cls-15" d="M70.22,51.21l0,1.41a1.86,1.86,0,0,1-.49,1.18l0-1.41a1.79,1.79,0,0,0,.48-1.18Z"/><path class="cls-25" d="M69.74,52.39l0,1.41a3.42,3.42,0,0,1-.83.67,6.13,6.13,0,0,1-2.25.71l0-1.42a5.9,5.9,0,0,0,2.24-.71,3.24,3.24,0,0,0,.84-.66Z"/><path class="cls-15" d="M66.66,53.76l0,1.42a7,7,0,0,1-4.15-.71,2.25,2.25,0,0,1-1.33-1.87l0-1.41a2.25,2.25,0,0,0,1.34,1.86,6.86,6.86,0,0,0,4.15.71Z"/></g></g></g><path class="cls-28" d="M68.89,49.35c1.77,1,1.78,2.68,0,3.7a7,7,0,0,1-6.39,0c-1.78-1-1.78-2.68,0-3.7A7,7,0,0,1,68.89,49.35Z"/></g><g class="cls-6"><g class="cls-6"><path class="cls-3" d="M133,13.57l0,1.29a2.08,2.08,0,0,1-1.21,1.69,6.47,6.47,0,0,1-5.86,0,2.08,2.08,0,0,1-1.22-1.71l0-1.29A2.1,2.1,0,0,0,126,15.26a6.45,6.45,0,0,0,5.85,0A2,2,0,0,0,133,13.57Z"/><g class="cls-53"><g class="cls-6"><path class="cls-3" d="M133,13.57l0,1.29a1.63,1.63,0,0,1-.45,1.08l0-1.3a1.62,1.62,0,0,0,.44-1.07Z"/><path class="cls-3" d="M132.58,14.64l0,1.3a3,3,0,0,1-.76.61,5.55,5.55,0,0,1-2,.65l0-1.3a5.37,5.37,0,0,0,2.05-.65,2.88,2.88,0,0,0,.77-.61Z"/><path class="cls-3" d="M129.76,15.9l0,1.3a6.38,6.38,0,0,1-3.81-.65,2.08,2.08,0,0,1-1.22-1.71l0-1.29A2.1,2.1,0,0,0,126,15.26a6.34,6.34,0,0,0,3.8.64Z"/></g></g></g><path class="cls-13" d="M131.8,11.86c1.62.94,1.63,2.46,0,3.39a6.45,6.45,0,0,1-5.85,0c-1.63-.94-1.63-2.46,0-3.4A6.44,6.44,0,0,1,131.8,11.86Z"/></g><g class="cls-6"><g class="cls-6"><g class="cls-54"><path class="cls-55" d="M142,18.93l0,1.29a1.67,1.67,0,0,1-.44,1.08l0-1.29a1.68,1.68,0,0,0,.45-1.08Z"/><path class="cls-55" d="M141.53,20l0,1.29a3,3,0,0,1-.76.61,5.42,5.42,0,0,1-2.06.65l0-1.29a5.54,5.54,0,0,0,2.06-.65,3,3,0,0,0,.76-.61Z"/><path class="cls-55" d="M138.71,21.27l0,1.29a6.27,6.27,0,0,1-3.8-.65,2,2,0,0,1-1.22-1.71l0-1.29a2.06,2.06,0,0,0,1.22,1.71,6.37,6.37,0,0,0,3.8.65Z"/></g></g><path class="cls-56" d="M140.75,17.22c1.63.94,1.63,2.46,0,3.4a6.5,6.5,0,0,1-5.86,0c-1.62-.94-1.63-2.46,0-3.4A6.5,6.5,0,0,1,140.75,17.22Z"/></g><g class="cls-6"><g class="cls-6"><g class="cls-57"><g class="cls-6"><path class="cls-15" d="M56.12,101.64l0,2a2.48,2.48,0,0,1-.67,1.62l0-1.95a2.45,2.45,0,0,0,.66-1.62Z"/><path class="cls-25" d="M55.46,103.26l0,1.95a4.72,4.72,0,0,1-1.14.92,8.43,8.43,0,0,1-3.1,1l0-2a8.25,8.25,0,0,0,3.09-1,4.6,4.6,0,0,0,1.15-.92Z"/><path class="cls-15" d="M51.22,105.16l0,2a9.59,9.59,0,0,1-5.72-1,3.12,3.12,0,0,1-1.84-2.57l0-2a3.12,3.12,0,0,0,1.84,2.57,9.54,9.54,0,0,0,5.73,1Z"/></g></g></g><path class="cls-28" d="M54.28,99.07c2.45,1.41,2.46,3.7,0,5.11a9.72,9.72,0,0,1-8.82,0c-2.44-1.41-2.45-3.7,0-5.11A9.7,9.7,0,0,1,54.28,99.07Z"/></g><g class="cls-6"><g class="cls-6"><g class="cls-58"><g class="cls-6"><path class="cls-15" d="M41.76,93.53l0,1.94a2.43,2.43,0,0,1-.67,1.62l0-2a2.44,2.44,0,0,0,.66-1.61Z"/><path class="cls-25" d="M41.1,95.14l0,2a4.53,4.53,0,0,1-1.14.92,8.24,8.24,0,0,1-3.1,1l0-1.95a8.25,8.25,0,0,0,3.09-1,4.19,4.19,0,0,0,1.15-.92Z"/><path class="cls-15" d="M36.86,97l0,1.95a9.6,9.6,0,0,1-5.72-1,3.12,3.12,0,0,1-1.84-2.57l0-2a3.1,3.1,0,0,0,1.84,2.57,9.5,9.5,0,0,0,5.72,1Z"/></g></g></g><path class="cls-28" d="M39.93,91c2.44,1.41,2.45,3.69,0,5.1a9.7,9.7,0,0,1-8.81,0c-2.45-1.41-2.46-3.69,0-5.1A9.72,9.72,0,0,1,39.93,91Z"/></g><path class="cls-59" d="M33.81,73.4a3.39,3.39,0,0,1-1.68-.4,1.08,1.08,0,0,1,0-2,3.75,3.75,0,0,1,3.36,0h0a1.08,1.08,0,0,1,0,2A3.39,3.39,0,0,1,33.81,73.4Zm0-2.68a3.32,3.32,0,0,0-1.6.38.92.92,0,0,0,0,1.76,3.54,3.54,0,0,0,3.2,0,.92.92,0,0,0,0-1.76A3.32,3.32,0,0,0,33.81,70.72Z"/><path class="cls-59" d="M40.24,69.69a3.39,3.39,0,0,1-1.68-.4,1.22,1.22,0,0,1-.72-1,1.2,1.2,0,0,1,.72-1,3.69,3.69,0,0,1,3.36,0h0a1.21,1.21,0,0,1,.72,1,1.24,1.24,0,0,1-.72,1A3.42,3.42,0,0,1,40.24,69.69Zm0-2.68a3.39,3.39,0,0,0-1.61.38.93.93,0,0,0,0,1.76,3.56,3.56,0,0,0,3.21,0,.92.92,0,0,0,0-1.76A3.32,3.32,0,0,0,40.24,67Z"/><path class="cls-59" d="M46.66,66a3.39,3.39,0,0,1-1.68-.4,1.24,1.24,0,0,1-.72-1,1.21,1.21,0,0,1,.72-1,3.69,3.69,0,0,1,3.36,0,1.2,1.2,0,0,1,.72,1,1.22,1.22,0,0,1-.72,1A3.39,3.39,0,0,1,46.66,66Zm0-2.68a3.32,3.32,0,0,0-1.6.38.92.92,0,0,0,0,1.76,3.54,3.54,0,0,0,3.2,0,.92.92,0,0,0,0-1.76h0A3.32,3.32,0,0,0,46.66,63.3Z"/><path class="cls-59" d="M40.85,73.82a3.56,3.56,0,0,1-1.68-.4,1.08,1.08,0,0,1,0-2,3.77,3.77,0,0,1,3.37,0h0a1.09,1.09,0,0,1,0,2A3.57,3.57,0,0,1,40.85,73.82Zm0-2.68a3.32,3.32,0,0,0-1.6.38.92.92,0,0,0,0,1.76,3.56,3.56,0,0,0,3.21,0,.92.92,0,0,0,0-1.76h0A3.39,3.39,0,0,0,40.85,71.14Z"/><path class="cls-59" d="M47.28,70.11a3.51,3.51,0,0,1-1.68-.4,1.08,1.08,0,0,1,0-2,3.75,3.75,0,0,1,3.36,0h0a1.08,1.08,0,0,1,0,2A3.51,3.51,0,0,1,47.28,70.11Zm0-2.68a3.32,3.32,0,0,0-1.6.38.92.92,0,0,0,0,1.76,3.54,3.54,0,0,0,3.2,0,.93.93,0,0,0,0-1.76A3.32,3.32,0,0,0,47.28,67.43Z"/><g class="cls-6"><g class="cls-6"><g class="cls-60"><g class="cls-6"><path class="cls-15" d="M35.46,68.86v3.06a.65.65,0,0,1-.18.43V69.29a.63.63,0,0,0,.18-.43Z"/><path class="cls-25" d="M35.28,69.29v3.06a1.09,1.09,0,0,1-.3.24,2.27,2.27,0,0,1-.81.26V69.79a2.14,2.14,0,0,0,.81-.26.93.93,0,0,0,.3-.24Z"/><path class="cls-15" d="M34.17,69.79v3.06a2.53,2.53,0,0,1-1.51-.26.83.83,0,0,1-.48-.68v-3a.79.79,0,0,0,.48.67,2.53,2.53,0,0,0,1.51.26Z"/></g></g></g><path class="cls-28" d="M35,68.19a.71.71,0,0,1,0,1.34,2.56,2.56,0,0,1-2.32,0c-.64-.37-.65-1,0-1.34A2.56,2.56,0,0,1,35,68.19Z"/></g><g class="cls-6"><g class="cls-6"><g class="cls-61"><g class="cls-6"><path class="cls-15" d="M41.88,65.16v3a.67.67,0,0,1-.17.43V65.58a.67.67,0,0,0,.17-.42Z"/><path class="cls-25" d="M41.71,65.58v3.06a1.22,1.22,0,0,1-.3.24,2.19,2.19,0,0,1-.82.26V66.08a2.18,2.18,0,0,0,.82-.25,1.53,1.53,0,0,0,.3-.25Z"/><path class="cls-15" d="M40.59,66.08v3.06a2.51,2.51,0,0,1-1.5-.26.81.81,0,0,1-.49-.67V65.15a.84.84,0,0,0,.48.68,2.54,2.54,0,0,0,1.51.25Z"/></g></g></g><path class="cls-28" d="M41.4,64.48a.72.72,0,0,1,0,1.35,2.58,2.58,0,0,1-2.33,0,.71.71,0,0,1,0-1.35A2.56,2.56,0,0,1,41.4,64.48Z"/></g><g class="cls-6"><g class="cls-6"><g class="cls-62"><g class="cls-6"><path class="cls-15" d="M48.31,61.54v3.05a.63.63,0,0,1-.18.43V62a.63.63,0,0,0,.18-.42Z"/><path class="cls-25" d="M48.13,62V65a.93.93,0,0,1-.3.24,2.09,2.09,0,0,1-.81.26V62.46a2.14,2.14,0,0,0,.81-.25,1.11,1.11,0,0,0,.3-.25Z"/><path class="cls-15" d="M47,62.46v3.06a2.53,2.53,0,0,1-1.51-.26.81.81,0,0,1-.48-.67V61.53a.82.82,0,0,0,.48.68,2.53,2.53,0,0,0,1.51.25Z"/></g></g></g><path class="cls-28" d="M47.82,60.86a.71.71,0,0,1,0,1.35,2.56,2.56,0,0,1-2.32,0c-.64-.38-.65-1,0-1.35A2.56,2.56,0,0,1,47.82,60.86Z"/></g><g class="cls-6"><g class="cls-6"><g class="cls-63"><g class="cls-6"><path class="cls-15" d="M42.5,69.34v3a.67.67,0,0,1-.17.43V69.76a.63.63,0,0,0,.18-.42Z"/><path class="cls-25" d="M42.32,69.76v3.06a1.11,1.11,0,0,1-.31.24,2.09,2.09,0,0,1-.81.26V70.26A2.08,2.08,0,0,0,42,70a1.11,1.11,0,0,0,.3-.25Z"/><path class="cls-15" d="M41.21,70.26v3.06a2.53,2.53,0,0,1-1.51-.26.81.81,0,0,1-.48-.67V69.33a.84.84,0,0,0,.48.68,2.53,2.53,0,0,0,1.51.25Z"/></g></g></g><path class="cls-28" d="M42,68.66A.71.71,0,0,1,42,70a2.56,2.56,0,0,1-2.32,0,.72.72,0,0,1,0-1.35A2.58,2.58,0,0,1,42,68.66Z"/></g><g class="cls-6"><g class="cls-6"><g class="cls-64"><g class="cls-6"><path class="cls-15" d="M48.92,65.63v3.06a.68.68,0,0,1-.18.42v-3a.64.64,0,0,0,.17-.43Z"/><path class="cls-25" d="M48.75,66.06v3a1.53,1.53,0,0,1-.3.25,2.13,2.13,0,0,1-.82.25v-3a2.32,2.32,0,0,0,.82-.26,1.5,1.5,0,0,0,.3-.24Z"/><path class="cls-15" d="M47.63,66.56v3a2.51,2.51,0,0,1-1.5-.25.83.83,0,0,1-.49-.68V65.62a.82.82,0,0,0,.49.68,2.51,2.51,0,0,0,1.5.26Z"/></g></g></g><path class="cls-28" d="M48.44,65c.64.38.65,1,0,1.35a2.56,2.56,0,0,1-2.32,0,.71.71,0,0,1,0-1.35A2.56,2.56,0,0,1,48.44,65Z"/></g><path class="cls-7" d="M28.41,86.66h0a1.06,1.06,0,0,1-.95,0L14.55,79.2a.28.28,0,0,1,0-.54h0a1.06,1.06,0,0,1,.95,0l12.91,7.45A.29.29,0,0,1,28.41,86.66Z"/><path class="cls-7" d="M32,84.65h0a1.06,1.06,0,0,1-.95,0L18.14,77.19a.28.28,0,0,1,0-.54h0a1.06,1.06,0,0,1,.95,0L32,84.1A.29.29,0,0,1,32,84.65Z"/><path class="cls-7" d="M35.65,82.54h0a1.06,1.06,0,0,1-.95,0L21.79,75.08a.28.28,0,0,1,0-.54h0a1,1,0,0,1,.94,0L35.65,82A.29.29,0,0,1,35.65,82.54Z"/><path class="cls-7" d="M21.17,90.77h0a1.06,1.06,0,0,1-1,0L7.31,83.32a.29.29,0,0,1,0-.55h0a1.06,1.06,0,0,1,1,0l12.91,7.46A.28.28,0,0,1,21.17,90.77Z"/><path class="cls-7" d="M24.77,88.76h0a1.06,1.06,0,0,1-.95,0L10.91,81.31c-.27-.15-.27-.4,0-.55h0a1,1,0,0,1,.94,0l12.92,7.46A.28.28,0,0,1,24.77,88.76Z"/><g class="cls-6"><g class="cls-6"><path class="cls-5" d="M35.14,80.82v.37a.43.43,0,0,1-.26.36v-.37A.43.43,0,0,0,35.14,80.82Z"/><g class="cls-65"><g class="cls-6"><path class="cls-5" d="M35.14,80.82v.37a.35.35,0,0,1-.09.23v-.37a.35.35,0,0,0,.09-.23Z"/><path class="cls-5" d="M35.05,81.05v.37a.59.59,0,0,1-.17.13v-.37a.7.7,0,0,0,.16-.13Z"/></g></g></g><polygon class="cls-5" points="34.89 81.18 34.88 81.55 33.47 82.37 33.47 82 34.89 81.18"/><g class="cls-6"><path class="cls-5" d="M32,82v-.37a.45.45,0,0,0,.26.37,1.37,1.37,0,0,0,1.26,0v.37a1.38,1.38,0,0,1-1.25,0A.43.43,0,0,1,32,82Z"/><g class="cls-66"><g class="cls-6"><path class="cls-5" d="M33.47,82v.37a1,1,0,0,1-.44.14v-.37a1.08,1.08,0,0,0,.44-.14Z"/><path class="cls-5" d="M33,82.14v.37a1.3,1.3,0,0,1-.81-.14A.43.43,0,0,1,32,82v-.37a.45.45,0,0,0,.26.37,1.39,1.39,0,0,0,.82.13Z"/></g></g></g><path class="cls-13" d="M34.88,80.45a.39.39,0,0,1,0,.73L33.47,82a1.37,1.37,0,0,1-1.26,0c-.35-.21-.35-.53,0-.73l1.41-.83A1.4,1.4,0,0,1,34.88,80.45Z"/></g><g class="cls-6"><g class="cls-6"><path class="cls-5" d="M28.6,81v.37a.43.43,0,0,1-.25.36v-.37A.43.43,0,0,0,28.6,81Z"/><g class="cls-67"><g class="cls-6"><path class="cls-5" d="M28.6,81v.37a.35.35,0,0,1-.09.23v-.37A.35.35,0,0,0,28.6,81Z"/><path class="cls-5" d="M28.51,81.23v.37a.7.7,0,0,1-.16.13v-.37a.51.51,0,0,0,.16-.13Z"/></g></g></g><polygon class="cls-5" points="28.35 81.36 28.35 81.73 26.93 82.56 26.93 82.19 28.35 81.36"/><g class="cls-6"><path class="cls-5" d="M25.41,82.19v-.37a.45.45,0,0,0,.26.37,1.4,1.4,0,0,0,1.26,0v.37a1.4,1.4,0,0,1-1.26,0A.46.46,0,0,1,25.41,82.19Z"/><g class="cls-68"><g class="cls-6"><path class="cls-5" d="M26.93,82.19v.37a1.26,1.26,0,0,1-.44.14v-.37a1.26,1.26,0,0,0,.44-.14Z"/><path class="cls-5" d="M26.49,82.33v.37a1.39,1.39,0,0,1-.82-.14.46.46,0,0,1-.26-.37v-.37a.45.45,0,0,0,.26.37,1.39,1.39,0,0,0,.82.14Z"/></g></g></g><path class="cls-13" d="M28.34,80.64c.35.2.35.52,0,.72l-1.42.83a1.4,1.4,0,0,1-1.26,0,.39.39,0,0,1,0-.73l1.42-.82A1.38,1.38,0,0,1,28.34,80.64Z"/></g><g class="cls-6"><g class="cls-6"><path class="cls-5" d="M18.72,79.51v.37a.47.47,0,0,1-.26.36v-.37A.45.45,0,0,0,18.72,79.51Z"/><g class="cls-69"><g class="cls-6"><path class="cls-5" d="M18.72,79.51v.37a.43.43,0,0,1-.1.23v-.37a.37.37,0,0,0,.1-.23Z"/><path class="cls-5" d="M18.62,79.74v.37a.53.53,0,0,1-.16.13v-.37a.42.42,0,0,0,.16-.13Z"/></g></g></g><polygon class="cls-5" points="18.46 79.87 18.46 80.24 17.04 81.07 17.04 80.7 18.46 79.87"/><g class="cls-6"><path class="cls-5" d="M15.52,80.7v-.37a.45.45,0,0,0,.26.37,1.4,1.4,0,0,0,1.26,0v.37a1.4,1.4,0,0,1-1.26,0A.46.46,0,0,1,15.52,80.7Z"/><g class="cls-70"><g class="cls-6"><path class="cls-5" d="M17,80.7v.37a1.26,1.26,0,0,1-.44.14v-.37A1.26,1.26,0,0,0,17,80.7Z"/><path class="cls-5" d="M16.6,80.84v.37a1.39,1.39,0,0,1-.82-.14.46.46,0,0,1-.26-.37v-.37a.45.45,0,0,0,.26.37,1.39,1.39,0,0,0,.82.14Z"/></g></g></g><path class="cls-13" d="M18.45,79.15c.35.2.35.52,0,.72L17,80.7a1.4,1.4,0,0,1-1.26,0,.39.39,0,0,1,0-.73l1.42-.82A1.38,1.38,0,0,1,18.45,79.15Z"/></g><g class="cls-6"><g class="cls-6"><path class="cls-5" d="M23.75,86.38v.37a.45.45,0,0,1-.26.36v-.37A.45.45,0,0,0,23.75,86.38Z"/><g class="cls-71"><g class="cls-6"><path class="cls-5" d="M23.75,86.38v.37a.32.32,0,0,1-.1.23v-.37a.35.35,0,0,0,.09-.23Z"/><path class="cls-5" d="M23.66,86.61V87a.53.53,0,0,1-.16.13v-.37a.76.76,0,0,0,.17-.13Z"/></g></g></g><polygon class="cls-5" points="23.49 86.74 23.49 87.11 22.07 87.94 22.07 87.57 23.49 86.74"/><g class="cls-6"><path class="cls-5" d="M20.56,87.57V87.2a.44.44,0,0,0,.26.37,1.38,1.38,0,0,0,1.25,0v.37a1.38,1.38,0,0,1-1.25,0A.42.42,0,0,1,20.56,87.57Z"/><g class="cls-72"><g class="cls-6"><path class="cls-5" d="M22.07,87.57v.37a1.19,1.19,0,0,1-.44.13v-.36a1.14,1.14,0,0,0,.44-.14Z"/><path class="cls-5" d="M21.63,87.71v.36a1.37,1.37,0,0,1-.81-.13.42.42,0,0,1-.26-.37V87.2a.44.44,0,0,0,.26.37,1.45,1.45,0,0,0,.81.14Z"/></g></g></g><path class="cls-13" d="M23.49,86a.39.39,0,0,1,0,.73l-1.42.83a1.38,1.38,0,0,1-1.25,0,.39.39,0,0,1,0-.73L22.23,86A1.4,1.4,0,0,1,23.49,86Z"/></g><g class="cls-6"><g class="cls-6"><path class="cls-5" d="M13.22,84.35v.37a.43.43,0,0,1-.25.36v-.37A.43.43,0,0,0,13.22,84.35Z"/><g class="cls-73"><g class="cls-6"><path class="cls-5" d="M13.22,84.35v.37a.35.35,0,0,1-.09.23v-.37a.35.35,0,0,0,.09-.23Z"/><path class="cls-5" d="M13.13,84.58V85a.7.7,0,0,1-.16.13v-.37a.7.7,0,0,0,.16-.13Z"/></g></g></g><polygon class="cls-5" points="12.97 84.71 12.96 85.08 11.54 85.91 11.55 85.54 12.97 84.71"/><g class="cls-6"><path class="cls-5" d="M10,85.54v-.37a.46.46,0,0,0,.26.37,1.4,1.4,0,0,0,1.26,0v.37a1.4,1.4,0,0,1-1.26,0A.44.44,0,0,1,10,85.54Z"/><g class="cls-74"><g class="cls-6"><path class="cls-5" d="M11.55,85.54v.37a1.26,1.26,0,0,1-.44.14v-.37a1.26,1.26,0,0,0,.44-.14Z"/><path class="cls-5" d="M11.11,85.68v.37a1.47,1.47,0,0,1-.82-.14.44.44,0,0,1-.26-.37v-.37a.46.46,0,0,0,.26.37,1.39,1.39,0,0,0,.82.14Z"/></g></g></g><path class="cls-13" d="M13,84c.35.2.35.52,0,.72l-1.42.83a1.4,1.4,0,0,1-1.26,0,.39.39,0,0,1,0-.73L11.71,84A1.35,1.35,0,0,1,13,84Z"/></g><polygon class="cls-7" points="150.8 14.75 150.37 15 147.58 16.61 133.99 8.76 133.55 8.51 136.77 6.65 150.8 14.75"/><polygon class="cls-10" points="150.37 15 147.58 16.61 133.99 8.76 136.78 7.15 150.37 15"/><polygon class="cls-7" points="156.42 11.5 156 11.75 153.21 13.36 139.61 5.51 139.18 5.26 142.39 3.4 156.42 11.5"/><polygon class="cls-10" points="156 11.75 153.21 13.36 139.61 5.51 142.4 3.9 156 11.75"/><path class="cls-19" d="M107,23.23a2,2,0,0,0-1.79,0c-.49.28-.49.74,0,1a2,2,0,0,0,1.79,0C107.48,24,107.48,23.51,107,23.23Z"/><path class="cls-19" d="M110.56,21.17a2,2,0,0,0-1.79,0c-.49.28-.49.74,0,1a2,2,0,0,0,1.79,0C111.05,21.91,111.05,21.45,110.56,21.17Z"/><ellipse class="cls-19" cx="113.23" cy="19.62" rx="1.26" ry="0.73"/><path class="cls-19" d="M117.69,17.05a1.93,1.93,0,0,0-1.78,0c-.5.28-.5.74,0,1a2,2,0,0,0,1.78,0C118.19,17.79,118.19,17.33,117.69,17.05Z"/><g class="cls-6"><polygon class="cls-75" points="142.41 13.13 143.86 12.28 146.52 11.62 145.07 12.46 142.41 13.13"/><polygon class="cls-76" points="146.87 13.63 148.32 12.79 149.08 15.29 147.63 16.14 146.87 13.63"/><polygon class="cls-77" points="146.88 12.66 148.33 11.82 148.32 12.79 146.87 13.63 146.88 12.66"/><polygon class="cls-78" points="145.07 11.62 146.52 10.78 148.33 11.82 146.88 12.66 145.07 11.62"/><polygon class="cls-79" points="146.88 12.66 146.87 13.63 147.63 16.14 142.41 13.13 145.07 12.46 145.07 11.62 146.88 12.66"/></g><g class="cls-6"><polygon class="cls-75" points="140.21 5.37 141.66 4.53 144.31 3.87 142.86 4.71 140.21 5.37"/><polygon class="cls-76" points="144.67 5.88 146.12 5.04 146.87 7.54 145.42 8.38 144.67 5.88"/><polygon class="cls-77" points="144.67 4.91 146.12 4.06 146.12 5.04 144.67 5.88 144.67 4.91"/><polygon class="cls-78" points="142.86 3.86 144.31 3.02 146.12 4.06 144.67 4.91 142.86 3.86"/><polygon class="cls-79" points="144.67 4.91 144.67 5.88 145.42 8.38 140.21 5.37 142.86 4.71 142.86 3.86 144.67 4.91"/></g><path class="cls-80" d="M66.28,57.17a2.27,2.27,0,0,1,2.06,0,.63.63,0,0,1,0,1.19,2.27,2.27,0,0,1-2.06,0A.63.63,0,0,1,66.28,57.17Z"/><path class="cls-81" d="M66.52,57.31a1.76,1.76,0,0,1,1.58,0,.48.48,0,0,1,0,.91,1.76,1.76,0,0,1-1.58,0A.48.48,0,0,1,66.52,57.31Z"/><path class="cls-82" d="M60.57,53.87a14.89,14.89,0,0,1,13.48,0c3.72,2.15,3.73,5.64,0,7.79a14.89,14.89,0,0,1-13.48,0C56.84,59.51,56.85,56,60.57,53.87Z"/><path class="cls-83" d="M65.87,56.93a3.21,3.21,0,0,1,2.88,0c.8.47.8,1.21,0,1.67a3.18,3.18,0,0,1-2.88,0A.88.88,0,0,1,65.87,56.93Z"/><path class="cls-84" d="M63.33,58.88a2.25,2.25,0,0,1,2,0,.62.62,0,0,1,0,1.18,2.27,2.27,0,0,1-2.06,0C62.76,59.73,62.76,59.2,63.33,58.88Z"/><path class="cls-85" d="M63.57,59a1.76,1.76,0,0,1,1.58,0,.49.49,0,0,1,0,.92,1.73,1.73,0,0,1-1.58,0C63.13,59.67,63.14,59.27,63.57,59Z"/><path class="cls-86" d="M57.62,55.58a14.89,14.89,0,0,1,13.48,0c3.73,2.15,3.73,5.64,0,7.79a14.91,14.91,0,0,1-13.49,0C53.89,61.21,53.9,57.73,57.62,55.58Z"/><path class="cls-87" d="M62.91,58.64a3.2,3.2,0,0,1,2.89,0,.88.88,0,0,1,0,1.66,3.17,3.17,0,0,1-2.89,0A.88.88,0,0,1,62.91,58.64Z"/><path class="cls-88" d="M60.38,60.58a2.25,2.25,0,0,1,2,0,.63.63,0,0,1,0,1.19,2.28,2.28,0,0,1-2,0C59.81,61.44,59.81,60.91,60.38,60.58Z"/><path class="cls-89" d="M60.62,60.72a1.71,1.71,0,0,1,1.57,0,.48.48,0,0,1,0,.91,1.76,1.76,0,0,1-1.58,0C60.18,61.37,60.18,61,60.62,60.72Z"/><path class="cls-90" d="M54.67,57.28a14.89,14.89,0,0,1,13.48,0c3.72,2.15,3.72,5.64,0,7.79a14.91,14.91,0,0,1-13.49,0C50.94,62.92,50.94,59.43,54.67,57.28Z"/><path class="cls-91" d="M60,60.34a3.2,3.2,0,0,1,2.89,0,.88.88,0,0,1,0,1.67A3.23,3.23,0,0,1,60,62,.88.88,0,0,1,60,60.34Z"/><path class="cls-92" d="M57.43,62.28a2.31,2.31,0,0,1,2,0,.63.63,0,0,1,0,1.19,2.25,2.25,0,0,1-2,0A.63.63,0,0,1,57.43,62.28Z"/><path class="cls-93" d="M57.67,62.42a1.74,1.74,0,0,1,1.57,0,.48.48,0,0,1,0,.91,1.76,1.76,0,0,1-1.58,0A.48.48,0,0,1,57.67,62.42Z"/><path class="cls-94" d="M51.72,59A14.89,14.89,0,0,1,65.2,59c3.72,2.15,3.72,5.64,0,7.79a14.91,14.91,0,0,1-13.49,0C48,64.62,48,61.14,51.72,59Z"/><path class="cls-95" d="M57,62a3.23,3.23,0,0,1,2.89,0,.88.88,0,0,1,0,1.67,3.2,3.2,0,0,1-2.89,0A.88.88,0,0,1,57,62Z"/></g></g></g></svg>