<svg xmlns="http://www.w3.org/2000/svg" viewBox="0 0 1116.73 800.69"><defs><style>.cls-1{fill:#a7a9ac;}.cls-1,.cls-10,.cls-11,.cls-12,.cls-13,.cls-14,.cls-2,.cls-3,.cls-4,.cls-5,.cls-6,.cls-7,.cls-8,.cls-9{fill-rule:evenodd;}.cls-2{fill:#bcbec0;}.cls-3{fill:#f5f5f5;}.cls-4{fill:#dcdcdc;}.cls-5{fill:#4b4bbf;}.cls-6{fill:#d1864d;}.cls-7{fill:#edb992;}.cls-8{fill:#e6a16c;}.cls-9{fill:#ffd6cc;}.cls-10{fill:#fff5f2;}.cls-11{fill:#6353f1;}.cls-12{fill:#6366f1;}.cls-13{fill:#58595b;}.cls-14{fill:#808285;}</style></defs><g id="Layer_2" data-name="Layer 2"><g id="Layer_1-2" data-name="Layer 1"><polygon class="cls-1" points="336.38 461.91 665.64 652.92 638.14 668.07 336.27 503.55 336.38 461.91"/><polygon class="cls-2" points="592.4 302.4 937.55 502.64 927.59 509.07 592.38 309.57 592.4 302.4"/><polygon class="cls-2" points="503.53 351.53 848.68 551.76 838.72 558.2 503.51 358.7 503.53 351.53"/><polygon class="cls-2" points="414.66 400.66 760.77 600.11 750.81 606.54 414.64 407.83 414.66 400.66"/><polygon class="cls-2" points="325.79 449.79 670.94 650.02 660.97 656.45 325.77 456.96 325.79 449.79"/><polygon class="cls-2" points="148.04 548.04 493.2 748.28 480.89 753.32 148.02 555.22 148.04 548.04"/><polygon class="cls-2" points="57.38 598.56 401.46 795.74 394.09 800.69 57.36 605.73 57.38 598.56"/><polygon class="cls-2" points="681.27 253.27 1030.51 450.85 1020.54 457.28 681.25 260.45 681.27 253.27"/><polygon class="cls-3" points="57.48 598.54 143.95 550.41 490.32 748.25 401.7 795.88 57.48 598.54"/><polygon class="cls-4" points="235.63 529.49 322.11 475.5 669.98 650.53 575.75 702.43 235.63 529.49"/><polygon class="cls-3" points="146.6 549.22 233.06 501.09 582.06 700.45 493.44 748.08 146.6 549.22"/><polygon class="cls-3" points="324.82 450.57 411.29 402.44 760.28 601.8 671.66 649.43 324.82 450.57"/><polygon class="cls-3" points="413.93 401.25 500.4 353.12 849.39 552.48 760.77 600.11 413.93 401.25"/><polygon class="cls-3" points="503.05 351.92 589.51 303.79 938.5 503.16 849.88 550.78 503.05 351.92"/><polygon class="cls-3" points="592.16 302.6 678.62 254.47 1027.62 453.83 939 501.46 592.16 302.6"/><polygon class="cls-3" points="681.27 253.27 767.74 205.14 1116.73 404.51 1028.11 452.14 681.27 253.27"/><path class="cls-5" d="M105.47,208.69C167.15,243,233,84.28,179,60.9l-107.47.47C73.53,97.14,52,133.49,54,169.27,63.32,182.6,90.65,198.79,105.47,208.69Z"/><path class="cls-6" d="M50.78,18.57c65.13,15.69,102.56,40.35,156.77,66.1l-67,125.54c-44.66-34.46-64.43-47.58-126.73-76.65C35.81,99.85,28.82,52.28,50.78,18.57Z"/><path class="cls-7" d="M65.4,22.36c77.91,28.9,85.54,41.9,131.71,64.53Q166.68,141,136.23,195.05c-50.3-38.12-65.11-46.74-114.11-61.78C42.09,102.61,45.43,53,65.4,22.36Z"/><path class="cls-8" d="M65.4,22.36c53.79,20,74.08,32.32,96.68,45.52-36.29,23.19-63.17,70.36-55.84,105.06-27.07-19-44.09-27-77-37.46a84.2,84.2,0,0,1-3.53-8.21C42.58,96.44,46.69,51.09,65.4,22.36Z"/><path class="cls-6" d="M203.25,82.85c22.36,6.46,35.51,12.88,37.94,29.73,47.89,46.06,80.31,76.16,102.14,95.34,26.3,15.17,32.19,30.28,28.81,45.38l-25.38,55.63c-6.25,26.51-12.49,47-18.69,55.65L252.3,397.06c-41-36.75-117.71-56.35-120.67-84.56-8.48-17.87-9.42-86.59-7.85-130.43,2-17.19-1-22.78-9.08-39.64C146.65,125.19,171.3,100.09,203.25,82.85Z"/><path class="cls-7" d="M187.76,82.93c26.91,4.8,50.88,19.21,53.2,35.29,45.75,44,76.71,72.75,97.55,91.07,25.12,14.49,34.88,26.37,29.09,47.56-8.08,17.72-17.72,31.21-25.8,48.92-6,25.32-11.77,49.93-17.69,58.22-24.13,10.34-48.42,15.61-72.54,25.95L134.22,284.64c-8.11-17.07-6.9-58.17-5.4-100,1.4-16.07-6.37-26.07-14.12-42.17C145.21,126,157.24,99.4,187.76,82.93Z"/><path class="cls-8" d="M369.21,246.85l-1.61,10c-8.08,17.72-17.72,31.21-25.8,48.92-6,25.32-11.77,49.93-17.69,58.22-18.83,8.07-37.77,13.05-56.64,19.77-24.34-14-44.56-34.42-56-56.72-18.47-35.94,27.87-37.75,51-30.53,17,5.31,56.46-50.3,59.43-37.28,7.2,31.57,12.14,29.24,17.28,18.35C344.53,266.19,359.65,267.22,369.21,246.85Z"/><path class="cls-6" d="M133.05,269.51c-5.59,29.34-5.07,45,8.69,62.64,11.62,15.22,26.37,30.7,38,45.92,7.53,20.34,17.74,26.6,29.16,26.47C217,407,227,413.8,233.33,411.8l7.19-.94C255.75,424.94,265,430,272.58,432.54l10.65-41.71c-17.92-19-13.21-36.13-41.75-34.67,1.78-8.63-4.42-14.12-20.53-26.64-1.57-7.84-2.74-8.48-4.32-16.32,24.06-3.85,34.66-13.23,31.87-18.43l-40.07-70.64Z"/><path class="cls-7" d="M131,219.15c-5.35,28,1.18,103.32,16.65,113.06q16.66,21.82,33.32,43.64c7.19,19.43,16.95,25.42,27.86,25.29,10.33,1.16,17.1,8.46,23.34,6.94l6.87-.9c14.55,13.46,23.39,18.29,30.63,20.72Q274.74,408,279.83,388C262.7,369.92,250.35,363,238.07,362c1.7-8.24-6.82-18.52-22.21-30.48q-2.27-11.24-4.52-22.48c23-3.68,38-7.77,35.3-12.74-12.76-22.5-21.24-62.78-34-85.28C188.63,225.43,155,204.69,131,219.15Z"/><path class="cls-6" d="M341.29,283.48c4.28,3.44,6.52,36.52-5.07,45.42C341.27,323.81,339.7,301.21,341.29,283.48Z"/><path class="cls-6" d="M335.07,223.56c16.66,15.51,25.14,29.06,4.09,54C344.88,260.42,352.79,242,335.07,223.56Z"/><path class="cls-6" d="M354.48,229.2c10.54,9.83,15.91,18.41,2.59,34.21C360.69,252.54,360.57,239.3,354.48,229.2Z"/><path class="cls-6" d="M235.58,407.64c13.36-13.09,28.09-6.62,36.83,3.46l1.19,15-1.18,4.63C264.41,428,251.67,422.52,235.58,407.64Z"/><path class="cls-9" d="M241.56,408.58c10.59-9.68,20.61-3.6,30.61,3l1.09,13.53-1.07,4.19C265,426.87,256.11,422,241.56,408.58Z"/><path class="cls-10" d="M253.78,403.54a22.84,22.84,0,0,1-5.3,11.16c-2.16-1.81-4.46-3.84-6.92-6.12C245.71,404.79,249.77,403.41,253.78,403.54Z"/><path class="cls-6" d="M303.69,223c16,3,19.34,13.24,22.75,29.18,2.61,12.2-7.68,27.27-7.93,39.74-.34,17.15,3.2,34.17,4.38,51.29,8.76,29.41,5.2,48.58,3.6,64.1-1.94,18.78,1.2,41.18,5.86,61.1,4.36,18.67,13.95,30.77,18.5,49.4,4.64,19-23.84,34-47,16.52-18.66-14.08-28.2-46.12-29.72-56.21-7.94-14.83-12.51-50.63-16.74-72.3-14-23.25-7.83-38.29-13.56-77.64-7.82-6.79-9.08-15-11.89-24-13.29-8.14-19.88-35.24-15.14-48.61C227,227,273.87,217.49,303.69,223Z"/><path class="cls-7" d="M294.65,215.3c24,10.89,23.12,27.78,23.85,43.1.58,12.33-2,27.05-2.19,38.79-.32,16.14,3,32.14,4.12,48.25,8.24,27.66,2.19,50.63.68,65.23-1.82,17.66,3.84,33.81,8.22,52.55,4.1,17.57,15.33,39.15,18.85,56.85,3,15.19-26.85,29.88-45.25,9.76-19.5-21.33-22.55-40.6-28.89-61.08-6.15-19.85-8.62-40.65-12.59-61-18.09-31-8.18-43.72-15.37-82.33-7.36-6.39-9.34-17.11-12-25.58-12.51-7.65-29.64-41.74-16.85-56.79C235.71,221.26,268.66,203.52,294.65,215.3Z"/><path class="cls-6" d="M275,382.1c1.57-8.25,33.06-25.55,48.11-8.83C312.4,368.68,290.11,371.91,275,382.1Z"/><path class="cls-6" d="M279.6,391.81c2.18,5.77,30.37,7.41,41.24-11.05C312.35,388.26,293.35,394,279.6,391.81Z"/><path class="cls-6" d="M311.05,527c-1.67-4-10.39-25.22-5.72-30.42,6.49-7.25,22.7-9.84,27.56-5,7.16,7.15,12.34,14.7,14.06,30.7C347.94,531.41,314.6,535.55,311.05,527Z"/><path class="cls-9" d="M313.42,526.46c-2.4-3.47-11.64-21.78-7.14-26.8,6.26-7,23.14-9.62,27.33-4.56,5.71,6.89,9.11,11.23,10.78,26.66C345.34,530.53,316.89,531.48,313.42,526.46Z"/><path class="cls-10" d="M334.35,496c-6.06,5-16.79,6.4-27.61,3.2,6.58-6.63,22.77-9,26.87-4.08Z"/><path class="cls-6" d="M297.46,471.81c1-5.3,21.24-16.42,30.92-5.68C321.51,463.18,307.19,465.26,297.46,471.81Z"/><path class="cls-6" d="M188.2,291c11.91,19.4,15.91,32,44.54,16.28C214.78,309.5,202.75,312,188.2,291Z"/><path class="cls-6" d="M238.74,353.26c5.33,9.93,8.43,14.6-5.7,22.81C239.85,373,237,364.87,238.74,353.26Z"/><path class="cls-6" d="M185.44,385.77c3.37-5.93,8.95-11.16,16.26-10.35-4.65,1.55-10.23,6.81-14.36,13.45C186.69,387.9,186.06,386.87,185.44,385.77Z"/><path class="cls-6" d="M192.1,398.88c4.53-1.87,9.73-7.52,13.37-14.43C210.89,391.4,198.55,399.14,192.1,398.88Z"/><path class="cls-11" d="M9.33,142.69C-19.47,85.32,21.62,7.46,88.5,0c32.81,21.31,57.69,39.6,90.5,60.9-65.69,6.61-127.47,110.68-73.53,147.79C78.29,191,36.5,160.37,9.33,142.69Z"/><path class="cls-12" d="M.48,104.72C.08,54.3,35.45,5.92,88.5,0c32.81,21.31,57.69,39.6,90.5,60.9-45.27,4.56-88.68,55.4-93.64,98.71C61,143.85,26.49,121.55.48,104.72Z"/><polygon class="cls-13" points="255.08 636.43 282.76 621.08 503.65 742.13 470.19 760.56 255.08 636.43"/><polygon class="cls-14" points="282.76 621.08 306.03 608.05 522.54 731.73 498.67 744.87 282.76 621.08"/><polygon class="cls-13" points="341.96 586.42 369.64 571.07 592.51 693.2 558.99 711.65 341.96 586.42"/><polygon class="cls-14" points="369.64 571.06 392.9 558.03 611.35 682.82 587.48 695.96 369.64 571.06"/><polygon class="cls-13" points="422.58 540.55 456.51 521.05 681.36 644.27 647.79 662.75 422.58 540.55"/><polygon class="cls-14" points="456.51 521.05 479.78 508.02 700.16 633.91 676.29 647.06 456.51 521.05"/><polygon class="cls-13" points="602.58 436.37 630.26 421.02 859.07 546.4 825.4 564.94 602.58 436.37"/><polygon class="cls-14" points="630.26 421.01 653.53 407.98 877.79 536.09 853.91 549.24 630.26 421.01"/><polygon class="cls-13" points="689.45 386.35 717.13 371 947.92 497.47 914.2 516.04 689.45 386.35"/><polygon class="cls-14" points="717.13 371 740.4 357.97 966.6 487.18 942.72 500.34 717.13 371"/><polygon class="cls-13" points="776.33 336.34 804.01 320.98 1036.77 448.54 1003 467.14 776.33 336.34"/><polygon class="cls-14" points="804.01 320.98 827.28 307.95 1055.41 438.27 1031.53 451.43 804.01 320.98"/></g></g></svg>