<svg xmlns="http://www.w3.org/2000/svg" viewBox="0 0 500 82.84"><defs><style>.cls-1{fill:#fff;}.cls-2{fill:#6366f1;}</style></defs><g id="Layer_2" data-name="Layer 2"><g id="Layer_1-2" data-name="Layer 1"><path class="cls-1" d="M13.55,52.15h6.5V75H0V9.61H13.55ZM40.77,9.61H34.26V52.15H27.5V75h20V52.15H40.77Zm28.66,0H61.49V52.15H55.62V75H75.68V52.15H69.43Zm20.71,0V52.15h-6.9V75H103.3V9.61Z"/><rect class="cls-2" x="17.49" width="13.07" height="46.69"/><rect class="cls-2" x="44.67" width="13.08" height="46.69"/><rect class="cls-2" x="73.24" width="13.07" height="46.69"/><path class="cls-1" d="M134.63,82.69v-8.8c.39.08,2.1.12,2.57.12,4.24,0,6.7-1.48,7.59-4.91l.39-1.63-15-43.13h12.45L151.88,58h.23l9.3-33.63h12L158.57,68.05C154.91,79,149.66,82.84,139,82.84,138.53,82.84,135.06,82.77,134.63,82.69Z"/><path class="cls-1" d="M175,45.75c0-13.7,8.25-22.15,21.13-22.15S217.23,32,217.23,45.75c0,13.9-8.14,22.19-21.14,22.19S175,59.61,175,45.75Zm30.71,0c0-8.45-3.62-13.43-9.58-13.43s-9.61,5-9.61,13.43,3.62,13.43,9.61,13.43S205.67,54.28,205.67,45.75Z"/><path class="cls-1" d="M262.57,67.2h-11V59.45h-.24c-2.18,5.37-6.38,8.37-12.88,8.37-9.27,0-15.38-6-15.38-16V24.34h11.37V49.45c0,5.8,2.88,8.91,8.13,8.91s8.61-3.81,8.61-9.61V24.34h11.36Z"/><path class="cls-1" d="M270.28,24.34h11V32h.24c1.44-5.29,5.14-8.17,10.2-8.17a10.69,10.69,0,0,1,3.3.43v10a12.14,12.14,0,0,0-4.2-.66c-5.76,0-9.15,3.58-9.15,9.57v24H270.28Z"/><path class="cls-2" d="M342.17,45.75c0,13.62-6.7,22-17.44,22-6.19,0-11-2.84-13.31-7.7h-.23V81.21H299.82V24.34H311v7.32h.23c2.26-4.83,7.28-7.82,13.32-7.82C335.44,23.84,342.17,32.13,342.17,45.75Zm-11.64,0C330.53,38,326.68,33,320.8,33s-9.65,5.1-9.65,12.77S315,58.52,320.8,58.52,330.53,53.54,330.53,45.75Z"/><path class="cls-2" d="M348,13.72a6.13,6.13,0,1,1,6.11,6A6,6,0,0,1,348,13.72Zm.43,10.62H359.8V67.2H348.44Z"/><path class="cls-2" d="M366,54.86c0-7.79,6-12.18,16.89-12.85l10.71-.66V38.51c0-4.12-2.84-6.38-7.52-6.38-4.12,0-7,2.18-7.55,5.29H368.09c.31-8.17,7.71-13.82,18.41-13.82,11,0,18.22,5.65,18.22,14.21V67.2h-11V60.58h-.23c-2.34,4.48-7.63,7.12-13.12,7.12C372.14,67.7,366,62.53,366,54.86Zm27.6-3.39V48.32l-9,.62c-4.75.31-7.28,2.18-7.28,5.34s2.68,5.13,6.81,5.13C389.34,59.41,393.55,56.14,393.55,51.47Z"/><path class="cls-2" d="M412.35,24.34h11V32h.24c2.45-5.41,6.81-8.29,13.39-8.29,9.49,0,14.86,6,14.86,16V67.2H440.45V42.09c0-5.68-2.65-8.91-8-8.91s-8.72,3.89-8.72,9.57V67.2H412.35Z"/><path class="cls-2" d="M457.73,45.75c0-13.7,8.25-22.15,21.14-22.15S500,32,500,45.75c0,13.9-8.13,22.19-21.13,22.19S457.73,59.61,457.73,45.75Zm30.71,0c0-8.45-3.62-13.43-9.57-13.43s-9.62,5-9.62,13.43,3.62,13.43,9.62,13.43S488.44,54.28,488.44,45.75Z"/></g></g></svg>